<svg width="39" height="34" viewBox="0 0 39 34" fill="none" xmlns="http://www.w3.org/2000/svg">
<path d="M26.2969 2.78125C26.2969 2.14722 26.5487 1.53915 26.9971 1.09082C27.4454 0.642495 28.0535 0.390626 28.6875 0.390626L33.4688 0.390626C34.1028 0.390626 34.7108 0.642495 35.1592 1.09082C35.6075 1.53915 35.8594 2.14722 35.8594 2.78125L35.8594 31.4688L37.0547 31.4688C37.3717 31.4688 37.6757 31.5947 37.8999 31.8188C38.1241 32.043 38.25 32.347 38.25 32.6641C38.25 32.9811 38.1241 33.2851 37.8999 33.5093C37.6757 33.7334 37.3717 33.8594 37.0547 33.8594L1.19531 33.8594C0.878295 33.8594 0.574262 33.7334 0.350098 33.5093C0.125933 33.2851 -1.18596e-06 32.9811 -1.17443e-06 32.6641C-1.16289e-06 32.347 0.125933 32.043 0.350098 31.8188C0.574262 31.5947 0.878295 31.4688 1.19531 31.4688L2.39062 31.4688L2.39062 24.2969C2.39062 23.6628 2.64249 23.0548 3.09082 22.6064C3.53915 22.1581 4.14722 21.9063 4.78125 21.9063L9.5625 21.9063C10.1965 21.9063 10.8046 22.1581 11.2529 22.6064C11.7013 23.0548 11.9531 23.6628 11.9531 24.2969L11.9531 31.4688L14.3437 31.4688L14.3437 14.7344C14.3437 14.1003 14.5956 13.4923 15.0439 13.0439C15.4923 12.5956 16.1003 12.3438 16.7344 12.3438L21.5156 12.3438C22.1497 12.3438 22.7577 12.5956 23.2061 13.0439C23.6544 13.4923 23.9062 14.1003 23.9062 14.7344L23.9062 31.4688L26.2969 31.4688L26.2969 2.78125ZM28.6875 31.4688L33.4687 31.4688L33.4687 2.78125L28.6875 2.78125L28.6875 31.4688ZM21.5156 31.4688L21.5156 14.7344L16.7344 14.7344L16.7344 31.4688L21.5156 31.4688ZM9.5625 31.4688L9.5625 24.2969L4.78125 24.2969L4.78125 31.4688L9.5625 31.4688Z" fill="#E617DB"/>
</svg>
