<svg width="40" height="40" viewBox="0 0 40 40" fill="none" xmlns="http://www.w3.org/2000/svg">
<mask id="mask0_277_886" style="mask-type:alpha" maskUnits="userSpaceOnUse" x="3" y="0" width="33" height="39">
<path fill-rule="evenodd" clip-rule="evenodd" d="M3.88867 0.714355H35.7934V38.9683H3.88867V0.714355Z" fill="white"/>
</mask>
<g mask="url(#mask0_277_886)">
<path fill-rule="evenodd" clip-rule="evenodd" d="M19.8415 3.49213C18.2542 3.49213 8.17481 7.06356 7.0637 8.01594C6.74624 8.3334 6.74624 8.96832 6.74624 12.9366C6.74624 14.8413 6.8256 17.4604 6.8256 21.1112C6.8256 30.9524 17.6193 35.3175 19.8415 36.1112C22.0637 35.3175 32.8574 30.9524 32.8574 21.1905C32.8574 17.5398 32.9367 14.9207 32.9367 13.0159C33.0161 9.04769 33.0161 8.41277 32.6193 8.09531C31.5081 7.06356 21.4288 3.49213 19.8415 3.49213ZM19.8415 38.9683C19.6827 38.9683 19.6034 38.9683 19.4447 38.889C18.8097 38.7302 3.96846 34.1271 3.96846 21.1905C3.96846 17.6191 3.88909 15.0001 3.88909 13.0953C3.80973 8.3334 3.80973 7.30166 5.00021 6.11118C6.50814 4.52388 17.6986 0.714355 19.8415 0.714355C21.9843 0.714355 33.1748 4.52388 34.6034 6.03182C35.8732 7.30166 35.7939 8.25404 35.7145 13.0159C35.7145 14.9207 35.6351 17.5398 35.6351 21.1112C35.7145 34.1271 20.8732 38.7302 20.2383 38.889C20.0796 38.9683 20.0002 38.9683 19.8415 38.9683Z" fill="#E617DB"/>
<path fill-rule="evenodd" clip-rule="evenodd" d="M18.492 24.2064C18.0952 24.2064 17.7777 24.0477 17.4603 23.8096L13.8888 20.2382C13.3333 19.6826 13.3333 18.8096 13.8888 18.254C14.4444 17.6985 15.3174 17.6985 15.873 18.254L18.4126 20.7937L24.7619 14.4445C25.3174 13.8889 26.1904 13.8889 26.746 14.4445C27.3015 15.0001 27.3015 15.8731 26.746 16.4286L19.5238 23.8096C19.2063 24.127 18.8888 24.2064 18.492 24.2064Z" fill="#E617DB"/>
</g>
</svg>
