<svg width="1311" height="1047" viewBox="0 0 1311 1047" fill="none" xmlns="http://www.w3.org/2000/svg">
<mask id="mask0_277_454" style="mask-type:alpha" maskUnits="userSpaceOnUse" x="0" y="-371" width="1480" height="1418">
<rect x="0.000366211" y="311.119" width="860" height="1205" transform="rotate(-52.3727 0.000366211 311.119)" fill="url(#paint0_linear_277_454)"/>
</mask>
<g mask="url(#mask0_277_454)">
<path d="M919.99 75.8595C1124.25 233.313 1174.22 510.978 1031.6 695.989C1016.65 715.393 1000.11 733.076 982.339 748.922C1074.16 568.06 1014.95 330.877 832.075 189.907C649.202 48.9379 404.839 52.1082 253.224 186.876C264.026 165.657 276.918 145.165 291.876 125.761C434.493 -59.2496 715.733 -81.5941 919.99 75.8595Z" fill="#7326F1"/>
<g filter="url(#filter0_f_277_454)">
<path d="M910.222 88.5314C1114.48 245.985 1174.22 510.978 1031.6 695.989C1016.65 715.393 1000.11 733.076 982.339 748.922C1074.16 568.06 1024.72 318.205 841.843 177.235C658.971 36.2659 404.839 52.1082 253.224 186.876C264.026 165.657 276.918 145.165 291.876 125.761C434.493 -59.2496 705.965 -68.9221 910.222 88.5314Z" fill="#7326F1"/>
</g>
<g filter="url(#filter1_f_277_454)">
<path d="M905.338 94.8674C1109.59 252.321 1170.79 528.534 1028.17 713.545C1013.21 732.949 996.678 750.632 978.907 766.478C1070.73 585.616 1029.6 311.869 846.727 170.899C663.855 29.9298 392.81 69.3506 241.195 204.118C251.997 182.899 264.889 162.408 279.847 143.004C422.465 -42.0072 701.081 -62.5862 905.338 94.8674Z" fill="#7326F1"/>
</g>
<g filter="url(#filter2_f_277_454)">
<path d="M905.338 94.8674C1109.59 252.321 1170.79 528.534 1028.17 713.545C1013.21 732.949 996.678 750.632 978.907 766.478C1070.73 585.616 1029.6 311.869 846.727 170.899C663.855 29.9298 392.81 69.3506 241.195 204.118C251.997 182.899 264.889 162.408 279.847 143.004C422.465 -42.0072 701.081 -62.5862 905.338 94.8674Z" fill="#7326F1"/>
</g>
<g filter="url(#filter3_f_277_454)">
<path d="M905.338 94.8674C1109.59 252.321 1170.79 528.534 1028.17 713.545C1013.21 732.949 996.678 750.632 978.907 766.478C1070.73 585.616 1029.6 311.869 846.727 170.899C663.855 29.9298 392.81 69.3506 241.195 204.118C251.997 182.899 264.889 162.408 279.847 143.004C422.465 -42.0072 701.081 -62.5862 905.338 94.8674Z" fill="#7326F1"/>
</g>
<g filter="url(#filter4_f_277_454)">
<path d="M891.543 139.789C1095.8 297.243 1170.79 528.534 1028.17 713.545C1013.21 732.949 996.678 750.632 978.907 766.478C1070.73 585.616 1050.64 295.258 862.601 150.307C626.998 -31.31 392.81 69.3506 241.195 204.118C251.997 182.899 264.889 162.408 279.847 143.004C422.465 -42.0072 687.286 -17.6646 891.543 139.789Z" fill="#7326F1"/>
</g>
<g filter="url(#filter5_f_277_454)">
<path d="M891.543 139.789C1095.8 297.243 1217.1 528.246 1074.48 713.257C1059.52 732.661 964.784 762.031 947.013 777.878C1038.83 597.016 1050.64 295.258 862.601 150.307C626.998 -31.3099 398.896 103.714 247.282 238.482C265.735 252.707 215.165 163.851 230.123 144.447C372.741 -40.5642 687.286 -17.6646 891.543 139.789Z" fill="#7326F1"/>
</g>
<g filter="url(#filter6_f_277_454)">
<path d="M891.543 139.789C1095.8 297.243 1217.1 528.246 1074.48 713.257C1059.52 732.661 964.784 762.031 947.013 777.878C1038.83 597.016 1050.64 295.258 862.601 150.307C626.998 -31.3099 398.896 103.714 247.282 238.482C265.735 252.707 215.165 163.851 230.123 144.447C372.741 -40.5642 687.286 -17.6646 891.543 139.789Z" fill="#7326F1"/>
</g>
<g filter="url(#filter7_f_277_454)">
<path d="M891.543 139.789C1095.8 297.243 1217.1 528.246 1074.48 713.257C1059.52 732.661 964.784 762.031 947.013 777.878C1038.83 597.016 1050.64 295.258 862.601 150.307C626.998 -31.3099 398.896 103.714 247.282 238.482C265.735 252.707 215.165 163.851 230.123 144.447C372.741 -40.5642 687.286 -17.6646 891.543 139.789Z" fill="#7326F1"/>
</g>
</g>
<defs>
<filter id="filter0_f_277_454" x="241.224" y="-33.8804" width="880.508" height="794.803" filterUnits="userSpaceOnUse" color-interpolation-filters="sRGB">
<feFlood flood-opacity="0" result="BackgroundImageFix"/>
<feBlend mode="normal" in="SourceGraphic" in2="BackgroundImageFix" result="shape"/>
<feGaussianBlur stdDeviation="6" result="effect1_foregroundBlur_277_454"/>
</filter>
<filter id="filter1_f_277_454" x="205.195" y="-46.7795" width="936.653" height="849.258" filterUnits="userSpaceOnUse" color-interpolation-filters="sRGB">
<feFlood flood-opacity="0" result="BackgroundImageFix"/>
<feBlend mode="normal" in="SourceGraphic" in2="BackgroundImageFix" result="shape"/>
<feGaussianBlur stdDeviation="18" result="effect1_foregroundBlur_277_454"/>
</filter>
<filter id="filter2_f_277_454" x="189.195" y="-62.7795" width="968.653" height="881.258" filterUnits="userSpaceOnUse" color-interpolation-filters="sRGB">
<feFlood flood-opacity="0" result="BackgroundImageFix"/>
<feBlend mode="normal" in="SourceGraphic" in2="BackgroundImageFix" result="shape"/>
<feGaussianBlur stdDeviation="26" result="effect1_foregroundBlur_277_454"/>
</filter>
<filter id="filter3_f_277_454" x="189.195" y="-62.7795" width="968.653" height="881.258" filterUnits="userSpaceOnUse" color-interpolation-filters="sRGB">
<feFlood flood-opacity="0" result="BackgroundImageFix"/>
<feBlend mode="normal" in="SourceGraphic" in2="BackgroundImageFix" result="shape"/>
<feGaussianBlur stdDeviation="26" result="effect1_foregroundBlur_277_454"/>
</filter>
<filter id="filter4_f_277_454" x="117.195" y="-111.15" width="1108.55" height="1001.63" filterUnits="userSpaceOnUse" color-interpolation-filters="sRGB">
<feFlood flood-opacity="0" result="BackgroundImageFix"/>
<feBlend mode="normal" in="SourceGraphic" in2="BackgroundImageFix" result="shape"/>
<feGaussianBlur stdDeviation="62" result="effect1_foregroundBlur_277_454"/>
</filter>
<filter id="filter5_f_277_454" x="151.316" y="-62.3972" width="1061.15" height="916.275" filterUnits="userSpaceOnUse" color-interpolation-filters="sRGB">
<feFlood flood-opacity="0" result="BackgroundImageFix"/>
<feBlend mode="normal" in="SourceGraphic" in2="BackgroundImageFix" result="shape"/>
<feGaussianBlur stdDeviation="38" result="effect1_foregroundBlur_277_454"/>
</filter>
<filter id="filter6_f_277_454" x="63.3157" y="-150.397" width="1237.15" height="1092.28" filterUnits="userSpaceOnUse" color-interpolation-filters="sRGB">
<feFlood flood-opacity="0" result="BackgroundImageFix"/>
<feBlend mode="normal" in="SourceGraphic" in2="BackgroundImageFix" result="shape"/>
<feGaussianBlur stdDeviation="82" result="effect1_foregroundBlur_277_454"/>
</filter>
<filter id="filter7_f_277_454" x="-16.6843" y="-230.397" width="1397.15" height="1252.28" filterUnits="userSpaceOnUse" color-interpolation-filters="sRGB">
<feFlood flood-opacity="0" result="BackgroundImageFix"/>
<feBlend mode="normal" in="SourceGraphic" in2="BackgroundImageFix" result="shape"/>
<feGaussianBlur stdDeviation="122" result="effect1_foregroundBlur_277_454"/>
</filter>
<linearGradient id="paint0_linear_277_454" x1="430" y1="311.119" x2="430" y2="1516.12" gradientUnits="userSpaceOnUse">
<stop stop-color="#C4C4C4" stop-opacity="0"/>
<stop offset="0.380208" stop-color="#C4C4C4"/>
<stop offset="0.578125" stop-color="#C4C4C4"/>
<stop offset="1" stop-color="#C4C4C4" stop-opacity="0"/>
</linearGradient>
</defs>
</svg>
