<svg width="598" height="689" viewBox="0 0 598 689" fill="none" xmlns="http://www.w3.org/2000/svg">
<path d="M48.2642 55V40.4545H51.3395V46.456H57.5824V40.4545H60.6506V55H57.5824V48.9915H51.3395V55H48.2642ZM63.1861 55V40.4545H72.9872V42.9901H66.2614V46.456H72.483V48.9915H66.2614V52.4645H73.0156V55H63.1861ZM77.9393 55H74.6438L79.6651 40.4545H83.6282L88.6424 55H85.3469L81.7035 43.7784H81.5898L77.9393 55ZM77.7333 49.2827H85.5174V51.6832H77.7333V49.2827ZM90.3931 55V40.4545H96.1317C97.2302 40.4545 98.1677 40.651 98.9442 41.044C99.7255 41.4323 100.32 41.9839 100.727 42.6989C101.139 43.4091 101.345 44.2448 101.345 45.206C101.345 46.1719 101.136 47.0028 100.72 47.6989C100.303 48.3902 99.6995 48.9205 98.9087 49.2898C98.1228 49.6591 97.171 49.8438 96.0536 49.8438H92.2113V47.3722H95.5565C96.1436 47.3722 96.6313 47.2917 97.0195 47.1307C97.4078 46.9697 97.6966 46.7282 97.886 46.4062C98.0801 46.0843 98.1772 45.6842 98.1772 45.206C98.1772 44.723 98.0801 44.3158 97.886 43.9844C97.6966 43.6529 97.4054 43.402 97.0124 43.2315C96.6242 43.0563 96.1341 42.9688 95.5423 42.9688H93.4684V55H90.3931ZM98.2482 48.3807L101.863 55H98.4684L94.9315 48.3807H98.2482ZM102.964 42.9901V40.4545H114.91V42.9901H110.457V55H107.417V42.9901H102.964ZM116.877 55V40.4545H122.701C123.771 40.4545 124.664 40.6132 125.379 40.9304C126.094 41.2476 126.631 41.688 126.991 42.2514C127.351 42.8101 127.531 43.4541 127.531 44.1832C127.531 44.7514 127.417 45.2509 127.19 45.6818C126.963 46.108 126.65 46.4583 126.252 46.733C125.859 47.0028 125.41 47.1946 124.903 47.3082V47.4503C125.457 47.474 125.975 47.6302 126.458 47.919C126.946 48.2079 127.342 48.6127 127.645 49.1335C127.948 49.6496 128.099 50.2652 128.099 50.9801C128.099 51.7519 127.907 52.4408 127.524 53.0469C127.145 53.6482 126.584 54.1241 125.841 54.4744C125.097 54.8248 124.181 55 123.092 55H116.877ZM119.953 52.4858H122.46C123.317 52.4858 123.942 52.3224 124.335 51.9957C124.728 51.6643 124.924 51.224 124.924 50.6747C124.924 50.2723 124.827 49.9171 124.633 49.6094C124.439 49.3016 124.162 49.0601 123.802 48.8849C123.447 48.7098 123.023 48.6222 122.531 48.6222H119.953V52.4858ZM119.953 46.5412H122.233C122.654 46.5412 123.028 46.4678 123.355 46.321C123.686 46.1695 123.947 45.9564 124.136 45.6818C124.33 45.4072 124.427 45.0781 124.427 44.6946C124.427 44.169 124.24 43.7453 123.866 43.4233C123.497 43.1013 122.971 42.9403 122.289 42.9403H119.953V46.5412ZM130.1 55V40.4545H139.901V42.9901H133.175V46.456H139.397V48.9915H133.175V52.4645H139.93V55H130.1ZM144.853 55H141.558L146.579 40.4545H150.542L155.556 55H152.261L148.618 43.7784H148.504L144.853 55ZM144.647 49.2827H152.431V51.6832H144.647V49.2827ZM154.976 42.9901V40.4545H166.922V42.9901H162.469V55H159.429V42.9901H154.976ZM172.964 42.9901V40.4545H184.91V42.9901H180.457V55H177.417V42.9901H172.964ZM199.58 47.7273C199.58 49.3134 199.279 50.6629 198.678 51.7756C198.081 52.8883 197.267 53.7382 196.235 54.3253C195.207 54.9077 194.052 55.1989 192.769 55.1989C191.476 55.1989 190.316 54.9053 189.289 54.3182C188.261 53.7311 187.449 52.8812 186.853 51.7685C186.256 50.6558 185.958 49.3087 185.958 47.7273C185.958 46.1411 186.256 44.7917 186.853 43.679C187.449 42.5663 188.261 41.7187 189.289 41.1364C190.316 40.5492 191.476 40.2557 192.769 40.2557C194.052 40.2557 195.207 40.5492 196.235 41.1364C197.267 41.7187 198.081 42.5663 198.678 43.679C199.279 44.7917 199.58 46.1411 199.58 47.7273ZM196.462 47.7273C196.462 46.6998 196.308 45.8333 196 45.1278C195.697 44.4223 195.269 43.8873 194.715 43.5227C194.161 43.1581 193.512 42.9759 192.769 42.9759C192.025 42.9759 191.377 43.1581 190.823 43.5227C190.269 43.8873 189.838 44.4223 189.53 45.1278C189.227 45.8333 189.076 46.6998 189.076 47.7273C189.076 48.7547 189.227 49.6212 189.53 50.3267C189.838 51.0322 190.269 51.5672 190.823 51.9318C191.377 52.2964 192.025 52.4787 192.769 52.4787C193.512 52.4787 194.161 52.2964 194.715 51.9318C195.269 51.5672 195.697 51.0322 196 50.3267C196.308 49.6212 196.462 48.7547 196.462 47.7273ZM201.858 55V40.4545H204.933V46.8679H205.125L210.359 40.4545H214.045L208.648 46.9673L214.109 55H210.43L206.446 49.0199L204.933 50.8665V55H201.858ZM215.647 55V40.4545H225.448V42.9901H218.722V46.456H224.944V48.9915H218.722V52.4645H225.477V55H215.647ZM240.059 40.4545V55H237.403L231.075 45.8452H230.968V55H227.893V40.4545H230.592L236.87 49.6023H236.998V40.4545H240.059ZM48.2642 64.4545H52.0568L56.0625 74.2273H56.233L60.2386 64.4545H64.0312V79H61.0483V69.5327H60.9276L57.1634 78.929H55.1321L51.3679 69.4972H51.2472V79H48.2642V64.4545ZM66.565 79V64.4545H76.3661V66.9901H69.6403V70.456H75.8619V72.9915H69.6403V76.4645H76.3945V79H66.565ZM78.2571 66.9901V64.4545H90.2031V66.9901H85.75V79H82.7102V66.9901H78.2571ZM92.1705 79V64.4545H97.9091C99.0076 64.4545 99.9451 64.651 100.722 65.044C101.503 65.4323 102.097 65.9839 102.504 66.6989C102.916 67.4091 103.122 68.2448 103.122 69.206C103.122 70.1719 102.914 71.0028 102.497 71.6989C102.08 72.3902 101.477 72.9205 100.686 73.2898C99.9001 73.6591 98.9484 73.8438 97.831 73.8438H93.9886V71.3722H97.3338C97.9209 71.3722 98.4086 71.2917 98.7969 71.1307C99.1851 70.9697 99.474 70.7282 99.6634 70.4062C99.8575 70.0843 99.9545 69.6842 99.9545 69.206C99.9545 68.723 99.8575 68.3158 99.6634 67.9844C99.474 67.6529 99.1828 67.402 98.7898 67.2315C98.4015 67.0563 97.9115 66.9688 97.3196 66.9688H95.2457V79H92.1705ZM100.026 72.3807L103.641 79H100.246L96.7088 72.3807H100.026ZM108.371 64.4545V79H105.295V64.4545H108.371ZM123.735 69.5469H120.624C120.567 69.1444 120.451 68.7869 120.276 68.4744C120.101 68.1572 119.876 67.8873 119.601 67.6648C119.327 67.4422 119.009 67.2718 118.65 67.1534C118.294 67.035 117.908 66.9759 117.492 66.9759C116.739 66.9759 116.083 67.1629 115.525 67.5369C114.966 67.9062 114.533 68.446 114.225 69.1562C113.917 69.8617 113.763 70.7187 113.763 71.7273C113.763 72.7642 113.917 73.6354 114.225 74.3409C114.537 75.0464 114.973 75.5791 115.532 75.9389C116.09 76.2988 116.737 76.4787 117.471 76.4787C117.882 76.4787 118.264 76.4242 118.614 76.3153C118.969 76.2064 119.284 76.0478 119.559 75.8395C119.833 75.6264 120.06 75.3684 120.24 75.0653C120.425 74.7623 120.553 74.4167 120.624 74.0284L123.735 74.0426C123.654 74.7102 123.453 75.3542 123.131 75.9744C122.814 76.59 122.385 77.1416 121.846 77.6293C121.31 78.1122 120.671 78.4957 119.928 78.7798C119.189 79.0592 118.354 79.1989 117.421 79.1989C116.123 79.1989 114.963 78.9053 113.941 78.3182C112.923 77.7311 112.118 76.8812 111.526 75.7685C110.939 74.6558 110.645 73.3087 110.645 71.7273C110.645 70.1411 110.944 68.7917 111.54 67.679C112.137 66.5663 112.946 65.7187 113.969 65.1364C114.992 64.5492 116.142 64.2557 117.421 64.2557C118.264 64.2557 119.045 64.3741 119.765 64.6108C120.489 64.8475 121.131 65.1932 121.689 65.6477C122.248 66.0975 122.703 66.6491 123.053 67.3026C123.408 67.956 123.635 68.7041 123.735 69.5469ZM133.831 68.6378C133.774 68.0649 133.53 67.6198 133.099 67.3026C132.668 66.9853 132.083 66.8267 131.345 66.8267C130.843 66.8267 130.419 66.8977 130.074 67.0398C129.728 67.1771 129.463 67.3688 129.278 67.6151C129.098 67.8613 129.008 68.1406 129.008 68.4531C128.999 68.7135 129.053 68.9408 129.172 69.1349C129.295 69.3291 129.463 69.4972 129.676 69.6392C129.889 69.7765 130.135 69.8973 130.414 70.0014C130.694 70.1009 130.992 70.1861 131.309 70.2571L132.616 70.5696C133.251 70.7116 133.833 70.901 134.363 71.1378C134.894 71.3745 135.353 71.6657 135.741 72.0114C136.129 72.357 136.43 72.7642 136.643 73.233C136.861 73.7017 136.972 74.2391 136.977 74.8452C136.972 75.7353 136.745 76.5071 136.295 77.1605C135.85 77.8092 135.206 78.3134 134.363 78.6733C133.525 79.0284 132.514 79.206 131.331 79.206C130.156 79.206 129.134 79.026 128.262 78.6662C127.396 78.3063 126.719 77.7737 126.231 77.0682C125.748 76.358 125.495 75.4796 125.471 74.4332H128.447C128.48 74.9209 128.62 75.3281 128.866 75.6548C129.117 75.9768 129.451 76.2206 129.868 76.3864C130.289 76.5473 130.765 76.6278 131.295 76.6278C131.816 76.6278 132.268 76.5521 132.652 76.4006C133.04 76.2491 133.341 76.0384 133.554 75.7685C133.767 75.4986 133.873 75.1884 133.873 74.8381C133.873 74.5114 133.776 74.2367 133.582 74.0142C133.393 73.7917 133.113 73.6023 132.744 73.446C132.379 73.2898 131.932 73.1477 131.402 73.0199L129.818 72.6222C128.592 72.3239 127.623 71.8575 126.913 71.223C126.203 70.5885 125.85 69.7339 125.855 68.6591C125.85 67.7784 126.084 67.009 126.558 66.3509C127.036 65.6927 127.692 65.179 128.525 64.8097C129.359 64.4403 130.306 64.2557 131.366 64.2557C132.446 64.2557 133.388 64.4403 134.193 64.8097C135.002 65.179 135.632 65.6927 136.082 66.3509C136.532 67.009 136.764 67.7713 136.778 68.6378H133.831ZM140.757 79.1847C140.288 79.1847 139.886 79.0189 139.55 78.6875C139.218 78.3513 139.053 77.9489 139.053 77.4801C139.053 77.0161 139.218 76.6184 139.55 76.2869C139.886 75.9555 140.288 75.7898 140.757 75.7898C141.212 75.7898 141.609 75.9555 141.95 76.2869C142.291 76.6184 142.462 77.0161 142.462 77.4801C142.462 77.7926 142.381 78.0791 142.22 78.3395C142.064 78.5952 141.858 78.8011 141.602 78.9574C141.347 79.1089 141.065 79.1847 140.757 79.1847Z" fill="white" fill-opacity="0.7"/>
<g clip-path="url(#clip0_277_658)">
<g clip-path="url(#clip1_277_658)">
<path d="M292.5 202.461L409.845 185.995C410.594 191.452 410.979 196.953 411 202.461L292.5 202.461Z" fill="#010002"/>
<path d="M292.5 202.461L405.829 167.823C407.667 173.752 409.013 179.823 409.853 185.974L292.5 202.461Z" fill="#00EAFF"/>
<path d="M292.5 202.461L400.751 154.303C402.741 158.701 404.435 163.227 405.822 167.851L292.5 202.461Z" fill="#172941"/>
<path d="M292.5 202.461L389.538 134.474C393.924 140.695 397.68 147.338 400.751 154.303L292.5 202.461Z" fill="#E617DB"/>
<path d="M292.5 202.461L173.993 202.461C173.995 171.037 186.481 140.901 208.705 118.681C230.929 96.4614 261.071 83.9788 292.5 83.9788C333.072 83.9788 366.292 101.273 389.538 134.502L292.5 202.461Z" fill="#F50B5C"/>
<path d="M292.5 202.461L405.199 239.075C400.393 253.875 392.718 267.584 382.613 279.418C372.507 291.252 360.169 300.98 346.304 308.047C332.438 315.113 317.316 319.379 301.801 320.602C286.286 321.824 270.682 319.979 255.88 315.172C206.086 298.996 173.993 254.868 173.993 202.461L292.5 202.461Z" fill="#F5841F"/>
<path d="M292.5 202.461L411 202.461C411.103 214.902 409.142 227.275 405.199 239.075L292.5 202.461Z" fill="#375BFF"/>
<circle cx="293" cy="203" r="49" fill="#15151F"/>
</g>
</g>
<rect x="49" y="351" width="500" height="288" rx="27" fill="black" fill-opacity="0.2"/>
<circle cx="125.5" cy="395.5" r="5.5" fill="#375BFF"/>
<path d="M152.691 394.662L150.074 394.047L150.934 386.781H159.244V389.34H153.619L153.297 392.162C153.453 392.071 153.717 391.964 154.088 391.84C154.465 391.71 154.882 391.645 155.338 391.645C156.041 391.645 156.663 391.752 157.203 391.967C157.75 392.175 158.212 392.484 158.59 392.895C158.967 393.298 159.251 393.796 159.439 394.389C159.635 394.981 159.732 395.658 159.732 396.42C159.732 397.032 159.632 397.624 159.43 398.197C159.234 398.764 158.932 399.275 158.521 399.73C158.118 400.18 157.607 400.538 156.988 400.805C156.37 401.065 155.637 401.195 154.791 401.195C154.16 401.195 153.544 401.098 152.945 400.902C152.346 400.707 151.806 400.427 151.324 400.062C150.849 399.691 150.471 399.245 150.191 398.725C149.918 398.197 149.785 397.608 149.791 396.957H153.102C153.121 397.302 153.202 397.602 153.346 397.855C153.489 398.109 153.681 398.308 153.922 398.451C154.169 398.588 154.452 398.656 154.771 398.656C155.097 398.656 155.367 398.591 155.582 398.461C155.797 398.331 155.966 398.152 156.09 397.924C156.214 397.696 156.301 397.436 156.354 397.143C156.406 396.843 156.432 396.527 156.432 396.195C156.432 395.844 156.393 395.528 156.314 395.248C156.243 394.968 156.126 394.73 155.963 394.535C155.8 394.333 155.589 394.18 155.328 394.076C155.074 393.972 154.768 393.92 154.41 393.92C153.935 393.92 153.561 394.001 153.287 394.164C153.014 394.327 152.815 394.493 152.691 394.662ZM161.49 390.268V389.516C161.49 388.975 161.607 388.484 161.842 388.041C162.076 387.598 162.428 387.243 162.896 386.977C163.365 386.71 163.948 386.576 164.645 386.576C165.361 386.576 165.953 386.71 166.422 386.977C166.891 387.243 167.239 387.598 167.467 388.041C167.701 388.484 167.818 388.975 167.818 389.516V390.268C167.818 390.795 167.701 391.28 167.467 391.723C167.239 392.165 166.891 392.52 166.422 392.787C165.96 393.054 165.377 393.188 164.674 393.188C163.964 393.188 163.375 393.054 162.906 392.787C162.438 392.52 162.083 392.165 161.842 391.723C161.607 391.28 161.49 390.795 161.49 390.268ZM163.6 389.516V390.268C163.6 390.463 163.639 390.648 163.717 390.824C163.795 391 163.912 391.143 164.068 391.254C164.231 391.358 164.43 391.41 164.664 391.41C164.905 391.41 165.1 391.358 165.25 391.254C165.4 391.143 165.51 391 165.582 390.824C165.66 390.648 165.699 390.463 165.699 390.268V389.516C165.699 389.307 165.66 389.115 165.582 388.939C165.51 388.764 165.396 388.624 165.24 388.52C165.084 388.409 164.885 388.354 164.645 388.354C164.417 388.354 164.225 388.409 164.068 388.52C163.912 388.624 163.795 388.764 163.717 388.939C163.639 389.115 163.6 389.307 163.6 389.516ZM168.238 398.266V397.514C168.238 396.98 168.355 396.492 168.59 396.049C168.831 395.606 169.186 395.251 169.654 394.984C170.13 394.717 170.715 394.584 171.412 394.584C172.128 394.584 172.717 394.717 173.18 394.984C173.648 395.251 173.997 395.606 174.225 396.049C174.459 396.492 174.576 396.98 174.576 397.514V398.266C174.576 398.799 174.459 399.288 174.225 399.73C173.997 400.173 173.652 400.528 173.189 400.795C172.727 401.062 172.145 401.195 171.441 401.195C170.732 401.195 170.139 401.062 169.664 400.795C169.189 400.528 168.831 400.173 168.59 399.73C168.355 399.288 168.238 398.799 168.238 398.266ZM170.357 397.514V398.266C170.357 398.467 170.406 398.656 170.504 398.832C170.602 399.008 170.732 399.151 170.895 399.262C171.057 399.366 171.236 399.418 171.432 399.418C171.731 399.418 171.952 399.366 172.096 399.262C172.245 399.151 172.343 399.008 172.389 398.832C172.441 398.656 172.467 398.467 172.467 398.266V397.514C172.467 397.312 172.428 397.123 172.35 396.947C172.271 396.771 172.154 396.632 171.998 396.527C171.842 396.417 171.646 396.361 171.412 396.361C171.178 396.361 170.982 396.417 170.826 396.527C170.67 396.632 170.553 396.771 170.475 396.947C170.396 397.123 170.357 397.312 170.357 397.514ZM172.232 388.822L165.289 399.936L163.756 399.164L170.699 388.051L172.232 388.822ZM184.949 396.539H181.91V395.312H184.949C185.538 395.312 186.014 395.219 186.379 395.031C186.743 394.844 187.009 394.583 187.176 394.25C187.348 393.917 187.434 393.536 187.434 393.109C187.434 392.719 187.348 392.352 187.176 392.008C187.009 391.664 186.743 391.388 186.379 391.18C186.014 390.966 185.538 390.859 184.949 390.859H182.262V401H180.754V389.625H184.949C185.809 389.625 186.535 389.773 187.129 390.07C187.723 390.367 188.173 390.779 188.48 391.305C188.788 391.826 188.941 392.422 188.941 393.094C188.941 393.823 188.788 394.445 188.48 394.961C188.173 395.477 187.723 395.87 187.129 396.141C186.535 396.406 185.809 396.539 184.949 396.539ZM190.848 389.625H194.613C195.467 389.625 196.189 389.755 196.777 390.016C197.371 390.276 197.822 390.661 198.129 391.172C198.441 391.677 198.598 392.299 198.598 393.039C198.598 393.56 198.491 394.036 198.277 394.469C198.069 394.896 197.767 395.26 197.371 395.562C196.98 395.859 196.512 396.081 195.965 396.227L195.543 396.391H192.004L191.988 395.164H194.66C195.202 395.164 195.652 395.07 196.012 394.883C196.371 394.69 196.642 394.432 196.824 394.109C197.007 393.786 197.098 393.43 197.098 393.039C197.098 392.602 197.012 392.219 196.84 391.891C196.668 391.562 196.397 391.31 196.027 391.133C195.663 390.951 195.191 390.859 194.613 390.859H192.355V401H190.848V389.625ZM197.496 401L194.73 395.844L196.301 395.836L199.105 400.906V401H197.496ZM202.324 389.625V401H200.816V389.625H202.324ZM208.738 399.273L212.09 389.625H213.723L209.512 401H208.348L208.738 399.273ZM205.605 389.625L208.926 399.273L209.34 401H208.176L203.973 389.625H205.605ZM218.871 390.633L215.105 401H213.566L217.902 389.625H218.895L218.871 390.633ZM222.027 401L218.254 390.633L218.23 389.625H219.223L223.574 401H222.027ZM221.832 396.789V398.023H215.441V396.789H221.832ZM228.285 389.625V401H226.801V389.625H228.285ZM231.941 389.625V390.859H223.152V389.625H231.941ZM240.855 399.773V401H234.832V399.773H240.855ZM235.137 389.625V401H233.629V389.625H235.137ZM240.059 394.516V395.742H234.832V394.516H240.059ZM240.777 389.625V390.859H234.832V389.625H240.777Z" fill="white" fill-opacity="0.7"/>
<circle cx="368.5" cy="395.5" r="5.5" fill="#F5841F"/>
<path d="M402.792 397.443V399.982H392.558L392.363 397.971L398.075 388.781H400.673L397.851 393.4L395.507 397.443H402.792ZM401.357 388.781V403H398.066V388.781H401.357ZM407.079 396.662L404.462 396.047L405.322 388.781H413.632V391.34H408.007L407.685 394.162C407.841 394.071 408.105 393.964 408.476 393.84C408.853 393.71 409.27 393.645 409.726 393.645C410.429 393.645 411.051 393.752 411.591 393.967C412.138 394.175 412.6 394.484 412.978 394.895C413.355 395.298 413.639 395.796 413.827 396.389C414.023 396.981 414.12 397.658 414.12 398.42C414.12 399.032 414.019 399.624 413.818 400.197C413.622 400.764 413.32 401.275 412.909 401.73C412.506 402.18 411.995 402.538 411.376 402.805C410.758 403.065 410.025 403.195 409.179 403.195C408.547 403.195 407.932 403.098 407.333 402.902C406.734 402.707 406.194 402.427 405.712 402.062C405.237 401.691 404.859 401.245 404.579 400.725C404.306 400.197 404.172 399.608 404.179 398.957H407.49C407.509 399.302 407.59 399.602 407.734 399.855C407.877 400.109 408.069 400.308 408.31 400.451C408.557 400.588 408.84 400.656 409.159 400.656C409.485 400.656 409.755 400.591 409.97 400.461C410.185 400.331 410.354 400.152 410.478 399.924C410.601 399.696 410.689 399.436 410.741 399.143C410.794 398.843 410.82 398.527 410.82 398.195C410.82 397.844 410.781 397.528 410.702 397.248C410.631 396.968 410.514 396.73 410.351 396.535C410.188 396.333 409.976 396.18 409.716 396.076C409.462 395.972 409.156 395.92 408.798 395.92C408.323 395.92 407.948 396.001 407.675 396.164C407.402 396.327 407.203 396.493 407.079 396.662ZM415.878 392.268V391.516C415.878 390.975 415.995 390.484 416.23 390.041C416.464 389.598 416.816 389.243 417.284 388.977C417.753 388.71 418.336 388.576 419.032 388.576C419.749 388.576 420.341 388.71 420.81 388.977C421.279 389.243 421.627 389.598 421.855 390.041C422.089 390.484 422.206 390.975 422.206 391.516V392.268C422.206 392.795 422.089 393.28 421.855 393.723C421.627 394.165 421.279 394.52 420.81 394.787C420.348 395.054 419.765 395.188 419.062 395.188C418.352 395.188 417.763 395.054 417.294 394.787C416.825 394.52 416.471 394.165 416.23 393.723C415.995 393.28 415.878 392.795 415.878 392.268ZM417.988 391.516V392.268C417.988 392.463 418.027 392.648 418.105 392.824C418.183 393 418.3 393.143 418.456 393.254C418.619 393.358 418.818 393.41 419.052 393.41C419.293 393.41 419.488 393.358 419.638 393.254C419.788 393.143 419.898 393 419.97 392.824C420.048 392.648 420.087 392.463 420.087 392.268V391.516C420.087 391.307 420.048 391.115 419.97 390.939C419.898 390.764 419.784 390.624 419.628 390.52C419.472 390.409 419.273 390.354 419.032 390.354C418.805 390.354 418.613 390.409 418.456 390.52C418.3 390.624 418.183 390.764 418.105 390.939C418.027 391.115 417.988 391.307 417.988 391.516ZM422.626 400.266V399.514C422.626 398.98 422.743 398.492 422.978 398.049C423.219 397.606 423.573 397.251 424.042 396.984C424.517 396.717 425.103 396.584 425.8 396.584C426.516 396.584 427.105 396.717 427.568 396.984C428.036 397.251 428.385 397.606 428.613 398.049C428.847 398.492 428.964 398.98 428.964 399.514V400.266C428.964 400.799 428.847 401.288 428.613 401.73C428.385 402.173 428.04 402.528 427.577 402.795C427.115 403.062 426.532 403.195 425.829 403.195C425.12 403.195 424.527 403.062 424.052 402.795C423.577 402.528 423.219 402.173 422.978 401.73C422.743 401.288 422.626 400.799 422.626 400.266ZM424.745 399.514V400.266C424.745 400.467 424.794 400.656 424.892 400.832C424.99 401.008 425.12 401.151 425.282 401.262C425.445 401.366 425.624 401.418 425.82 401.418C426.119 401.418 426.34 401.366 426.484 401.262C426.633 401.151 426.731 401.008 426.777 400.832C426.829 400.656 426.855 400.467 426.855 400.266V399.514C426.855 399.312 426.816 399.123 426.738 398.947C426.659 398.771 426.542 398.632 426.386 398.527C426.23 398.417 426.034 398.361 425.8 398.361C425.566 398.361 425.37 398.417 425.214 398.527C425.058 398.632 424.941 398.771 424.863 398.947C424.784 399.123 424.745 399.312 424.745 399.514ZM426.62 390.822L419.677 401.936L418.144 401.164L425.087 390.051L426.62 390.822ZM443.2 403H440.825L440.841 401.773H443.2C444.013 401.773 444.69 401.604 445.232 401.266C445.773 400.922 446.18 400.443 446.45 399.828C446.726 399.208 446.865 398.484 446.865 397.656V396.961C446.865 396.31 446.786 395.732 446.63 395.227C446.474 394.716 446.245 394.286 445.943 393.938C445.641 393.583 445.271 393.315 444.833 393.133C444.401 392.951 443.904 392.859 443.341 392.859H440.779V391.625H443.341C444.086 391.625 444.766 391.75 445.38 392C445.995 392.245 446.523 392.602 446.966 393.07C447.414 393.534 447.758 394.096 447.997 394.758C448.237 395.414 448.357 396.154 448.357 396.977V397.656C448.357 398.479 448.237 399.221 447.997 399.883C447.758 400.539 447.411 401.099 446.958 401.562C446.51 402.026 445.969 402.383 445.333 402.633C444.703 402.878 443.992 403 443.2 403ZM441.63 391.625V403H440.122V391.625H441.63ZM452.24 391.625V403H450.732V391.625H452.24ZM463.74 396.953V397.672C463.74 398.526 463.633 399.292 463.419 399.969C463.206 400.646 462.898 401.221 462.497 401.695C462.096 402.169 461.615 402.531 461.052 402.781C460.495 403.031 459.87 403.156 459.177 403.156C458.505 403.156 457.888 403.031 457.325 402.781C456.768 402.531 456.284 402.169 455.872 401.695C455.466 401.221 455.151 400.646 454.927 399.969C454.703 399.292 454.591 398.526 454.591 397.672V396.953C454.591 396.099 454.7 395.336 454.919 394.664C455.143 393.987 455.458 393.411 455.865 392.938C456.271 392.458 456.753 392.094 457.31 391.844C457.872 391.594 458.49 391.469 459.161 391.469C459.854 391.469 460.479 391.594 461.036 391.844C461.599 392.094 462.081 392.458 462.482 392.938C462.888 393.411 463.198 393.987 463.411 394.664C463.63 395.336 463.74 396.099 463.74 396.953ZM462.247 397.672V396.938C462.247 396.26 462.177 395.661 462.036 395.141C461.901 394.62 461.7 394.182 461.435 393.828C461.169 393.474 460.844 393.206 460.458 393.023C460.078 392.841 459.646 392.75 459.161 392.75C458.693 392.75 458.268 392.841 457.888 393.023C457.513 393.206 457.19 393.474 456.919 393.828C456.654 394.182 456.448 394.62 456.302 395.141C456.156 395.661 456.083 396.26 456.083 396.938V397.672C456.083 398.354 456.156 398.958 456.302 399.484C456.448 400.005 456.656 400.445 456.927 400.805C457.203 401.159 457.529 401.427 457.904 401.609C458.284 401.792 458.708 401.883 459.177 401.883C459.667 401.883 460.101 401.792 460.482 401.609C460.862 401.427 461.182 401.159 461.443 400.805C461.708 400.445 461.909 400.005 462.044 399.484C462.18 398.958 462.247 398.354 462.247 397.672Z" fill="white" fill-opacity="0.7"/>
<ellipse cx="367.279" cy="508.5" rx="5.27874" ry="5.5" fill="#00EAFF"/>
<path d="M400.634 512.461V515H390.712V512.852L395.283 508.047C395.686 507.585 396.012 507.171 396.259 506.807C396.507 506.436 396.686 506.1 396.796 505.801C396.913 505.501 396.972 505.231 396.972 504.99C396.972 504.58 396.91 504.238 396.786 503.965C396.669 503.685 396.494 503.473 396.259 503.33C396.031 503.187 395.748 503.115 395.41 503.115C395.071 503.115 394.775 503.213 394.521 503.408C394.267 503.604 394.068 503.87 393.925 504.209C393.788 504.548 393.72 504.928 393.72 505.352H390.419C390.419 504.479 390.631 503.682 391.054 502.959C391.484 502.236 392.079 501.66 392.841 501.23C393.603 500.794 394.485 500.576 395.488 500.576C396.536 500.576 397.415 500.739 398.124 501.064C398.834 501.39 399.368 501.862 399.726 502.48C400.091 503.092 400.273 503.831 400.273 504.697C400.273 505.192 400.195 505.667 400.038 506.123C399.882 506.579 399.658 507.031 399.365 507.48C399.072 507.923 398.714 508.379 398.29 508.848C397.874 509.316 397.398 509.814 396.865 510.342L395.029 512.461H400.634ZM402.578 513.457C402.578 512.988 402.747 512.598 403.085 512.285C403.424 511.966 403.86 511.807 404.394 511.807C404.934 511.807 405.37 511.966 405.703 512.285C406.041 512.598 406.21 512.988 406.21 513.457C406.21 513.926 406.041 514.32 405.703 514.639C405.37 514.951 404.934 515.107 404.394 515.107C403.86 515.107 403.424 514.951 403.085 514.639C402.747 514.32 402.578 513.926 402.578 513.457ZM411.181 508.662L408.564 508.047L409.423 500.781H417.734V503.34H412.109L411.786 506.162C411.943 506.071 412.206 505.964 412.578 505.84C412.955 505.71 413.372 505.645 413.828 505.645C414.531 505.645 415.152 505.752 415.693 505.967C416.24 506.175 416.702 506.484 417.079 506.895C417.457 507.298 417.74 507.796 417.929 508.389C418.124 508.981 418.222 509.658 418.222 510.42C418.222 511.032 418.121 511.624 417.919 512.197C417.724 512.764 417.421 513.275 417.011 513.73C416.607 514.18 416.096 514.538 415.478 514.805C414.859 515.065 414.127 515.195 413.281 515.195C412.649 515.195 412.034 515.098 411.435 514.902C410.836 514.707 410.296 514.427 409.814 514.062C409.339 513.691 408.961 513.245 408.681 512.725C408.408 512.197 408.274 511.608 408.281 510.957H411.591C411.611 511.302 411.692 511.602 411.835 511.855C411.979 512.109 412.171 512.308 412.411 512.451C412.659 512.588 412.942 512.656 413.261 512.656C413.587 512.656 413.857 512.591 414.072 512.461C414.286 512.331 414.456 512.152 414.579 511.924C414.703 511.696 414.791 511.436 414.843 511.143C414.895 510.843 414.921 510.527 414.921 510.195C414.921 509.844 414.882 509.528 414.804 509.248C414.732 508.968 414.615 508.73 414.453 508.535C414.29 508.333 414.078 508.18 413.818 508.076C413.564 507.972 413.258 507.92 412.9 507.92C412.425 507.92 412.05 508.001 411.777 508.164C411.503 508.327 411.305 508.493 411.181 508.662ZM419.98 504.268V503.516C419.98 502.975 420.097 502.484 420.331 502.041C420.566 501.598 420.917 501.243 421.386 500.977C421.855 500.71 422.438 500.576 423.134 500.576C423.85 500.576 424.443 500.71 424.911 500.977C425.38 501.243 425.729 501.598 425.956 502.041C426.191 502.484 426.308 502.975 426.308 503.516V504.268C426.308 504.795 426.191 505.28 425.956 505.723C425.729 506.165 425.38 506.52 424.911 506.787C424.449 507.054 423.867 507.188 423.163 507.188C422.454 507.188 421.865 507.054 421.396 506.787C420.927 506.52 420.572 506.165 420.331 505.723C420.097 505.28 419.98 504.795 419.98 504.268ZM422.089 503.516V504.268C422.089 504.463 422.128 504.648 422.206 504.824C422.285 505 422.402 505.143 422.558 505.254C422.721 505.358 422.919 505.41 423.154 505.41C423.395 505.41 423.59 505.358 423.74 505.254C423.889 505.143 424 505 424.072 504.824C424.15 504.648 424.189 504.463 424.189 504.268V503.516C424.189 503.307 424.15 503.115 424.072 502.939C424 502.764 423.886 502.624 423.73 502.52C423.574 502.409 423.375 502.354 423.134 502.354C422.906 502.354 422.714 502.409 422.558 502.52C422.402 502.624 422.285 502.764 422.206 502.939C422.128 503.115 422.089 503.307 422.089 503.516ZM426.728 512.266V511.514C426.728 510.98 426.845 510.492 427.079 510.049C427.32 509.606 427.675 509.251 428.144 508.984C428.619 508.717 429.205 508.584 429.902 508.584C430.618 508.584 431.207 508.717 431.669 508.984C432.138 509.251 432.486 509.606 432.714 510.049C432.949 510.492 433.066 510.98 433.066 511.514V512.266C433.066 512.799 432.949 513.288 432.714 513.73C432.486 514.173 432.141 514.528 431.679 514.795C431.217 515.062 430.634 515.195 429.931 515.195C429.221 515.195 428.629 515.062 428.154 514.795C427.678 514.528 427.32 514.173 427.079 513.73C426.845 513.288 426.728 512.799 426.728 512.266ZM428.847 511.514V512.266C428.847 512.467 428.896 512.656 428.994 512.832C429.091 513.008 429.221 513.151 429.384 513.262C429.547 513.366 429.726 513.418 429.921 513.418C430.221 513.418 430.442 513.366 430.585 513.262C430.735 513.151 430.833 513.008 430.878 512.832C430.93 512.656 430.956 512.467 430.956 512.266V511.514C430.956 511.312 430.917 511.123 430.839 510.947C430.761 510.771 430.644 510.632 430.488 510.527C430.331 510.417 430.136 510.361 429.902 510.361C429.667 510.361 429.472 510.417 429.316 510.527C429.16 510.632 429.042 510.771 428.964 510.947C428.886 511.123 428.847 511.312 428.847 511.514ZM430.722 502.822L423.779 513.936L422.245 513.164L429.189 502.051L430.722 502.822ZM391.63 522.625H393.091L396.818 531.898L400.536 522.625H402.005L397.38 534H396.24L391.63 522.625ZM391.154 522.625H392.443L392.654 529.562V534H391.154V522.625ZM401.185 522.625H402.474V534H400.974V529.562L401.185 522.625ZM409.474 523.633L405.708 534H404.169L408.505 522.625H409.497L409.474 523.633ZM412.63 534L408.857 523.633L408.833 522.625H409.826L414.177 534H412.63ZM412.435 529.789V531.023H406.044V529.789H412.435ZM415.701 522.625H419.466C420.32 522.625 421.042 522.755 421.63 523.016C422.224 523.276 422.675 523.661 422.982 524.172C423.294 524.677 423.451 525.299 423.451 526.039C423.451 526.56 423.344 527.036 423.13 527.469C422.922 527.896 422.62 528.26 422.224 528.562C421.833 528.859 421.365 529.081 420.818 529.227L420.396 529.391H416.857L416.841 528.164H419.513C420.055 528.164 420.505 528.07 420.865 527.883C421.224 527.69 421.495 527.432 421.677 527.109C421.859 526.786 421.951 526.43 421.951 526.039C421.951 525.602 421.865 525.219 421.693 524.891C421.521 524.562 421.25 524.31 420.88 524.133C420.516 523.951 420.044 523.859 419.466 523.859H417.208V534H415.701V522.625ZM422.349 534L419.583 528.844L421.154 528.836L423.958 533.906V534H422.349ZM427.068 522.625V534H425.56V522.625H427.068ZM433.935 522.625L429.208 527.93L426.552 530.688L426.302 529.078L428.302 526.875L432.122 522.625H433.935ZM432.482 534L428.271 528.453L429.169 527.258L434.279 534H432.482ZM442.833 532.773V534H436.81V532.773H442.833ZM437.115 522.625V534H435.607V522.625H437.115ZM442.036 527.516V528.742H436.81V527.516H442.036ZM442.755 522.625V523.859H436.81V522.625H442.755ZM449.06 522.625V534H447.576V522.625H449.06ZM452.716 522.625V523.859H443.927V522.625H452.716ZM456.021 522.625V534H454.513V522.625H456.021ZM467.513 522.625V534H465.997L460.271 525.227V534H458.763V522.625H460.271L466.021 531.422V522.625H467.513ZM478.591 528.336V532.5C478.451 532.708 478.227 532.943 477.919 533.203C477.612 533.458 477.188 533.682 476.646 533.875C476.109 534.062 475.417 534.156 474.568 534.156C473.875 534.156 473.237 534.036 472.654 533.797C472.076 533.552 471.573 533.198 471.146 532.734C470.724 532.266 470.396 531.698 470.161 531.031C469.932 530.359 469.818 529.599 469.818 528.75V527.867C469.818 527.018 469.917 526.26 470.115 525.594C470.318 524.927 470.615 524.362 471.005 523.898C471.396 523.43 471.875 523.076 472.443 522.836C473.01 522.591 473.661 522.469 474.396 522.469C475.266 522.469 475.992 522.62 476.576 522.922C477.164 523.219 477.622 523.63 477.951 524.156C478.284 524.682 478.497 525.281 478.591 525.953H477.083C477.016 525.542 476.88 525.167 476.677 524.828C476.479 524.49 476.195 524.219 475.826 524.016C475.456 523.807 474.979 523.703 474.396 523.703C473.87 523.703 473.414 523.799 473.029 523.992C472.643 524.185 472.326 524.461 472.076 524.82C471.826 525.18 471.638 525.615 471.513 526.125C471.393 526.635 471.333 527.211 471.333 527.852V528.75C471.333 529.406 471.409 529.992 471.56 530.508C471.716 531.023 471.938 531.464 472.224 531.828C472.51 532.188 472.852 532.461 473.247 532.648C473.648 532.836 474.091 532.93 474.576 532.93C475.112 532.93 475.547 532.885 475.88 532.797C476.214 532.703 476.474 532.594 476.661 532.469C476.849 532.339 476.992 532.216 477.091 532.102V529.555H474.458V528.336H478.591Z" fill="white" fill-opacity="0.7"/>
<circle cx="124.5" cy="567.5" r="5.5" fill="#010002"/>
<path d="M158.801 571.461V574H148.879V571.852L153.449 567.047C153.853 566.585 154.178 566.171 154.426 565.807C154.673 565.436 154.852 565.1 154.963 564.801C155.08 564.501 155.139 564.231 155.139 563.99C155.139 563.58 155.077 563.238 154.953 562.965C154.836 562.685 154.66 562.473 154.426 562.33C154.198 562.187 153.915 562.115 153.576 562.115C153.238 562.115 152.941 562.213 152.688 562.408C152.434 562.604 152.235 562.87 152.092 563.209C151.955 563.548 151.887 563.928 151.887 564.352H148.586C148.586 563.479 148.798 562.682 149.221 561.959C149.65 561.236 150.246 560.66 151.008 560.23C151.77 559.794 152.652 559.576 153.654 559.576C154.702 559.576 155.581 559.739 156.291 560.064C157.001 560.39 157.535 560.862 157.893 561.48C158.257 562.092 158.439 562.831 158.439 563.697C158.439 564.192 158.361 564.667 158.205 565.123C158.049 565.579 157.824 566.031 157.531 566.48C157.238 566.923 156.88 567.379 156.457 567.848C156.04 568.316 155.565 568.814 155.031 569.342L153.195 571.461H158.801ZM160.744 572.457C160.744 571.988 160.913 571.598 161.252 571.285C161.59 570.966 162.027 570.807 162.561 570.807C163.101 570.807 163.537 570.966 163.869 571.285C164.208 571.598 164.377 571.988 164.377 572.457C164.377 572.926 164.208 573.32 163.869 573.639C163.537 573.951 163.101 574.107 162.561 574.107C162.027 574.107 161.59 573.951 161.252 573.639C160.913 573.32 160.744 572.926 160.744 572.457ZM176.408 565.592V568.189C176.408 569.212 176.288 570.1 176.047 570.855C175.812 571.611 175.474 572.236 175.031 572.73C174.595 573.225 174.074 573.593 173.469 573.834C172.863 574.075 172.196 574.195 171.467 574.195C170.881 574.195 170.334 574.12 169.826 573.971C169.318 573.814 168.859 573.58 168.449 573.268C168.046 572.949 167.697 572.551 167.404 572.076C167.111 571.601 166.887 571.041 166.73 570.396C166.574 569.745 166.496 569.01 166.496 568.189V565.592C166.496 564.563 166.613 563.674 166.848 562.926C167.089 562.171 167.43 561.546 167.873 561.051C168.316 560.556 168.84 560.188 169.445 559.947C170.051 559.706 170.718 559.586 171.447 559.586C172.033 559.586 172.577 559.664 173.078 559.82C173.586 559.97 174.045 560.204 174.455 560.523C174.865 560.836 175.214 561.23 175.5 561.705C175.793 562.18 176.018 562.743 176.174 563.395C176.33 564.039 176.408 564.771 176.408 565.592ZM173.117 568.59V565.172C173.117 564.716 173.091 564.319 173.039 563.98C172.993 563.642 172.922 563.355 172.824 563.121C172.733 562.887 172.619 562.698 172.482 562.555C172.346 562.405 172.189 562.298 172.014 562.232C171.844 562.161 171.656 562.125 171.447 562.125C171.187 562.125 170.952 562.18 170.744 562.291C170.542 562.395 170.37 562.564 170.227 562.799C170.083 563.033 169.973 563.346 169.895 563.736C169.823 564.127 169.787 564.605 169.787 565.172V568.59C169.787 569.052 169.81 569.456 169.855 569.801C169.908 570.139 169.979 570.429 170.07 570.67C170.168 570.904 170.285 571.096 170.422 571.246C170.559 571.389 170.715 571.493 170.891 571.559C171.066 571.624 171.258 571.656 171.467 571.656C171.721 571.656 171.949 571.604 172.15 571.5C172.352 571.396 172.525 571.227 172.668 570.992C172.818 570.751 172.928 570.436 173 570.045C173.078 569.648 173.117 569.163 173.117 568.59ZM178.146 563.268V562.516C178.146 561.975 178.264 561.484 178.498 561.041C178.732 560.598 179.084 560.243 179.553 559.977C180.021 559.71 180.604 559.576 181.301 559.576C182.017 559.576 182.609 559.71 183.078 559.977C183.547 560.243 183.895 560.598 184.123 561.041C184.357 561.484 184.475 561.975 184.475 562.516V563.268C184.475 563.795 184.357 564.28 184.123 564.723C183.895 565.165 183.547 565.52 183.078 565.787C182.616 566.054 182.033 566.188 181.33 566.188C180.62 566.188 180.031 566.054 179.562 565.787C179.094 565.52 178.739 565.165 178.498 564.723C178.264 564.28 178.146 563.795 178.146 563.268ZM180.256 562.516V563.268C180.256 563.463 180.295 563.648 180.373 563.824C180.451 564 180.568 564.143 180.725 564.254C180.887 564.358 181.086 564.41 181.32 564.41C181.561 564.41 181.757 564.358 181.906 564.254C182.056 564.143 182.167 564 182.238 563.824C182.316 563.648 182.355 563.463 182.355 563.268V562.516C182.355 562.307 182.316 562.115 182.238 561.939C182.167 561.764 182.053 561.624 181.896 561.52C181.74 561.409 181.542 561.354 181.301 561.354C181.073 561.354 180.881 561.409 180.725 561.52C180.568 561.624 180.451 561.764 180.373 561.939C180.295 562.115 180.256 562.307 180.256 562.516ZM184.895 571.266V570.514C184.895 569.98 185.012 569.492 185.246 569.049C185.487 568.606 185.842 568.251 186.311 567.984C186.786 567.717 187.372 567.584 188.068 567.584C188.785 567.584 189.374 567.717 189.836 567.984C190.305 568.251 190.653 568.606 190.881 569.049C191.115 569.492 191.232 569.98 191.232 570.514V571.266C191.232 571.799 191.115 572.288 190.881 572.73C190.653 573.173 190.308 573.528 189.846 573.795C189.383 574.062 188.801 574.195 188.098 574.195C187.388 574.195 186.796 574.062 186.32 573.795C185.845 573.528 185.487 573.173 185.246 572.73C185.012 572.288 184.895 571.799 184.895 571.266ZM187.014 570.514V571.266C187.014 571.467 187.062 571.656 187.16 571.832C187.258 572.008 187.388 572.151 187.551 572.262C187.714 572.366 187.893 572.418 188.088 572.418C188.387 572.418 188.609 572.366 188.752 572.262C188.902 572.151 188.999 572.008 189.045 571.832C189.097 571.656 189.123 571.467 189.123 571.266V570.514C189.123 570.312 189.084 570.123 189.006 569.947C188.928 569.771 188.811 569.632 188.654 569.527C188.498 569.417 188.303 569.361 188.068 569.361C187.834 569.361 187.639 569.417 187.482 569.527C187.326 569.632 187.209 569.771 187.131 569.947C187.053 570.123 187.014 570.312 187.014 570.514ZM188.889 561.822L181.945 572.936L180.412 572.164L187.355 561.051L188.889 561.822ZM152.398 593H150.023L150.039 591.773H152.398C153.211 591.773 153.888 591.604 154.43 591.266C154.971 590.922 155.378 590.443 155.648 589.828C155.924 589.208 156.062 588.484 156.062 587.656V586.961C156.062 586.31 155.984 585.732 155.828 585.227C155.672 584.716 155.443 584.286 155.141 583.938C154.839 583.583 154.469 583.315 154.031 583.133C153.599 582.951 153.102 582.859 152.539 582.859H149.977V581.625H152.539C153.284 581.625 153.964 581.75 154.578 582C155.193 582.245 155.721 582.602 156.164 583.07C156.612 583.534 156.956 584.096 157.195 584.758C157.435 585.414 157.555 586.154 157.555 586.977V587.656C157.555 588.479 157.435 589.221 157.195 589.883C156.956 590.539 156.609 591.099 156.156 591.562C155.708 592.026 155.167 592.383 154.531 592.633C153.901 592.878 153.19 593 152.398 593ZM150.828 581.625V593H149.32V581.625H150.828ZM167.047 591.773V593H161.023V591.773H167.047ZM161.328 581.625V593H159.82V581.625H161.328ZM166.25 586.516V587.742H161.023V586.516H166.25ZM166.969 581.625V582.859H161.023V581.625H166.969ZM172.586 591.273L175.938 581.625H177.57L173.359 593H172.195L172.586 591.273ZM169.453 581.625L172.773 591.273L173.188 593H172.023L167.82 581.625H169.453ZM186.328 591.773V593H180.305V591.773H186.328ZM180.609 581.625V593H179.102V581.625H180.609ZM185.531 586.516V587.742H180.305V586.516H185.531ZM186.25 581.625V582.859H180.305V581.625H186.25ZM195.094 591.773V593H189.406V591.773H195.094ZM189.703 581.625V593H188.195V581.625H189.703ZM205.062 586.953V587.672C205.062 588.526 204.956 589.292 204.742 589.969C204.529 590.646 204.221 591.221 203.82 591.695C203.419 592.169 202.938 592.531 202.375 592.781C201.818 593.031 201.193 593.156 200.5 593.156C199.828 593.156 199.211 593.031 198.648 592.781C198.091 592.531 197.607 592.169 197.195 591.695C196.789 591.221 196.474 590.646 196.25 589.969C196.026 589.292 195.914 588.526 195.914 587.672V586.953C195.914 586.099 196.023 585.336 196.242 584.664C196.466 583.987 196.781 583.411 197.188 582.938C197.594 582.458 198.076 582.094 198.633 581.844C199.195 581.594 199.812 581.469 200.484 581.469C201.177 581.469 201.802 581.594 202.359 581.844C202.922 582.094 203.404 582.458 203.805 582.938C204.211 583.411 204.521 583.987 204.734 584.664C204.953 585.336 205.062 586.099 205.062 586.953ZM203.57 587.672V586.938C203.57 586.26 203.5 585.661 203.359 585.141C203.224 584.62 203.023 584.182 202.758 583.828C202.492 583.474 202.167 583.206 201.781 583.023C201.401 582.841 200.969 582.75 200.484 582.75C200.016 582.75 199.591 582.841 199.211 583.023C198.836 583.206 198.513 583.474 198.242 583.828C197.977 584.182 197.771 584.62 197.625 585.141C197.479 585.661 197.406 586.26 197.406 586.938V587.672C197.406 588.354 197.479 588.958 197.625 589.484C197.771 590.005 197.979 590.445 198.25 590.805C198.526 591.159 198.852 591.427 199.227 591.609C199.607 591.792 200.031 591.883 200.5 591.883C200.99 591.883 201.424 591.792 201.805 591.609C202.185 591.427 202.505 591.159 202.766 590.805C203.031 590.445 203.232 590.005 203.367 589.484C203.503 588.958 203.57 588.354 203.57 587.672ZM211.516 588.539H208.477V587.312H211.516C212.104 587.312 212.581 587.219 212.945 587.031C213.31 586.844 213.576 586.583 213.742 586.25C213.914 585.917 214 585.536 214 585.109C214 584.719 213.914 584.352 213.742 584.008C213.576 583.664 213.31 583.388 212.945 583.18C212.581 582.966 212.104 582.859 211.516 582.859H208.828V593H207.32V581.625H211.516C212.375 581.625 213.102 581.773 213.695 582.07C214.289 582.367 214.74 582.779 215.047 583.305C215.354 583.826 215.508 584.422 215.508 585.094C215.508 585.823 215.354 586.445 215.047 586.961C214.74 587.477 214.289 587.87 213.695 588.141C213.102 588.406 212.375 588.539 211.516 588.539ZM217.891 581.625H219.352L223.078 590.898L226.797 581.625H228.266L223.641 593H222.5L217.891 581.625ZM217.414 581.625H218.703L218.914 588.562V593H217.414V581.625ZM227.445 581.625H228.734V593H227.234V588.562L227.445 581.625ZM238.609 591.773V593H232.586V591.773H238.609ZM232.891 581.625V593H231.383V581.625H232.891ZM237.812 586.516V587.742H232.586V586.516H237.812ZM238.531 581.625V582.859H232.586V581.625H238.531ZM249.227 581.625V593H247.711L241.984 584.227V593H240.477V581.625H241.984L247.734 590.422V581.625H249.227ZM255.867 581.625V593H254.383V581.625H255.867ZM259.523 581.625V582.859H250.734V581.625H259.523Z" fill="white" fill-opacity="0.7"/>
<circle cx="367.5" cy="454.5" r="5.5" fill="#E617DB"/>
<path d="M394.877 454.514H396.479C396.889 454.514 397.224 454.442 397.484 454.299C397.751 454.149 397.95 453.941 398.08 453.674C398.21 453.4 398.275 453.078 398.275 452.707C398.275 452.421 398.214 452.157 398.09 451.916C397.973 451.675 397.79 451.483 397.543 451.34C397.296 451.19 396.98 451.115 396.596 451.115C396.335 451.115 396.081 451.171 395.834 451.281C395.587 451.385 395.382 451.535 395.219 451.73C395.062 451.926 394.984 452.163 394.984 452.443H391.684C391.684 451.636 391.905 450.946 392.348 450.373C392.797 449.794 393.386 449.351 394.115 449.045C394.851 448.732 395.642 448.576 396.488 448.576C397.497 448.576 398.383 448.732 399.145 449.045C399.906 449.351 400.499 449.807 400.922 450.412C401.352 451.011 401.566 451.753 401.566 452.639C401.566 453.127 401.452 453.586 401.225 454.016C400.997 454.445 400.678 454.823 400.268 455.148C399.857 455.474 399.376 455.731 398.822 455.92C398.275 456.102 397.676 456.193 397.025 456.193H394.877V454.514ZM394.877 456.965V455.324H397.025C397.735 455.324 398.383 455.406 398.969 455.568C399.555 455.725 400.059 455.959 400.482 456.271C400.906 456.584 401.231 456.971 401.459 457.434C401.687 457.889 401.801 458.413 401.801 459.006C401.801 459.67 401.667 460.262 401.4 460.783C401.133 461.304 400.759 461.743 400.277 462.102C399.796 462.46 399.232 462.733 398.588 462.922C397.943 463.104 397.243 463.195 396.488 463.195C395.896 463.195 395.303 463.117 394.711 462.961C394.118 462.798 393.578 462.551 393.09 462.219C392.602 461.88 392.208 461.451 391.908 460.93C391.615 460.402 391.469 459.774 391.469 459.045H394.77C394.77 459.344 394.851 459.618 395.014 459.865C395.183 460.106 395.408 460.298 395.688 460.441C395.967 460.585 396.27 460.656 396.596 460.656C396.999 460.656 397.341 460.581 397.621 460.432C397.908 460.275 398.126 460.067 398.275 459.807C398.425 459.546 398.5 459.257 398.5 458.938C398.5 458.456 398.419 458.072 398.256 457.785C398.1 457.499 397.868 457.29 397.562 457.16C397.263 457.03 396.902 456.965 396.479 456.965H394.877ZM403.744 461.457C403.744 460.988 403.913 460.598 404.252 460.285C404.59 459.966 405.027 459.807 405.561 459.807C406.101 459.807 406.537 459.966 406.869 460.285C407.208 460.598 407.377 460.988 407.377 461.457C407.377 461.926 407.208 462.32 406.869 462.639C406.537 462.951 406.101 463.107 405.561 463.107C405.027 463.107 404.59 462.951 404.252 462.639C403.913 462.32 403.744 461.926 403.744 461.457ZM419.408 454.592V457.189C419.408 458.212 419.288 459.1 419.047 459.855C418.812 460.611 418.474 461.236 418.031 461.73C417.595 462.225 417.074 462.593 416.469 462.834C415.863 463.075 415.196 463.195 414.467 463.195C413.881 463.195 413.334 463.12 412.826 462.971C412.318 462.814 411.859 462.58 411.449 462.268C411.046 461.949 410.697 461.551 410.404 461.076C410.111 460.601 409.887 460.041 409.73 459.396C409.574 458.745 409.496 458.01 409.496 457.189V454.592C409.496 453.563 409.613 452.674 409.848 451.926C410.089 451.171 410.43 450.546 410.873 450.051C411.316 449.556 411.84 449.188 412.445 448.947C413.051 448.706 413.718 448.586 414.447 448.586C415.033 448.586 415.577 448.664 416.078 448.82C416.586 448.97 417.045 449.204 417.455 449.523C417.865 449.836 418.214 450.23 418.5 450.705C418.793 451.18 419.018 451.743 419.174 452.395C419.33 453.039 419.408 453.771 419.408 454.592ZM416.117 457.59V454.172C416.117 453.716 416.091 453.319 416.039 452.98C415.993 452.642 415.922 452.355 415.824 452.121C415.733 451.887 415.619 451.698 415.482 451.555C415.346 451.405 415.189 451.298 415.014 451.232C414.844 451.161 414.656 451.125 414.447 451.125C414.187 451.125 413.952 451.18 413.744 451.291C413.542 451.395 413.37 451.564 413.227 451.799C413.083 452.033 412.973 452.346 412.895 452.736C412.823 453.127 412.787 453.605 412.787 454.172V457.59C412.787 458.052 412.81 458.456 412.855 458.801C412.908 459.139 412.979 459.429 413.07 459.67C413.168 459.904 413.285 460.096 413.422 460.246C413.559 460.389 413.715 460.493 413.891 460.559C414.066 460.624 414.258 460.656 414.467 460.656C414.721 460.656 414.949 460.604 415.15 460.5C415.352 460.396 415.525 460.227 415.668 459.992C415.818 459.751 415.928 459.436 416 459.045C416.078 458.648 416.117 458.163 416.117 457.59ZM421.146 452.268V451.516C421.146 450.975 421.264 450.484 421.498 450.041C421.732 449.598 422.084 449.243 422.553 448.977C423.021 448.71 423.604 448.576 424.301 448.576C425.017 448.576 425.609 448.71 426.078 448.977C426.547 449.243 426.895 449.598 427.123 450.041C427.357 450.484 427.475 450.975 427.475 451.516V452.268C427.475 452.795 427.357 453.28 427.123 453.723C426.895 454.165 426.547 454.52 426.078 454.787C425.616 455.054 425.033 455.188 424.33 455.188C423.62 455.188 423.031 455.054 422.562 454.787C422.094 454.52 421.739 454.165 421.498 453.723C421.264 453.28 421.146 452.795 421.146 452.268ZM423.256 451.516V452.268C423.256 452.463 423.295 452.648 423.373 452.824C423.451 453 423.568 453.143 423.725 453.254C423.887 453.358 424.086 453.41 424.32 453.41C424.561 453.41 424.757 453.358 424.906 453.254C425.056 453.143 425.167 453 425.238 452.824C425.316 452.648 425.355 452.463 425.355 452.268V451.516C425.355 451.307 425.316 451.115 425.238 450.939C425.167 450.764 425.053 450.624 424.896 450.52C424.74 450.409 424.542 450.354 424.301 450.354C424.073 450.354 423.881 450.409 423.725 450.52C423.568 450.624 423.451 450.764 423.373 450.939C423.295 451.115 423.256 451.307 423.256 451.516ZM427.895 460.266V459.514C427.895 458.98 428.012 458.492 428.246 458.049C428.487 457.606 428.842 457.251 429.311 456.984C429.786 456.717 430.372 456.584 431.068 456.584C431.785 456.584 432.374 456.717 432.836 456.984C433.305 457.251 433.653 457.606 433.881 458.049C434.115 458.492 434.232 458.98 434.232 459.514V460.266C434.232 460.799 434.115 461.288 433.881 461.73C433.653 462.173 433.308 462.528 432.846 462.795C432.383 463.062 431.801 463.195 431.098 463.195C430.388 463.195 429.796 463.062 429.32 462.795C428.845 462.528 428.487 462.173 428.246 461.73C428.012 461.288 427.895 460.799 427.895 460.266ZM430.014 459.514V460.266C430.014 460.467 430.062 460.656 430.16 460.832C430.258 461.008 430.388 461.151 430.551 461.262C430.714 461.366 430.893 461.418 431.088 461.418C431.387 461.418 431.609 461.366 431.752 461.262C431.902 461.151 431.999 461.008 432.045 460.832C432.097 460.656 432.123 460.467 432.123 460.266V459.514C432.123 459.312 432.084 459.123 432.006 458.947C431.928 458.771 431.811 458.632 431.654 458.527C431.498 458.417 431.303 458.361 431.068 458.361C430.834 458.361 430.639 458.417 430.482 458.527C430.326 458.632 430.209 458.771 430.131 458.947C430.053 459.123 430.014 459.312 430.014 459.514ZM431.889 450.822L424.945 461.936L423.412 461.164L430.355 450.051L431.889 450.822ZM449.445 457.68H446.562L446.547 456.469H449.164C449.596 456.469 449.974 456.396 450.297 456.25C450.62 456.104 450.87 455.896 451.047 455.625C451.229 455.349 451.32 455.021 451.32 454.641C451.32 454.224 451.24 453.885 451.078 453.625C450.922 453.359 450.68 453.167 450.352 453.047C450.029 452.922 449.617 452.859 449.117 452.859H446.898V463H445.391V451.625H449.117C449.701 451.625 450.221 451.685 450.68 451.805C451.138 451.919 451.526 452.102 451.844 452.352C452.167 452.596 452.411 452.909 452.578 453.289C452.745 453.669 452.828 454.125 452.828 454.656C452.828 455.125 452.708 455.549 452.469 455.93C452.229 456.305 451.896 456.612 451.469 456.852C451.047 457.091 450.552 457.245 449.984 457.312L449.445 457.68ZM449.375 463H445.969L446.82 461.773H449.375C449.854 461.773 450.26 461.69 450.594 461.523C450.932 461.357 451.19 461.122 451.367 460.82C451.544 460.513 451.633 460.151 451.633 459.734C451.633 459.312 451.557 458.948 451.406 458.641C451.255 458.333 451.018 458.096 450.695 457.93C450.372 457.763 449.956 457.68 449.445 457.68H447.297L447.312 456.469H450.25L450.57 456.906C451.117 456.953 451.581 457.109 451.961 457.375C452.341 457.635 452.63 457.969 452.828 458.375C453.031 458.781 453.133 459.229 453.133 459.719C453.133 460.427 452.977 461.026 452.664 461.516C452.357 462 451.922 462.37 451.359 462.625C450.797 462.875 450.135 463 449.375 463ZM461.867 451.625H463.367V459.32C463.367 460.174 463.177 460.885 462.797 461.453C462.417 462.021 461.911 462.448 461.281 462.734C460.656 463.016 459.977 463.156 459.242 463.156C458.471 463.156 457.773 463.016 457.148 462.734C456.529 462.448 456.036 462.021 455.672 461.453C455.312 460.885 455.133 460.174 455.133 459.32V451.625H456.625V459.32C456.625 459.914 456.734 460.404 456.953 460.789C457.172 461.174 457.477 461.461 457.867 461.648C458.263 461.836 458.721 461.93 459.242 461.93C459.768 461.93 460.227 461.836 460.617 461.648C461.013 461.461 461.32 461.174 461.539 460.789C461.758 460.404 461.867 459.914 461.867 459.32V451.625ZM465.734 451.625H469.5C470.354 451.625 471.076 451.755 471.664 452.016C472.258 452.276 472.708 452.661 473.016 453.172C473.328 453.677 473.484 454.299 473.484 455.039C473.484 455.56 473.378 456.036 473.164 456.469C472.956 456.896 472.654 457.26 472.258 457.562C471.867 457.859 471.398 458.081 470.852 458.227L470.43 458.391H466.891L466.875 457.164H469.547C470.089 457.164 470.539 457.07 470.898 456.883C471.258 456.69 471.529 456.432 471.711 456.109C471.893 455.786 471.984 455.43 471.984 455.039C471.984 454.602 471.898 454.219 471.727 453.891C471.555 453.562 471.284 453.31 470.914 453.133C470.549 452.951 470.078 452.859 469.5 452.859H467.242V463H465.734V451.625ZM472.383 463L469.617 457.844L471.188 457.836L473.992 462.906V463H472.383ZM484.344 451.625V463H482.828L477.102 454.227V463H475.594V451.625H477.102L482.852 460.422V451.625H484.344Z" fill="white" fill-opacity="0.7"/>
<circle cx="125.5" cy="508.5" r="5.5" fill="#172941"/>
<path d="M159.801 514.461V517H149.879V514.852L154.449 510.047C154.853 509.585 155.178 509.171 155.426 508.807C155.673 508.436 155.852 508.1 155.963 507.801C156.08 507.501 156.139 507.231 156.139 506.99C156.139 506.58 156.077 506.238 155.953 505.965C155.836 505.685 155.66 505.473 155.426 505.33C155.198 505.187 154.915 505.115 154.576 505.115C154.238 505.115 153.941 505.213 153.688 505.408C153.434 505.604 153.235 505.87 153.092 506.209C152.955 506.548 152.887 506.928 152.887 507.352H149.586C149.586 506.479 149.798 505.682 150.221 504.959C150.65 504.236 151.246 503.66 152.008 503.23C152.77 502.794 153.652 502.576 154.654 502.576C155.702 502.576 156.581 502.739 157.291 503.064C158.001 503.39 158.535 503.862 158.893 504.48C159.257 505.092 159.439 505.831 159.439 506.697C159.439 507.192 159.361 507.667 159.205 508.123C159.049 508.579 158.824 509.031 158.531 509.48C158.238 509.923 157.88 510.379 157.457 510.848C157.04 511.316 156.565 511.814 156.031 512.342L154.195 514.461H159.801ZM161.744 515.457C161.744 514.988 161.913 514.598 162.252 514.285C162.59 513.966 163.027 513.807 163.561 513.807C164.101 513.807 164.537 513.966 164.869 514.285C165.208 514.598 165.377 514.988 165.377 515.457C165.377 515.926 165.208 516.32 164.869 516.639C164.537 516.951 164.101 517.107 163.561 517.107C163.027 517.107 162.59 516.951 162.252 516.639C161.913 516.32 161.744 515.926 161.744 515.457ZM177.408 508.592V511.189C177.408 512.212 177.288 513.1 177.047 513.855C176.812 514.611 176.474 515.236 176.031 515.73C175.595 516.225 175.074 516.593 174.469 516.834C173.863 517.075 173.196 517.195 172.467 517.195C171.881 517.195 171.334 517.12 170.826 516.971C170.318 516.814 169.859 516.58 169.449 516.268C169.046 515.949 168.697 515.551 168.404 515.076C168.111 514.601 167.887 514.041 167.73 513.396C167.574 512.745 167.496 512.01 167.496 511.189V508.592C167.496 507.563 167.613 506.674 167.848 505.926C168.089 505.171 168.43 504.546 168.873 504.051C169.316 503.556 169.84 503.188 170.445 502.947C171.051 502.706 171.718 502.586 172.447 502.586C173.033 502.586 173.577 502.664 174.078 502.82C174.586 502.97 175.045 503.204 175.455 503.523C175.865 503.836 176.214 504.23 176.5 504.705C176.793 505.18 177.018 505.743 177.174 506.395C177.33 507.039 177.408 507.771 177.408 508.592ZM174.117 511.59V508.172C174.117 507.716 174.091 507.319 174.039 506.98C173.993 506.642 173.922 506.355 173.824 506.121C173.733 505.887 173.619 505.698 173.482 505.555C173.346 505.405 173.189 505.298 173.014 505.232C172.844 505.161 172.656 505.125 172.447 505.125C172.187 505.125 171.952 505.18 171.744 505.291C171.542 505.395 171.37 505.564 171.227 505.799C171.083 506.033 170.973 506.346 170.895 506.736C170.823 507.127 170.787 507.605 170.787 508.172V511.59C170.787 512.052 170.81 512.456 170.855 512.801C170.908 513.139 170.979 513.429 171.07 513.67C171.168 513.904 171.285 514.096 171.422 514.246C171.559 514.389 171.715 514.493 171.891 514.559C172.066 514.624 172.258 514.656 172.467 514.656C172.721 514.656 172.949 514.604 173.15 514.5C173.352 514.396 173.525 514.227 173.668 513.992C173.818 513.751 173.928 513.436 174 513.045C174.078 512.648 174.117 512.163 174.117 511.59ZM179.146 506.268V505.516C179.146 504.975 179.264 504.484 179.498 504.041C179.732 503.598 180.084 503.243 180.553 502.977C181.021 502.71 181.604 502.576 182.301 502.576C183.017 502.576 183.609 502.71 184.078 502.977C184.547 503.243 184.895 503.598 185.123 504.041C185.357 504.484 185.475 504.975 185.475 505.516V506.268C185.475 506.795 185.357 507.28 185.123 507.723C184.895 508.165 184.547 508.52 184.078 508.787C183.616 509.054 183.033 509.188 182.33 509.188C181.62 509.188 181.031 509.054 180.562 508.787C180.094 508.52 179.739 508.165 179.498 507.723C179.264 507.28 179.146 506.795 179.146 506.268ZM181.256 505.516V506.268C181.256 506.463 181.295 506.648 181.373 506.824C181.451 507 181.568 507.143 181.725 507.254C181.887 507.358 182.086 507.41 182.32 507.41C182.561 507.41 182.757 507.358 182.906 507.254C183.056 507.143 183.167 507 183.238 506.824C183.316 506.648 183.355 506.463 183.355 506.268V505.516C183.355 505.307 183.316 505.115 183.238 504.939C183.167 504.764 183.053 504.624 182.896 504.52C182.74 504.409 182.542 504.354 182.301 504.354C182.073 504.354 181.881 504.409 181.725 504.52C181.568 504.624 181.451 504.764 181.373 504.939C181.295 505.115 181.256 505.307 181.256 505.516ZM185.895 514.266V513.514C185.895 512.98 186.012 512.492 186.246 512.049C186.487 511.606 186.842 511.251 187.311 510.984C187.786 510.717 188.372 510.584 189.068 510.584C189.785 510.584 190.374 510.717 190.836 510.984C191.305 511.251 191.653 511.606 191.881 512.049C192.115 512.492 192.232 512.98 192.232 513.514V514.266C192.232 514.799 192.115 515.288 191.881 515.73C191.653 516.173 191.308 516.528 190.846 516.795C190.383 517.062 189.801 517.195 189.098 517.195C188.388 517.195 187.796 517.062 187.32 516.795C186.845 516.528 186.487 516.173 186.246 515.73C186.012 515.288 185.895 514.799 185.895 514.266ZM188.014 513.514V514.266C188.014 514.467 188.062 514.656 188.16 514.832C188.258 515.008 188.388 515.151 188.551 515.262C188.714 515.366 188.893 515.418 189.088 515.418C189.387 515.418 189.609 515.366 189.752 515.262C189.902 515.151 189.999 515.008 190.045 514.832C190.097 514.656 190.123 514.467 190.123 514.266V513.514C190.123 513.312 190.084 513.123 190.006 512.947C189.928 512.771 189.811 512.632 189.654 512.527C189.498 512.417 189.303 512.361 189.068 512.361C188.834 512.361 188.639 512.417 188.482 512.527C188.326 512.632 188.209 512.771 188.131 512.947C188.053 513.123 188.014 513.312 188.014 513.514ZM189.889 504.822L182.945 515.936L181.412 515.164L188.355 504.051L189.889 504.822ZM207.586 512.539H204.547V511.312H207.586C208.174 511.312 208.651 511.219 209.016 511.031C209.38 510.844 209.646 510.583 209.812 510.25C209.984 509.917 210.07 509.536 210.07 509.109C210.07 508.719 209.984 508.352 209.812 508.008C209.646 507.664 209.38 507.388 209.016 507.18C208.651 506.966 208.174 506.859 207.586 506.859H204.898V517H203.391V505.625H207.586C208.445 505.625 209.172 505.773 209.766 506.07C210.359 506.367 210.81 506.779 211.117 507.305C211.424 507.826 211.578 508.422 211.578 509.094C211.578 509.823 211.424 510.445 211.117 510.961C210.81 511.477 210.359 511.87 209.766 512.141C209.172 512.406 208.445 512.539 207.586 512.539ZM215.102 505.625V517H213.594V505.625H215.102ZM226.594 505.625V517H225.078L219.352 508.227V517H217.844V505.625H219.352L225.102 514.422V505.625H226.594ZM230.773 505.625V517H229.266V505.625H230.773ZM237.641 505.625L232.914 510.93L230.258 513.688L230.008 512.078L232.008 509.875L235.828 505.625H237.641ZM236.188 517L231.977 511.453L232.875 510.258L237.984 517H236.188ZM245.375 514.125C245.375 513.859 245.333 513.625 245.25 513.422C245.172 513.214 245.031 513.026 244.828 512.859C244.63 512.693 244.354 512.534 244 512.383C243.651 512.232 243.208 512.078 242.672 511.922C242.109 511.755 241.602 511.57 241.148 511.367C240.695 511.159 240.307 510.922 239.984 510.656C239.661 510.391 239.414 510.086 239.242 509.742C239.07 509.398 238.984 509.005 238.984 508.562C238.984 508.12 239.076 507.711 239.258 507.336C239.44 506.961 239.701 506.635 240.039 506.359C240.383 506.078 240.792 505.859 241.266 505.703C241.74 505.547 242.268 505.469 242.852 505.469C243.706 505.469 244.43 505.633 245.023 505.961C245.622 506.284 246.078 506.708 246.391 507.234C246.703 507.755 246.859 508.312 246.859 508.906H245.359C245.359 508.479 245.268 508.102 245.086 507.773C244.904 507.44 244.628 507.18 244.258 506.992C243.888 506.799 243.419 506.703 242.852 506.703C242.315 506.703 241.872 506.784 241.523 506.945C241.174 507.107 240.914 507.326 240.742 507.602C240.576 507.878 240.492 508.193 240.492 508.547C240.492 508.786 240.542 509.005 240.641 509.203C240.745 509.396 240.904 509.576 241.117 509.742C241.336 509.909 241.612 510.062 241.945 510.203C242.284 510.344 242.688 510.479 243.156 510.609C243.802 510.792 244.359 510.995 244.828 511.219C245.297 511.443 245.682 511.695 245.984 511.977C246.292 512.253 246.518 512.568 246.664 512.922C246.815 513.271 246.891 513.667 246.891 514.109C246.891 514.573 246.797 514.992 246.609 515.367C246.422 515.742 246.154 516.062 245.805 516.328C245.456 516.594 245.036 516.799 244.547 516.945C244.062 517.086 243.521 517.156 242.922 517.156C242.396 517.156 241.878 517.083 241.367 516.938C240.862 516.792 240.401 516.573 239.984 516.281C239.573 515.99 239.242 515.63 238.992 515.203C238.747 514.771 238.625 514.271 238.625 513.703H240.125C240.125 514.094 240.201 514.43 240.352 514.711C240.503 514.987 240.708 515.216 240.969 515.398C241.234 515.581 241.534 515.716 241.867 515.805C242.206 515.888 242.557 515.93 242.922 515.93C243.448 515.93 243.893 515.857 244.258 515.711C244.622 515.565 244.898 515.357 245.086 515.086C245.279 514.815 245.375 514.495 245.375 514.125ZM253.023 506.633L249.258 517H247.719L252.055 505.625H253.047L253.023 506.633ZM256.18 517L252.406 506.633L252.383 505.625H253.375L257.727 517H256.18ZM255.984 512.789V514.023H249.594V512.789H255.984ZM266.148 515.773V517H260.461V515.773H266.148ZM260.758 505.625V517H259.25V505.625H260.758ZM275.102 515.773V517H269.078V515.773H275.102ZM269.383 505.625V517H267.875V505.625H269.383ZM274.305 510.516V511.742H269.078V510.516H274.305ZM275.023 505.625V506.859H269.078V505.625H275.023ZM151.828 524.625V536H150.32V524.625H151.828ZM156.594 529.742V530.977H151.5V529.742H156.594ZM157.367 524.625V525.859H151.5V524.625H157.367ZM166.391 534.773V536H160.367V534.773H166.391ZM160.672 524.625V536H159.164V524.625H160.672ZM165.594 529.516V530.742H160.367V529.516H165.594ZM166.312 524.625V525.859H160.367V524.625H166.312ZM175.484 534.773V536H169.461V534.773H175.484ZM169.766 524.625V536H168.258V524.625H169.766ZM174.688 529.516V530.742H169.461V529.516H174.688ZM175.406 524.625V525.859H169.461V524.625H175.406ZM183.414 533.125C183.414 532.859 183.372 532.625 183.289 532.422C183.211 532.214 183.07 532.026 182.867 531.859C182.669 531.693 182.393 531.534 182.039 531.383C181.69 531.232 181.247 531.078 180.711 530.922C180.148 530.755 179.641 530.57 179.188 530.367C178.734 530.159 178.346 529.922 178.023 529.656C177.701 529.391 177.453 529.086 177.281 528.742C177.109 528.398 177.023 528.005 177.023 527.562C177.023 527.12 177.115 526.711 177.297 526.336C177.479 525.961 177.74 525.635 178.078 525.359C178.422 525.078 178.831 524.859 179.305 524.703C179.779 524.547 180.307 524.469 180.891 524.469C181.745 524.469 182.469 524.633 183.062 524.961C183.661 525.284 184.117 525.708 184.43 526.234C184.742 526.755 184.898 527.312 184.898 527.906H183.398C183.398 527.479 183.307 527.102 183.125 526.773C182.943 526.44 182.667 526.18 182.297 525.992C181.927 525.799 181.458 525.703 180.891 525.703C180.354 525.703 179.911 525.784 179.562 525.945C179.214 526.107 178.953 526.326 178.781 526.602C178.615 526.878 178.531 527.193 178.531 527.547C178.531 527.786 178.581 528.005 178.68 528.203C178.784 528.396 178.943 528.576 179.156 528.742C179.375 528.909 179.651 529.062 179.984 529.203C180.323 529.344 180.727 529.479 181.195 529.609C181.841 529.792 182.398 529.995 182.867 530.219C183.336 530.443 183.721 530.695 184.023 530.977C184.331 531.253 184.557 531.568 184.703 531.922C184.854 532.271 184.93 532.667 184.93 533.109C184.93 533.573 184.836 533.992 184.648 534.367C184.461 534.742 184.193 535.062 183.844 535.328C183.495 535.594 183.076 535.799 182.586 535.945C182.102 536.086 181.56 536.156 180.961 536.156C180.435 536.156 179.917 536.083 179.406 535.938C178.901 535.792 178.44 535.573 178.023 535.281C177.612 534.99 177.281 534.63 177.031 534.203C176.786 533.771 176.664 533.271 176.664 532.703H178.164C178.164 533.094 178.24 533.43 178.391 533.711C178.542 533.987 178.747 534.216 179.008 534.398C179.273 534.581 179.573 534.716 179.906 534.805C180.245 534.888 180.596 534.93 180.961 534.93C181.487 534.93 181.932 534.857 182.297 534.711C182.661 534.565 182.938 534.357 183.125 534.086C183.318 533.815 183.414 533.495 183.414 533.125Z" fill="white" fill-opacity="0.7"/>
<circle cx="124.5" cy="453.5" r="5.5" fill="#F50B5C"/>
<path d="M159.006 455.443V457.982H148.771L148.576 455.971L154.289 446.781H156.887L154.064 451.4L151.721 455.443H159.006ZM157.57 446.781V461H154.279V446.781H157.57ZM170.354 452.592V455.189C170.354 456.212 170.233 457.1 169.992 457.855C169.758 458.611 169.419 459.236 168.977 459.73C168.54 460.225 168.02 460.593 167.414 460.834C166.809 461.075 166.141 461.195 165.412 461.195C164.826 461.195 164.279 461.12 163.771 460.971C163.264 460.814 162.805 460.58 162.395 460.268C161.991 459.949 161.643 459.551 161.35 459.076C161.057 458.601 160.832 458.041 160.676 457.396C160.52 456.745 160.441 456.01 160.441 455.189V452.592C160.441 451.563 160.559 450.674 160.793 449.926C161.034 449.171 161.376 448.546 161.818 448.051C162.261 447.556 162.785 447.188 163.391 446.947C163.996 446.706 164.663 446.586 165.393 446.586C165.979 446.586 166.522 446.664 167.023 446.82C167.531 446.97 167.99 447.204 168.4 447.523C168.811 447.836 169.159 448.23 169.445 448.705C169.738 449.18 169.963 449.743 170.119 450.395C170.275 451.039 170.354 451.771 170.354 452.592ZM167.062 455.59V452.172C167.062 451.716 167.036 451.319 166.984 450.98C166.939 450.642 166.867 450.355 166.77 450.121C166.678 449.887 166.564 449.698 166.428 449.555C166.291 449.405 166.135 449.298 165.959 449.232C165.79 449.161 165.601 449.125 165.393 449.125C165.132 449.125 164.898 449.18 164.689 449.291C164.488 449.395 164.315 449.564 164.172 449.799C164.029 450.033 163.918 450.346 163.84 450.736C163.768 451.127 163.732 451.605 163.732 452.172V455.59C163.732 456.052 163.755 456.456 163.801 456.801C163.853 457.139 163.924 457.429 164.016 457.67C164.113 457.904 164.23 458.096 164.367 458.246C164.504 458.389 164.66 458.493 164.836 458.559C165.012 458.624 165.204 458.656 165.412 458.656C165.666 458.656 165.894 458.604 166.096 458.5C166.298 458.396 166.47 458.227 166.613 457.992C166.763 457.751 166.874 457.436 166.945 457.045C167.023 456.648 167.062 456.163 167.062 455.59ZM172.346 459.457C172.346 458.988 172.515 458.598 172.854 458.285C173.192 457.966 173.628 457.807 174.162 457.807C174.702 457.807 175.139 457.966 175.471 458.285C175.809 458.598 175.979 458.988 175.979 459.457C175.979 459.926 175.809 460.32 175.471 460.639C175.139 460.951 174.702 461.107 174.162 461.107C173.628 461.107 173.192 460.951 172.854 460.639C172.515 460.32 172.346 459.926 172.346 459.457ZM180.949 454.662L178.332 454.047L179.191 446.781H187.502V449.34H181.877L181.555 452.162C181.711 452.071 181.975 451.964 182.346 451.84C182.723 451.71 183.14 451.645 183.596 451.645C184.299 451.645 184.921 451.752 185.461 451.967C186.008 452.175 186.47 452.484 186.848 452.895C187.225 453.298 187.508 453.796 187.697 454.389C187.893 454.981 187.99 455.658 187.99 456.42C187.99 457.032 187.889 457.624 187.688 458.197C187.492 458.764 187.189 459.275 186.779 459.73C186.376 460.18 185.865 460.538 185.246 460.805C184.628 461.065 183.895 461.195 183.049 461.195C182.417 461.195 181.802 461.098 181.203 460.902C180.604 460.707 180.064 460.427 179.582 460.062C179.107 459.691 178.729 459.245 178.449 458.725C178.176 458.197 178.042 457.608 178.049 456.957H181.359C181.379 457.302 181.46 457.602 181.604 457.855C181.747 458.109 181.939 458.308 182.18 458.451C182.427 458.588 182.71 458.656 183.029 458.656C183.355 458.656 183.625 458.591 183.84 458.461C184.055 458.331 184.224 458.152 184.348 457.924C184.471 457.696 184.559 457.436 184.611 457.143C184.663 456.843 184.689 456.527 184.689 456.195C184.689 455.844 184.65 455.528 184.572 455.248C184.501 454.968 184.383 454.73 184.221 454.535C184.058 454.333 183.846 454.18 183.586 454.076C183.332 453.972 183.026 453.92 182.668 453.92C182.193 453.92 181.818 454.001 181.545 454.164C181.271 454.327 181.073 454.493 180.949 454.662ZM189.748 450.268V449.516C189.748 448.975 189.865 448.484 190.1 448.041C190.334 447.598 190.686 447.243 191.154 446.977C191.623 446.71 192.206 446.576 192.902 446.576C193.618 446.576 194.211 446.71 194.68 446.977C195.148 447.243 195.497 447.598 195.725 448.041C195.959 448.484 196.076 448.975 196.076 449.516V450.268C196.076 450.795 195.959 451.28 195.725 451.723C195.497 452.165 195.148 452.52 194.68 452.787C194.217 453.054 193.635 453.188 192.932 453.188C192.222 453.188 191.633 453.054 191.164 452.787C190.695 452.52 190.34 452.165 190.1 451.723C189.865 451.28 189.748 450.795 189.748 450.268ZM191.857 449.516V450.268C191.857 450.463 191.896 450.648 191.975 450.824C192.053 451 192.17 451.143 192.326 451.254C192.489 451.358 192.688 451.41 192.922 451.41C193.163 451.41 193.358 451.358 193.508 451.254C193.658 451.143 193.768 451 193.84 450.824C193.918 450.648 193.957 450.463 193.957 450.268V449.516C193.957 449.307 193.918 449.115 193.84 448.939C193.768 448.764 193.654 448.624 193.498 448.52C193.342 448.409 193.143 448.354 192.902 448.354C192.674 448.354 192.482 448.409 192.326 448.52C192.17 448.624 192.053 448.764 191.975 448.939C191.896 449.115 191.857 449.307 191.857 449.516ZM196.496 458.266V457.514C196.496 456.98 196.613 456.492 196.848 456.049C197.089 455.606 197.443 455.251 197.912 454.984C198.387 454.717 198.973 454.584 199.67 454.584C200.386 454.584 200.975 454.717 201.438 454.984C201.906 455.251 202.255 455.606 202.482 456.049C202.717 456.492 202.834 456.98 202.834 457.514V458.266C202.834 458.799 202.717 459.288 202.482 459.73C202.255 460.173 201.91 460.528 201.447 460.795C200.985 461.062 200.402 461.195 199.699 461.195C198.99 461.195 198.397 461.062 197.922 460.795C197.447 460.528 197.089 460.173 196.848 459.73C196.613 459.288 196.496 458.799 196.496 458.266ZM198.615 457.514V458.266C198.615 458.467 198.664 458.656 198.762 458.832C198.859 459.008 198.99 459.151 199.152 459.262C199.315 459.366 199.494 459.418 199.689 459.418C199.989 459.418 200.21 459.366 200.354 459.262C200.503 459.151 200.601 459.008 200.646 458.832C200.699 458.656 200.725 458.467 200.725 458.266V457.514C200.725 457.312 200.686 457.123 200.607 456.947C200.529 456.771 200.412 456.632 200.256 456.527C200.1 456.417 199.904 456.361 199.67 456.361C199.436 456.361 199.24 456.417 199.084 456.527C198.928 456.632 198.811 456.771 198.732 456.947C198.654 457.123 198.615 457.312 198.615 457.514ZM200.49 448.822L193.547 459.936L192.014 459.164L198.957 448.051L200.49 448.822ZM220.891 459.773V461H215.203V459.773H220.891ZM215.5 449.625V461H213.992V449.625H215.5ZM224.234 449.625V461H222.727V449.625H224.234ZM232.812 459.695L235.703 461.984L234.688 462.922L231.844 460.664L232.812 459.695ZM235.664 454.953V455.672C235.664 456.526 235.557 457.292 235.344 457.969C235.13 458.646 234.823 459.221 234.422 459.695C234.021 460.169 233.539 460.531 232.977 460.781C232.419 461.031 231.794 461.156 231.102 461.156C230.43 461.156 229.812 461.031 229.25 460.781C228.693 460.531 228.208 460.169 227.797 459.695C227.391 459.221 227.076 458.646 226.852 457.969C226.628 457.292 226.516 456.526 226.516 455.672V454.953C226.516 454.099 226.625 453.336 226.844 452.664C227.068 451.987 227.383 451.411 227.789 450.938C228.195 450.458 228.677 450.094 229.234 449.844C229.797 449.594 230.414 449.469 231.086 449.469C231.779 449.469 232.406 449.594 232.969 449.844C233.531 450.094 234.013 450.458 234.414 450.938C234.815 451.411 235.122 451.987 235.336 452.664C235.555 453.336 235.664 454.099 235.664 454.953ZM234.172 455.672V454.938C234.172 454.26 234.102 453.661 233.961 453.141C233.826 452.62 233.625 452.182 233.359 451.828C233.094 451.474 232.771 451.206 232.391 451.023C232.01 450.841 231.576 450.75 231.086 450.75C230.622 450.75 230.201 450.841 229.82 451.023C229.445 451.206 229.122 451.474 228.852 451.828C228.581 452.182 228.372 452.62 228.227 453.141C228.081 453.661 228.008 454.26 228.008 454.938V455.672C228.008 456.354 228.081 456.958 228.227 457.484C228.372 458.005 228.581 458.445 228.852 458.805C229.128 459.159 229.456 459.427 229.836 459.609C230.216 459.792 230.638 459.883 231.102 459.883C231.591 459.883 232.026 459.792 232.406 459.609C232.786 459.427 233.107 459.159 233.367 458.805C233.633 458.445 233.833 458.005 233.969 457.484C234.104 456.958 234.172 456.354 234.172 455.672ZM244.5 449.625H246V457.32C246 458.174 245.81 458.885 245.43 459.453C245.049 460.021 244.544 460.448 243.914 460.734C243.289 461.016 242.609 461.156 241.875 461.156C241.104 461.156 240.406 461.016 239.781 460.734C239.161 460.448 238.669 460.021 238.305 459.453C237.945 458.885 237.766 458.174 237.766 457.32V449.625H239.258V457.32C239.258 457.914 239.367 458.404 239.586 458.789C239.805 459.174 240.109 459.461 240.5 459.648C240.896 459.836 241.354 459.93 241.875 459.93C242.401 459.93 242.859 459.836 243.25 459.648C243.646 459.461 243.953 459.174 244.172 458.789C244.391 458.404 244.5 457.914 244.5 457.32V449.625ZM249.984 449.625V461H248.477V449.625H249.984ZM255.805 461H253.43L253.445 459.773H255.805C256.617 459.773 257.294 459.604 257.836 459.266C258.378 458.922 258.784 458.443 259.055 457.828C259.331 457.208 259.469 456.484 259.469 455.656V454.961C259.469 454.31 259.391 453.732 259.234 453.227C259.078 452.716 258.849 452.286 258.547 451.938C258.245 451.583 257.875 451.315 257.438 451.133C257.005 450.951 256.508 450.859 255.945 450.859H253.383V449.625H255.945C256.69 449.625 257.37 449.75 257.984 450C258.599 450.245 259.128 450.602 259.57 451.07C260.018 451.534 260.362 452.096 260.602 452.758C260.841 453.414 260.961 454.154 260.961 454.977V455.656C260.961 456.479 260.841 457.221 260.602 457.883C260.362 458.539 260.016 459.099 259.562 459.562C259.115 460.026 258.573 460.383 257.938 460.633C257.307 460.878 256.596 461 255.805 461ZM254.234 449.625V461H252.727V449.625H254.234ZM264.844 449.625V461H263.336V449.625H264.844ZM271.555 449.625V461H270.07V449.625H271.555ZM275.211 449.625V450.859H266.422V449.625H275.211ZM277.547 449.625L280.5 455.336L283.461 449.625H285.172L281.25 456.75V461H279.742V456.75L275.82 449.625H277.547Z" fill="white" fill-opacity="0.7"/>
<rect x="0.5" y="0.5" width="597" height="688" rx="38.5" stroke="url(#paint0_linear_277_658)"/>
<defs>
<linearGradient id="paint0_linear_277_658" x1="604.784" y1="-21.3208" x2="-120.777" y2="137.607" gradientUnits="userSpaceOnUse">
<stop stop-color="#E617DB"/>
<stop offset="1" stop-color="#00EAFF"/>
</linearGradient>
<clipPath id="clip0_277_658">
<rect width="242" height="243" fill="white" transform="translate(172 84)"/>
</clipPath>
<clipPath id="clip1_277_658">
<rect width="237" height="237" fill="white" transform="translate(411 84) rotate(90)"/>
</clipPath>
</defs>
</svg>
