<svg width="606" height="697" viewBox="0 0 606 697" fill="none" xmlns="http://www.w3.org/2000/svg">
<g filter="url(#filter0_d_277_658)">
<path d="M52.2642 55V40.4545H55.3395V46.456H61.5824V40.4545H64.6506V55H61.5824V48.9915H55.3395V55H52.2642ZM67.1861 55V40.4545H76.9872V42.9901H70.2614V46.456H76.483V48.9915H70.2614V52.4645H77.0156V55H67.1861ZM81.9393 55H78.6438L83.6651 40.4545H87.6282L92.6424 55H89.3469L85.7035 43.7784H85.5898L81.9393 55ZM81.7333 49.2827H89.5174V51.6832H81.7333V49.2827ZM94.3931 55V40.4545H100.132C101.23 40.4545 102.168 40.651 102.944 41.044C103.725 41.4323 104.32 41.9839 104.727 42.6989C105.139 43.4091 105.345 44.2448 105.345 45.206C105.345 46.1719 105.136 47.0028 104.72 47.6989C104.303 48.3902 103.699 48.9205 102.909 49.2898C102.123 49.6591 101.171 49.8438 100.054 49.8438H96.2113V47.3722H99.5565C100.144 47.3722 100.631 47.2917 101.02 47.1307C101.408 46.9697 101.697 46.7282 101.886 46.4062C102.08 46.0843 102.177 45.6842 102.177 45.206C102.177 44.723 102.08 44.3158 101.886 43.9844C101.697 43.6529 101.405 43.402 101.012 43.2315C100.624 43.0563 100.134 42.9688 99.5423 42.9688H97.4684V55H94.3931ZM102.248 48.3807L105.863 55H102.468L98.9315 48.3807H102.248ZM106.964 42.9901V40.4545H118.91V42.9901H114.457V55H111.417V42.9901H106.964ZM120.877 55V40.4545H126.701C127.771 40.4545 128.664 40.6132 129.379 40.9304C130.094 41.2476 130.631 41.688 130.991 42.2514C131.351 42.8101 131.531 43.4541 131.531 44.1832C131.531 44.7514 131.417 45.2509 131.19 45.6818C130.963 46.108 130.65 46.4583 130.252 46.733C129.859 47.0028 129.41 47.1946 128.903 47.3082V47.4503C129.457 47.474 129.975 47.6302 130.458 47.919C130.946 48.2079 131.342 48.6127 131.645 49.1335C131.948 49.6496 132.099 50.2652 132.099 50.9801C132.099 51.7519 131.907 52.4408 131.524 53.0469C131.145 53.6482 130.584 54.1241 129.841 54.4744C129.097 54.8248 128.181 55 127.092 55H120.877ZM123.953 52.4858H126.46C127.317 52.4858 127.942 52.3224 128.335 51.9957C128.728 51.6643 128.924 51.224 128.924 50.6747C128.924 50.2723 128.827 49.9171 128.633 49.6094C128.439 49.3016 128.162 49.0601 127.802 48.8849C127.447 48.7098 127.023 48.6222 126.531 48.6222H123.953V52.4858ZM123.953 46.5412H126.233C126.654 46.5412 127.028 46.4678 127.355 46.321C127.686 46.1695 127.947 45.9564 128.136 45.6818C128.33 45.4072 128.427 45.0781 128.427 44.6946C128.427 44.169 128.24 43.7453 127.866 43.4233C127.497 43.1013 126.971 42.9403 126.289 42.9403H123.953V46.5412ZM134.1 55V40.4545H143.901V42.9901H137.175V46.456H143.397V48.9915H137.175V52.4645H143.93V55H134.1ZM148.853 55H145.558L150.579 40.4545H154.542L159.556 55H156.261L152.618 43.7784H152.504L148.853 55ZM148.647 49.2827H156.431V51.6832H148.647V49.2827ZM158.976 42.9901V40.4545H170.922V42.9901H166.469V55H163.429V42.9901H158.976ZM176.964 42.9901V40.4545H188.91V42.9901H184.457V55H181.417V42.9901H176.964ZM203.58 47.7273C203.58 49.3134 203.279 50.6629 202.678 51.7756C202.081 52.8883 201.267 53.7382 200.235 54.3253C199.207 54.9077 198.052 55.1989 196.769 55.1989C195.476 55.1989 194.316 54.9053 193.289 54.3182C192.261 53.7311 191.449 52.8812 190.853 51.7685C190.256 50.6558 189.958 49.3087 189.958 47.7273C189.958 46.1411 190.256 44.7917 190.853 43.679C191.449 42.5663 192.261 41.7187 193.289 41.1364C194.316 40.5492 195.476 40.2557 196.769 40.2557C198.052 40.2557 199.207 40.5492 200.235 41.1364C201.267 41.7187 202.081 42.5663 202.678 43.679C203.279 44.7917 203.58 46.1411 203.58 47.7273ZM200.462 47.7273C200.462 46.6998 200.308 45.8333 200 45.1278C199.697 44.4223 199.269 43.8873 198.715 43.5227C198.161 43.1581 197.512 42.9759 196.769 42.9759C196.025 42.9759 195.377 43.1581 194.823 43.5227C194.269 43.8873 193.838 44.4223 193.53 45.1278C193.227 45.8333 193.076 46.6998 193.076 47.7273C193.076 48.7547 193.227 49.6212 193.53 50.3267C193.838 51.0322 194.269 51.5672 194.823 51.9318C195.377 52.2964 196.025 52.4787 196.769 52.4787C197.512 52.4787 198.161 52.2964 198.715 51.9318C199.269 51.5672 199.697 51.0322 200 50.3267C200.308 49.6212 200.462 48.7547 200.462 47.7273ZM205.858 55V40.4545H208.933V46.8679H209.125L214.359 40.4545H218.045L212.648 46.9673L218.109 55H214.43L210.446 49.0199L208.933 50.8665V55H205.858ZM219.647 55V40.4545H229.448V42.9901H222.722V46.456H228.944V48.9915H222.722V52.4645H229.477V55H219.647ZM244.059 40.4545V55H241.403L235.075 45.8452H234.968V55H231.893V40.4545H234.592L240.87 49.6023H240.998V40.4545H244.059ZM52.2642 64.4545H56.0568L60.0625 74.2273H60.233L64.2386 64.4545H68.0312V79H65.0483V69.5327H64.9276L61.1634 78.929H59.1321L55.3679 69.4972H55.2472V79H52.2642V64.4545ZM70.565 79V64.4545H80.3661V66.9901H73.6403V70.456H79.8619V72.9915H73.6403V76.4645H80.3945V79H70.565ZM82.2571 66.9901V64.4545H94.2031V66.9901H89.75V79H86.7102V66.9901H82.2571ZM96.1705 79V64.4545H101.909C103.008 64.4545 103.945 64.651 104.722 65.044C105.503 65.4323 106.097 65.9839 106.504 66.6989C106.916 67.4091 107.122 68.2448 107.122 69.206C107.122 70.1719 106.914 71.0028 106.497 71.6989C106.08 72.3902 105.477 72.9205 104.686 73.2898C103.9 73.6591 102.948 73.8438 101.831 73.8438H97.9886V71.3722H101.334C101.921 71.3722 102.409 71.2917 102.797 71.1307C103.185 70.9697 103.474 70.7282 103.663 70.4062C103.857 70.0843 103.955 69.6842 103.955 69.206C103.955 68.723 103.857 68.3158 103.663 67.9844C103.474 67.6529 103.183 67.402 102.79 67.2315C102.402 67.0563 101.911 66.9688 101.32 66.9688H99.2457V79H96.1705ZM104.026 72.3807L107.641 79H104.246L100.709 72.3807H104.026ZM112.371 64.4545V79H109.295V64.4545H112.371ZM127.735 69.5469H124.624C124.567 69.1444 124.451 68.7869 124.276 68.4744C124.101 68.1572 123.876 67.8873 123.601 67.6648C123.327 67.4422 123.009 67.2718 122.65 67.1534C122.294 67.035 121.908 66.9759 121.492 66.9759C120.739 66.9759 120.083 67.1629 119.525 67.5369C118.966 67.9062 118.533 68.446 118.225 69.1562C117.917 69.8617 117.763 70.7187 117.763 71.7273C117.763 72.7642 117.917 73.6354 118.225 74.3409C118.537 75.0464 118.973 75.5791 119.532 75.9389C120.09 76.2988 120.737 76.4787 121.471 76.4787C121.882 76.4787 122.264 76.4242 122.614 76.3153C122.969 76.2064 123.284 76.0478 123.559 75.8395C123.833 75.6264 124.06 75.3684 124.24 75.0653C124.425 74.7623 124.553 74.4167 124.624 74.0284L127.735 74.0426C127.654 74.7102 127.453 75.3542 127.131 75.9744C126.814 76.59 126.385 77.1416 125.846 77.6293C125.31 78.1122 124.671 78.4957 123.928 78.7798C123.189 79.0592 122.354 79.1989 121.421 79.1989C120.123 79.1989 118.963 78.9053 117.941 78.3182C116.923 77.7311 116.118 76.8812 115.526 75.7685C114.939 74.6558 114.645 73.3087 114.645 71.7273C114.645 70.1411 114.944 68.7917 115.54 67.679C116.137 66.5663 116.946 65.7187 117.969 65.1364C118.992 64.5492 120.142 64.2557 121.421 64.2557C122.264 64.2557 123.045 64.3741 123.765 64.6108C124.489 64.8475 125.131 65.1932 125.689 65.6477C126.248 66.0975 126.703 66.6491 127.053 67.3026C127.408 67.956 127.635 68.7041 127.735 69.5469ZM137.831 68.6378C137.774 68.0649 137.53 67.6198 137.099 67.3026C136.668 66.9853 136.083 66.8267 135.345 66.8267C134.843 66.8267 134.419 66.8977 134.074 67.0398C133.728 67.1771 133.463 67.3688 133.278 67.6151C133.098 67.8613 133.008 68.1406 133.008 68.4531C132.999 68.7135 133.053 68.9408 133.172 69.1349C133.295 69.3291 133.463 69.4972 133.676 69.6392C133.889 69.7765 134.135 69.8973 134.414 70.0014C134.694 70.1009 134.992 70.1861 135.309 70.2571L136.616 70.5696C137.251 70.7116 137.833 70.901 138.363 71.1378C138.894 71.3745 139.353 71.6657 139.741 72.0114C140.129 72.357 140.43 72.7642 140.643 73.233C140.861 73.7017 140.972 74.2391 140.977 74.8452C140.972 75.7353 140.745 76.5071 140.295 77.1605C139.85 77.8092 139.206 78.3134 138.363 78.6733C137.525 79.0284 136.514 79.206 135.331 79.206C134.156 79.206 133.134 79.026 132.262 78.6662C131.396 78.3063 130.719 77.7737 130.231 77.0682C129.748 76.358 129.495 75.4796 129.471 74.4332H132.447C132.48 74.9209 132.62 75.3281 132.866 75.6548C133.117 75.9768 133.451 76.2206 133.868 76.3864C134.289 76.5473 134.765 76.6278 135.295 76.6278C135.816 76.6278 136.268 76.5521 136.652 76.4006C137.04 76.2491 137.341 76.0384 137.554 75.7685C137.767 75.4986 137.873 75.1884 137.873 74.8381C137.873 74.5114 137.776 74.2367 137.582 74.0142C137.393 73.7917 137.113 73.6023 136.744 73.446C136.379 73.2898 135.932 73.1477 135.402 73.0199L133.818 72.6222C132.592 72.3239 131.623 71.8575 130.913 71.223C130.203 70.5885 129.85 69.7339 129.855 68.6591C129.85 67.7784 130.084 67.009 130.558 66.3509C131.036 65.6927 131.692 65.179 132.525 64.8097C133.359 64.4403 134.306 64.2557 135.366 64.2557C136.446 64.2557 137.388 64.4403 138.193 64.8097C139.002 65.179 139.632 65.6927 140.082 66.3509C140.532 67.009 140.764 67.7713 140.778 68.6378H137.831ZM144.757 79.1847C144.288 79.1847 143.886 79.0189 143.55 78.6875C143.218 78.3513 143.053 77.9489 143.053 77.4801C143.053 77.0161 143.218 76.6184 143.55 76.2869C143.886 75.9555 144.288 75.7898 144.757 75.7898C145.212 75.7898 145.609 75.9555 145.95 76.2869C146.291 76.6184 146.462 77.0161 146.462 77.4801C146.462 77.7926 146.381 78.0791 146.22 78.3395C146.064 78.5952 145.858 78.8011 145.602 78.9574C145.347 79.1089 145.065 79.1847 144.757 79.1847Z" fill="white" fill-opacity="0.7"/>
<g clip-path="url(#clip0_277_658)">
<g clip-path="url(#clip1_277_658)">
<path d="M296.5 202.461L413.845 185.995C414.594 191.452 414.979 196.953 415 202.461L296.5 202.461Z" fill="#010002"/>
<path d="M296.5 202.461L409.829 167.823C411.667 173.752 413.013 179.823 413.853 185.974L296.5 202.461Z" fill="#00EAFF"/>
<path d="M296.5 202.461L404.751 154.303C406.741 158.701 408.435 163.227 409.822 167.851L296.5 202.461Z" fill="#172941"/>
<path d="M296.5 202.461L393.538 134.474C397.924 140.695 401.68 147.338 404.751 154.303L296.5 202.461Z" fill="#E617DB"/>
<path d="M296.5 202.461L177.993 202.461C177.995 171.037 190.481 140.901 212.705 118.681C234.93 96.4614 265.071 83.9788 296.5 83.9788C337.072 83.9788 370.292 101.273 393.538 134.502L296.5 202.461Z" fill="#F50B5C"/>
<path d="M296.5 202.461L409.199 239.075C404.393 253.875 396.718 267.584 386.613 279.418C376.507 291.252 364.169 300.98 350.304 308.047C336.438 315.113 321.316 319.379 305.801 320.602C290.286 321.824 274.682 319.979 259.88 315.172C210.086 298.996 177.993 254.868 177.993 202.461L296.5 202.461Z" fill="#F5841F"/>
<path d="M296.5 202.461L415 202.461C415.103 214.902 413.142 227.275 409.199 239.075L296.5 202.461Z" fill="#375BFF"/>
<circle cx="297" cy="203" r="49" fill="#15151F"/>
</g>
</g>
<rect x="53" y="351" width="500" height="288" rx="27" fill="black" fill-opacity="0.2"/>
<circle cx="129.5" cy="395.5" r="5.5" fill="#375BFF"/>
<path d="M156.691 394.662L154.074 394.047L154.934 386.781H163.244V389.34H157.619L157.297 392.162C157.453 392.071 157.717 391.964 158.088 391.84C158.465 391.71 158.882 391.645 159.338 391.645C160.041 391.645 160.663 391.752 161.203 391.967C161.75 392.175 162.212 392.484 162.59 392.895C162.967 393.298 163.251 393.796 163.439 394.389C163.635 394.981 163.732 395.658 163.732 396.42C163.732 397.032 163.632 397.624 163.43 398.197C163.234 398.764 162.932 399.275 162.521 399.73C162.118 400.18 161.607 400.538 160.988 400.805C160.37 401.065 159.637 401.195 158.791 401.195C158.16 401.195 157.544 401.098 156.945 400.902C156.346 400.707 155.806 400.427 155.324 400.062C154.849 399.691 154.471 399.245 154.191 398.725C153.918 398.197 153.785 397.608 153.791 396.957H157.102C157.121 397.302 157.202 397.602 157.346 397.855C157.489 398.109 157.681 398.308 157.922 398.451C158.169 398.588 158.452 398.656 158.771 398.656C159.097 398.656 159.367 398.591 159.582 398.461C159.797 398.331 159.966 398.152 160.09 397.924C160.214 397.696 160.301 397.436 160.354 397.143C160.406 396.843 160.432 396.527 160.432 396.195C160.432 395.844 160.393 395.528 160.314 395.248C160.243 394.968 160.126 394.73 159.963 394.535C159.8 394.333 159.589 394.18 159.328 394.076C159.074 393.972 158.768 393.92 158.41 393.92C157.935 393.92 157.561 394.001 157.287 394.164C157.014 394.327 156.815 394.493 156.691 394.662ZM165.49 390.268V389.516C165.49 388.975 165.607 388.484 165.842 388.041C166.076 387.598 166.428 387.243 166.896 386.977C167.365 386.71 167.948 386.576 168.645 386.576C169.361 386.576 169.953 386.71 170.422 386.977C170.891 387.243 171.239 387.598 171.467 388.041C171.701 388.484 171.818 388.975 171.818 389.516V390.268C171.818 390.795 171.701 391.28 171.467 391.723C171.239 392.165 170.891 392.52 170.422 392.787C169.96 393.054 169.377 393.188 168.674 393.188C167.964 393.188 167.375 393.054 166.906 392.787C166.438 392.52 166.083 392.165 165.842 391.723C165.607 391.28 165.49 390.795 165.49 390.268ZM167.6 389.516V390.268C167.6 390.463 167.639 390.648 167.717 390.824C167.795 391 167.912 391.143 168.068 391.254C168.231 391.358 168.43 391.41 168.664 391.41C168.905 391.41 169.1 391.358 169.25 391.254C169.4 391.143 169.51 391 169.582 390.824C169.66 390.648 169.699 390.463 169.699 390.268V389.516C169.699 389.307 169.66 389.115 169.582 388.939C169.51 388.764 169.396 388.624 169.24 388.52C169.084 388.409 168.885 388.354 168.645 388.354C168.417 388.354 168.225 388.409 168.068 388.52C167.912 388.624 167.795 388.764 167.717 388.939C167.639 389.115 167.6 389.307 167.6 389.516ZM172.238 398.266V397.514C172.238 396.98 172.355 396.492 172.59 396.049C172.831 395.606 173.186 395.251 173.654 394.984C174.13 394.717 174.715 394.584 175.412 394.584C176.128 394.584 176.717 394.717 177.18 394.984C177.648 395.251 177.997 395.606 178.225 396.049C178.459 396.492 178.576 396.98 178.576 397.514V398.266C178.576 398.799 178.459 399.288 178.225 399.73C177.997 400.173 177.652 400.528 177.189 400.795C176.727 401.062 176.145 401.195 175.441 401.195C174.732 401.195 174.139 401.062 173.664 400.795C173.189 400.528 172.831 400.173 172.59 399.73C172.355 399.288 172.238 398.799 172.238 398.266ZM174.357 397.514V398.266C174.357 398.467 174.406 398.656 174.504 398.832C174.602 399.008 174.732 399.151 174.895 399.262C175.057 399.366 175.236 399.418 175.432 399.418C175.731 399.418 175.952 399.366 176.096 399.262C176.245 399.151 176.343 399.008 176.389 398.832C176.441 398.656 176.467 398.467 176.467 398.266V397.514C176.467 397.312 176.428 397.123 176.35 396.947C176.271 396.771 176.154 396.632 175.998 396.527C175.842 396.417 175.646 396.361 175.412 396.361C175.178 396.361 174.982 396.417 174.826 396.527C174.67 396.632 174.553 396.771 174.475 396.947C174.396 397.123 174.357 397.312 174.357 397.514ZM176.232 388.822L169.289 399.936L167.756 399.164L174.699 388.051L176.232 388.822ZM188.949 396.539H185.91V395.312H188.949C189.538 395.312 190.014 395.219 190.379 395.031C190.743 394.844 191.009 394.583 191.176 394.25C191.348 393.917 191.434 393.536 191.434 393.109C191.434 392.719 191.348 392.352 191.176 392.008C191.009 391.664 190.743 391.388 190.379 391.18C190.014 390.966 189.538 390.859 188.949 390.859H186.262V401H184.754V389.625H188.949C189.809 389.625 190.535 389.773 191.129 390.07C191.723 390.367 192.173 390.779 192.48 391.305C192.788 391.826 192.941 392.422 192.941 393.094C192.941 393.823 192.788 394.445 192.48 394.961C192.173 395.477 191.723 395.87 191.129 396.141C190.535 396.406 189.809 396.539 188.949 396.539ZM194.848 389.625H198.613C199.467 389.625 200.189 389.755 200.777 390.016C201.371 390.276 201.822 390.661 202.129 391.172C202.441 391.677 202.598 392.299 202.598 393.039C202.598 393.56 202.491 394.036 202.277 394.469C202.069 394.896 201.767 395.26 201.371 395.562C200.98 395.859 200.512 396.081 199.965 396.227L199.543 396.391H196.004L195.988 395.164H198.66C199.202 395.164 199.652 395.07 200.012 394.883C200.371 394.69 200.642 394.432 200.824 394.109C201.007 393.786 201.098 393.43 201.098 393.039C201.098 392.602 201.012 392.219 200.84 391.891C200.668 391.562 200.397 391.31 200.027 391.133C199.663 390.951 199.191 390.859 198.613 390.859H196.355V401H194.848V389.625ZM201.496 401L198.73 395.844L200.301 395.836L203.105 400.906V401H201.496ZM206.324 389.625V401H204.816V389.625H206.324ZM212.738 399.273L216.09 389.625H217.723L213.512 401H212.348L212.738 399.273ZM209.605 389.625L212.926 399.273L213.34 401H212.176L207.973 389.625H209.605ZM222.871 390.633L219.105 401H217.566L221.902 389.625H222.895L222.871 390.633ZM226.027 401L222.254 390.633L222.23 389.625H223.223L227.574 401H226.027ZM225.832 396.789V398.023H219.441V396.789H225.832ZM232.285 389.625V401H230.801V389.625H232.285ZM235.941 389.625V390.859H227.152V389.625H235.941ZM244.855 399.773V401H238.832V399.773H244.855ZM239.137 389.625V401H237.629V389.625H239.137ZM244.059 394.516V395.742H238.832V394.516H244.059ZM244.777 389.625V390.859H238.832V389.625H244.777Z" fill="white" fill-opacity="0.7"/>
<circle cx="372.5" cy="395.5" r="5.5" fill="#F5841F"/>
<path d="M406.792 397.443V399.982H396.558L396.363 397.971L402.076 388.781H404.673L401.851 393.4L399.507 397.443H406.792ZM405.357 388.781V403H402.066V388.781H405.357ZM411.079 396.662L408.462 396.047L409.322 388.781H417.632V391.34H412.007L411.685 394.162C411.841 394.071 412.105 393.964 412.476 393.84C412.853 393.71 413.27 393.645 413.726 393.645C414.429 393.645 415.051 393.752 415.591 393.967C416.138 394.175 416.6 394.484 416.978 394.895C417.355 395.298 417.639 395.796 417.827 396.389C418.023 396.981 418.12 397.658 418.12 398.42C418.12 399.032 418.02 399.624 417.818 400.197C417.622 400.764 417.32 401.275 416.909 401.73C416.506 402.18 415.995 402.538 415.376 402.805C414.758 403.065 414.025 403.195 413.179 403.195C412.548 403.195 411.932 403.098 411.333 402.902C410.734 402.707 410.194 402.427 409.712 402.062C409.237 401.691 408.859 401.245 408.579 400.725C408.306 400.197 408.173 399.608 408.179 398.957H411.49C411.509 399.302 411.59 399.602 411.734 399.855C411.877 400.109 412.069 400.308 412.31 400.451C412.557 400.588 412.84 400.656 413.159 400.656C413.485 400.656 413.755 400.591 413.97 400.461C414.185 400.331 414.354 400.152 414.478 399.924C414.602 399.696 414.689 399.436 414.742 399.143C414.794 398.843 414.82 398.527 414.82 398.195C414.82 397.844 414.781 397.528 414.702 397.248C414.631 396.968 414.514 396.73 414.351 396.535C414.188 396.333 413.977 396.18 413.716 396.076C413.462 395.972 413.156 395.92 412.798 395.92C412.323 395.92 411.949 396.001 411.675 396.164C411.402 396.327 411.203 396.493 411.079 396.662ZM419.878 392.268V391.516C419.878 390.975 419.995 390.484 420.23 390.041C420.464 389.598 420.816 389.243 421.284 388.977C421.753 388.71 422.336 388.576 423.033 388.576C423.749 388.576 424.341 388.71 424.81 388.977C425.279 389.243 425.627 389.598 425.855 390.041C426.089 390.484 426.206 390.975 426.206 391.516V392.268C426.206 392.795 426.089 393.28 425.855 393.723C425.627 394.165 425.279 394.52 424.81 394.787C424.348 395.054 423.765 395.188 423.062 395.188C422.352 395.188 421.763 395.054 421.294 394.787C420.826 394.52 420.471 394.165 420.23 393.723C419.995 393.28 419.878 392.795 419.878 392.268ZM421.988 391.516V392.268C421.988 392.463 422.027 392.648 422.105 392.824C422.183 393 422.3 393.143 422.456 393.254C422.619 393.358 422.818 393.41 423.052 393.41C423.293 393.41 423.488 393.358 423.638 393.254C423.788 393.143 423.898 393 423.97 392.824C424.048 392.648 424.087 392.463 424.087 392.268V391.516C424.087 391.307 424.048 391.115 423.97 390.939C423.898 390.764 423.784 390.624 423.628 390.52C423.472 390.409 423.273 390.354 423.033 390.354C422.805 390.354 422.613 390.409 422.456 390.52C422.3 390.624 422.183 390.764 422.105 390.939C422.027 391.115 421.988 391.307 421.988 391.516ZM426.626 400.266V399.514C426.626 398.98 426.743 398.492 426.978 398.049C427.219 397.606 427.574 397.251 428.042 396.984C428.518 396.717 429.103 396.584 429.8 396.584C430.516 396.584 431.105 396.717 431.568 396.984C432.036 397.251 432.385 397.606 432.613 398.049C432.847 398.492 432.964 398.98 432.964 399.514V400.266C432.964 400.799 432.847 401.288 432.613 401.73C432.385 402.173 432.04 402.528 431.577 402.795C431.115 403.062 430.533 403.195 429.829 403.195C429.12 403.195 428.527 403.062 428.052 402.795C427.577 402.528 427.219 402.173 426.978 401.73C426.743 401.288 426.626 400.799 426.626 400.266ZM428.745 399.514V400.266C428.745 400.467 428.794 400.656 428.892 400.832C428.99 401.008 429.12 401.151 429.283 401.262C429.445 401.366 429.624 401.418 429.82 401.418C430.119 401.418 430.34 401.366 430.484 401.262C430.633 401.151 430.731 401.008 430.777 400.832C430.829 400.656 430.855 400.467 430.855 400.266V399.514C430.855 399.312 430.816 399.123 430.738 398.947C430.659 398.771 430.542 398.632 430.386 398.527C430.23 398.417 430.034 398.361 429.8 398.361C429.566 398.361 429.37 398.417 429.214 398.527C429.058 398.632 428.941 398.771 428.863 398.947C428.784 399.123 428.745 399.312 428.745 399.514ZM430.62 390.822L423.677 401.936L422.144 401.164L429.087 390.051L430.62 390.822ZM445.74 391.625V403H444.232V391.625H445.74ZM451.56 403H449.185L449.201 401.773H451.56C452.372 401.773 453.049 401.604 453.591 401.266C454.133 400.922 454.539 400.443 454.81 399.828C455.086 399.208 455.224 398.484 455.224 397.656V396.961C455.224 396.31 455.146 395.732 454.99 395.227C454.833 394.716 454.604 394.286 454.302 393.938C454 393.583 453.63 393.315 453.193 393.133C452.76 392.951 452.263 392.859 451.701 392.859H449.138V391.625H451.701C452.445 391.625 453.125 391.75 453.74 392C454.354 392.245 454.883 392.602 455.326 393.07C455.773 393.534 456.117 394.096 456.357 394.758C456.596 395.414 456.716 396.154 456.716 396.977V397.656C456.716 398.479 456.596 399.221 456.357 399.883C456.117 400.539 455.771 401.099 455.318 401.562C454.87 402.026 454.328 402.383 453.693 402.633C453.062 402.878 452.352 403 451.56 403ZM449.99 391.625V403H448.482V391.625H449.99ZM467.74 396.953V397.672C467.74 398.526 467.633 399.292 467.419 399.969C467.206 400.646 466.898 401.221 466.497 401.695C466.096 402.169 465.615 402.531 465.052 402.781C464.495 403.031 463.87 403.156 463.177 403.156C462.505 403.156 461.888 403.031 461.326 402.781C460.768 402.531 460.284 402.169 459.872 401.695C459.466 401.221 459.151 400.646 458.927 399.969C458.703 399.292 458.591 398.526 458.591 397.672V396.953C458.591 396.099 458.701 395.336 458.919 394.664C459.143 393.987 459.458 393.411 459.865 392.938C460.271 392.458 460.753 392.094 461.31 391.844C461.872 391.594 462.49 391.469 463.161 391.469C463.854 391.469 464.479 391.594 465.036 391.844C465.599 392.094 466.081 392.458 466.482 392.938C466.888 393.411 467.198 393.987 467.411 394.664C467.63 395.336 467.74 396.099 467.74 396.953ZM466.247 397.672V396.938C466.247 396.26 466.177 395.661 466.036 395.141C465.901 394.62 465.701 394.182 465.435 393.828C465.169 393.474 464.844 393.206 464.458 393.023C464.078 392.841 463.646 392.75 463.161 392.75C462.693 392.75 462.268 392.841 461.888 393.023C461.513 393.206 461.19 393.474 460.919 393.828C460.654 394.182 460.448 394.62 460.302 395.141C460.156 395.661 460.083 396.26 460.083 396.938V397.672C460.083 398.354 460.156 398.958 460.302 399.484C460.448 400.005 460.656 400.445 460.927 400.805C461.203 401.159 461.529 401.427 461.904 401.609C462.284 401.792 462.708 401.883 463.177 401.883C463.667 401.883 464.102 401.792 464.482 401.609C464.862 401.427 465.182 401.159 465.443 400.805C465.708 400.445 465.909 400.005 466.044 399.484C466.18 398.958 466.247 398.354 466.247 397.672Z" fill="white" fill-opacity="0.7"/>
<ellipse cx="371.279" cy="508.5" rx="5.27874" ry="5.5" fill="#00EAFF"/>
<path d="M404.634 512.461V515H394.712V512.852L399.283 508.047C399.686 507.585 400.012 507.171 400.259 506.807C400.506 506.436 400.686 506.1 400.796 505.801C400.913 505.501 400.972 505.231 400.972 504.99C400.972 504.58 400.91 504.238 400.786 503.965C400.669 503.685 400.493 503.473 400.259 503.33C400.031 503.187 399.748 503.115 399.409 503.115C399.071 503.115 398.775 503.213 398.521 503.408C398.267 503.604 398.068 503.87 397.925 504.209C397.788 504.548 397.72 504.928 397.72 505.352H394.419C394.419 504.479 394.631 503.682 395.054 502.959C395.484 502.236 396.079 501.66 396.841 501.23C397.603 500.794 398.485 500.576 399.488 500.576C400.536 500.576 401.415 500.739 402.124 501.064C402.834 501.39 403.368 501.862 403.726 502.48C404.09 503.092 404.273 503.831 404.273 504.697C404.273 505.192 404.195 505.667 404.038 506.123C403.882 506.579 403.658 507.031 403.365 507.48C403.072 507.923 402.714 508.379 402.29 508.848C401.874 509.316 401.398 509.814 400.865 510.342L399.029 512.461H404.634ZM406.577 513.457C406.577 512.988 406.747 512.598 407.085 512.285C407.424 511.966 407.86 511.807 408.394 511.807C408.934 511.807 409.37 511.966 409.702 512.285C410.041 512.598 410.21 512.988 410.21 513.457C410.21 513.926 410.041 514.32 409.702 514.639C409.37 514.951 408.934 515.107 408.394 515.107C407.86 515.107 407.424 514.951 407.085 514.639C406.747 514.32 406.577 513.926 406.577 513.457ZM415.181 508.662L412.564 508.047L413.423 500.781H421.734V503.34H416.109L415.786 506.162C415.943 506.071 416.206 505.964 416.577 505.84C416.955 505.71 417.372 505.645 417.827 505.645C418.531 505.645 419.152 505.752 419.693 505.967C420.24 506.175 420.702 506.484 421.079 506.895C421.457 507.298 421.74 507.796 421.929 508.389C422.124 508.981 422.222 509.658 422.222 510.42C422.222 511.032 422.121 511.624 421.919 512.197C421.724 512.764 421.421 513.275 421.011 513.73C420.607 514.18 420.096 514.538 419.478 514.805C418.859 515.065 418.127 515.195 417.281 515.195C416.649 515.195 416.034 515.098 415.435 514.902C414.836 514.707 414.296 514.427 413.814 514.062C413.339 513.691 412.961 513.245 412.681 512.725C412.408 512.197 412.274 511.608 412.281 510.957H415.591C415.611 511.302 415.692 511.602 415.835 511.855C415.978 512.109 416.171 512.308 416.411 512.451C416.659 512.588 416.942 512.656 417.261 512.656C417.587 512.656 417.857 512.591 418.072 512.461C418.286 512.331 418.456 512.152 418.579 511.924C418.703 511.696 418.791 511.436 418.843 511.143C418.895 510.843 418.921 510.527 418.921 510.195C418.921 509.844 418.882 509.528 418.804 509.248C418.732 508.968 418.615 508.73 418.452 508.535C418.29 508.333 418.078 508.18 417.818 508.076C417.564 507.972 417.258 507.92 416.9 507.92C416.424 507.92 416.05 508.001 415.777 508.164C415.503 508.327 415.305 508.493 415.181 508.662ZM423.98 504.268V503.516C423.98 502.975 424.097 502.484 424.331 502.041C424.566 501.598 424.917 501.243 425.386 500.977C425.855 500.71 426.437 500.576 427.134 500.576C427.85 500.576 428.443 500.71 428.911 500.977C429.38 501.243 429.728 501.598 429.956 502.041C430.191 502.484 430.308 502.975 430.308 503.516V504.268C430.308 504.795 430.191 505.28 429.956 505.723C429.728 506.165 429.38 506.52 428.911 506.787C428.449 507.054 427.867 507.188 427.163 507.188C426.454 507.188 425.865 507.054 425.396 506.787C424.927 506.52 424.572 506.165 424.331 505.723C424.097 505.28 423.98 504.795 423.98 504.268ZM426.089 503.516V504.268C426.089 504.463 426.128 504.648 426.206 504.824C426.284 505 426.402 505.143 426.558 505.254C426.721 505.358 426.919 505.41 427.154 505.41C427.395 505.41 427.59 505.358 427.74 505.254C427.889 505.143 428 505 428.072 504.824C428.15 504.648 428.189 504.463 428.189 504.268V503.516C428.189 503.307 428.15 503.115 428.072 502.939C428 502.764 427.886 502.624 427.73 502.52C427.574 502.409 427.375 502.354 427.134 502.354C426.906 502.354 426.714 502.409 426.558 502.52C426.402 502.624 426.284 502.764 426.206 502.939C426.128 503.115 426.089 503.307 426.089 503.516ZM430.728 512.266V511.514C430.728 510.98 430.845 510.492 431.079 510.049C431.32 509.606 431.675 509.251 432.144 508.984C432.619 508.717 433.205 508.584 433.902 508.584C434.618 508.584 435.207 508.717 435.669 508.984C436.138 509.251 436.486 509.606 436.714 510.049C436.949 510.492 437.066 510.98 437.066 511.514V512.266C437.066 512.799 436.949 513.288 436.714 513.73C436.486 514.173 436.141 514.528 435.679 514.795C435.217 515.062 434.634 515.195 433.931 515.195C433.221 515.195 432.629 515.062 432.154 514.795C431.678 514.528 431.32 514.173 431.079 513.73C430.845 513.288 430.728 512.799 430.728 512.266ZM432.847 511.514V512.266C432.847 512.467 432.896 512.656 432.993 512.832C433.091 513.008 433.221 513.151 433.384 513.262C433.547 513.366 433.726 513.418 433.921 513.418C434.221 513.418 434.442 513.366 434.585 513.262C434.735 513.151 434.833 513.008 434.878 512.832C434.93 512.656 434.956 512.467 434.956 512.266V511.514C434.956 511.312 434.917 511.123 434.839 510.947C434.761 510.771 434.644 510.632 434.488 510.527C434.331 510.417 434.136 510.361 433.902 510.361C433.667 510.361 433.472 510.417 433.316 510.527C433.159 510.632 433.042 510.771 432.964 510.947C432.886 511.123 432.847 511.312 432.847 511.514ZM434.722 502.822L427.779 513.936L426.245 513.164L433.189 502.051L434.722 502.822ZM395.63 522.625H397.091L400.818 531.898L404.536 522.625H406.005L401.38 534H400.24L395.63 522.625ZM395.154 522.625H396.443L396.654 529.562V534H395.154V522.625ZM405.185 522.625H406.474V534H404.974V529.562L405.185 522.625ZM413.474 523.633L409.708 534H408.169L412.505 522.625H413.497L413.474 523.633ZM416.63 534L412.857 523.633L412.833 522.625H413.826L418.177 534H416.63ZM416.435 529.789V531.023H410.044V529.789H416.435ZM419.701 522.625H423.466C424.32 522.625 425.042 522.755 425.63 523.016C426.224 523.276 426.674 523.661 426.982 524.172C427.294 524.677 427.451 525.299 427.451 526.039C427.451 526.56 427.344 527.036 427.13 527.469C426.922 527.896 426.62 528.26 426.224 528.562C425.833 528.859 425.365 529.081 424.818 529.227L424.396 529.391H420.857L420.841 528.164H423.513C424.055 528.164 424.505 528.07 424.865 527.883C425.224 527.69 425.495 527.432 425.677 527.109C425.859 526.786 425.951 526.43 425.951 526.039C425.951 525.602 425.865 525.219 425.693 524.891C425.521 524.562 425.25 524.31 424.88 524.133C424.516 523.951 424.044 523.859 423.466 523.859H421.208V534H419.701V522.625ZM426.349 534L423.583 528.844L425.154 528.836L427.958 533.906V534H426.349ZM431.068 522.625V534H429.56V522.625H431.068ZM437.935 522.625L433.208 527.93L430.552 530.688L430.302 529.078L432.302 526.875L436.122 522.625H437.935ZM436.482 534L432.271 528.453L433.169 527.258L438.279 534H436.482ZM446.833 532.773V534H440.81V532.773H446.833ZM441.115 522.625V534H439.607V522.625H441.115ZM446.036 527.516V528.742H440.81V527.516H446.036ZM446.755 522.625V523.859H440.81V522.625H446.755ZM453.06 522.625V534H451.576V522.625H453.06ZM456.716 522.625V523.859H447.927V522.625H456.716ZM460.021 522.625V534H458.513V522.625H460.021ZM471.513 522.625V534H469.997L464.271 525.227V534H462.763V522.625H464.271L470.021 531.422V522.625H471.513ZM482.591 528.336V532.5C482.451 532.708 482.227 532.943 481.919 533.203C481.612 533.458 481.187 533.682 480.646 533.875C480.109 534.062 479.417 534.156 478.568 534.156C477.875 534.156 477.237 534.036 476.654 533.797C476.076 533.552 475.573 533.198 475.146 532.734C474.724 532.266 474.396 531.698 474.161 531.031C473.932 530.359 473.818 529.599 473.818 528.75V527.867C473.818 527.018 473.917 526.26 474.115 525.594C474.318 524.927 474.615 524.362 475.005 523.898C475.396 523.43 475.875 523.076 476.443 522.836C477.01 522.591 477.661 522.469 478.396 522.469C479.266 522.469 479.992 522.62 480.576 522.922C481.164 523.219 481.622 523.63 481.951 524.156C482.284 524.682 482.497 525.281 482.591 525.953H481.083C481.016 525.542 480.88 525.167 480.677 524.828C480.479 524.49 480.195 524.219 479.826 524.016C479.456 523.807 478.979 523.703 478.396 523.703C477.87 523.703 477.414 523.799 477.029 523.992C476.643 524.185 476.326 524.461 476.076 524.82C475.826 525.18 475.638 525.615 475.513 526.125C475.393 526.635 475.333 527.211 475.333 527.852V528.75C475.333 529.406 475.409 529.992 475.56 530.508C475.716 531.023 475.937 531.464 476.224 531.828C476.51 532.188 476.852 532.461 477.247 532.648C477.648 532.836 478.091 532.93 478.576 532.93C479.112 532.93 479.547 532.885 479.88 532.797C480.214 532.703 480.474 532.594 480.661 532.469C480.849 532.339 480.992 532.216 481.091 532.102V529.555H478.458V528.336H482.591Z" fill="white" fill-opacity="0.7"/>
<circle cx="128.5" cy="567.5" r="5.5" fill="#010002"/>
<path d="M162.801 571.461V574H152.879V571.852L157.449 567.047C157.853 566.585 158.178 566.171 158.426 565.807C158.673 565.436 158.852 565.1 158.963 564.801C159.08 564.501 159.139 564.231 159.139 563.99C159.139 563.58 159.077 563.238 158.953 562.965C158.836 562.685 158.66 562.473 158.426 562.33C158.198 562.187 157.915 562.115 157.576 562.115C157.238 562.115 156.941 562.213 156.688 562.408C156.434 562.604 156.235 562.87 156.092 563.209C155.955 563.548 155.887 563.928 155.887 564.352H152.586C152.586 563.479 152.798 562.682 153.221 561.959C153.65 561.236 154.246 560.66 155.008 560.23C155.77 559.794 156.652 559.576 157.654 559.576C158.702 559.576 159.581 559.739 160.291 560.064C161.001 560.39 161.535 560.862 161.893 561.48C162.257 562.092 162.439 562.831 162.439 563.697C162.439 564.192 162.361 564.667 162.205 565.123C162.049 565.579 161.824 566.031 161.531 566.48C161.238 566.923 160.88 567.379 160.457 567.848C160.04 568.316 159.565 568.814 159.031 569.342L157.195 571.461H162.801ZM164.744 572.457C164.744 571.988 164.913 571.598 165.252 571.285C165.59 570.966 166.027 570.807 166.561 570.807C167.101 570.807 167.537 570.966 167.869 571.285C168.208 571.598 168.377 571.988 168.377 572.457C168.377 572.926 168.208 573.32 167.869 573.639C167.537 573.951 167.101 574.107 166.561 574.107C166.027 574.107 165.59 573.951 165.252 573.639C164.913 573.32 164.744 572.926 164.744 572.457ZM180.408 565.592V568.189C180.408 569.212 180.288 570.1 180.047 570.855C179.812 571.611 179.474 572.236 179.031 572.73C178.595 573.225 178.074 573.593 177.469 573.834C176.863 574.075 176.196 574.195 175.467 574.195C174.881 574.195 174.334 574.12 173.826 573.971C173.318 573.814 172.859 573.58 172.449 573.268C172.046 572.949 171.697 572.551 171.404 572.076C171.111 571.601 170.887 571.041 170.73 570.396C170.574 569.745 170.496 569.01 170.496 568.189V565.592C170.496 564.563 170.613 563.674 170.848 562.926C171.089 562.171 171.43 561.546 171.873 561.051C172.316 560.556 172.84 560.188 173.445 559.947C174.051 559.706 174.718 559.586 175.447 559.586C176.033 559.586 176.577 559.664 177.078 559.82C177.586 559.97 178.045 560.204 178.455 560.523C178.865 560.836 179.214 561.23 179.5 561.705C179.793 562.18 180.018 562.743 180.174 563.395C180.33 564.039 180.408 564.771 180.408 565.592ZM177.117 568.59V565.172C177.117 564.716 177.091 564.319 177.039 563.98C176.993 563.642 176.922 563.355 176.824 563.121C176.733 562.887 176.619 562.698 176.482 562.555C176.346 562.405 176.189 562.298 176.014 562.232C175.844 562.161 175.656 562.125 175.447 562.125C175.187 562.125 174.952 562.18 174.744 562.291C174.542 562.395 174.37 562.564 174.227 562.799C174.083 563.033 173.973 563.346 173.895 563.736C173.823 564.127 173.787 564.605 173.787 565.172V568.59C173.787 569.052 173.81 569.456 173.855 569.801C173.908 570.139 173.979 570.429 174.07 570.67C174.168 570.904 174.285 571.096 174.422 571.246C174.559 571.389 174.715 571.493 174.891 571.559C175.066 571.624 175.258 571.656 175.467 571.656C175.721 571.656 175.949 571.604 176.15 571.5C176.352 571.396 176.525 571.227 176.668 570.992C176.818 570.751 176.928 570.436 177 570.045C177.078 569.648 177.117 569.163 177.117 568.59ZM182.146 563.268V562.516C182.146 561.975 182.264 561.484 182.498 561.041C182.732 560.598 183.084 560.243 183.553 559.977C184.021 559.71 184.604 559.576 185.301 559.576C186.017 559.576 186.609 559.71 187.078 559.977C187.547 560.243 187.895 560.598 188.123 561.041C188.357 561.484 188.475 561.975 188.475 562.516V563.268C188.475 563.795 188.357 564.28 188.123 564.723C187.895 565.165 187.547 565.52 187.078 565.787C186.616 566.054 186.033 566.188 185.33 566.188C184.62 566.188 184.031 566.054 183.562 565.787C183.094 565.52 182.739 565.165 182.498 564.723C182.264 564.28 182.146 563.795 182.146 563.268ZM184.256 562.516V563.268C184.256 563.463 184.295 563.648 184.373 563.824C184.451 564 184.568 564.143 184.725 564.254C184.887 564.358 185.086 564.41 185.32 564.41C185.561 564.41 185.757 564.358 185.906 564.254C186.056 564.143 186.167 564 186.238 563.824C186.316 563.648 186.355 563.463 186.355 563.268V562.516C186.355 562.307 186.316 562.115 186.238 561.939C186.167 561.764 186.053 561.624 185.896 561.52C185.74 561.409 185.542 561.354 185.301 561.354C185.073 561.354 184.881 561.409 184.725 561.52C184.568 561.624 184.451 561.764 184.373 561.939C184.295 562.115 184.256 562.307 184.256 562.516ZM188.895 571.266V570.514C188.895 569.98 189.012 569.492 189.246 569.049C189.487 568.606 189.842 568.251 190.311 567.984C190.786 567.717 191.372 567.584 192.068 567.584C192.785 567.584 193.374 567.717 193.836 567.984C194.305 568.251 194.653 568.606 194.881 569.049C195.115 569.492 195.232 569.98 195.232 570.514V571.266C195.232 571.799 195.115 572.288 194.881 572.73C194.653 573.173 194.308 573.528 193.846 573.795C193.383 574.062 192.801 574.195 192.098 574.195C191.388 574.195 190.796 574.062 190.32 573.795C189.845 573.528 189.487 573.173 189.246 572.73C189.012 572.288 188.895 571.799 188.895 571.266ZM191.014 570.514V571.266C191.014 571.467 191.062 571.656 191.16 571.832C191.258 572.008 191.388 572.151 191.551 572.262C191.714 572.366 191.893 572.418 192.088 572.418C192.387 572.418 192.609 572.366 192.752 572.262C192.902 572.151 192.999 572.008 193.045 571.832C193.097 571.656 193.123 571.467 193.123 571.266V570.514C193.123 570.312 193.084 570.123 193.006 569.947C192.928 569.771 192.811 569.632 192.654 569.527C192.498 569.417 192.303 569.361 192.068 569.361C191.834 569.361 191.639 569.417 191.482 569.527C191.326 569.632 191.209 569.771 191.131 569.947C191.053 570.123 191.014 570.312 191.014 570.514ZM192.889 561.822L185.945 572.936L184.412 572.164L191.355 561.051L192.889 561.822ZM156.398 593H154.023L154.039 591.773H156.398C157.211 591.773 157.888 591.604 158.43 591.266C158.971 590.922 159.378 590.443 159.648 589.828C159.924 589.208 160.062 588.484 160.062 587.656V586.961C160.062 586.31 159.984 585.732 159.828 585.227C159.672 584.716 159.443 584.286 159.141 583.938C158.839 583.583 158.469 583.315 158.031 583.133C157.599 582.951 157.102 582.859 156.539 582.859H153.977V581.625H156.539C157.284 581.625 157.964 581.75 158.578 582C159.193 582.245 159.721 582.602 160.164 583.07C160.612 583.534 160.956 584.096 161.195 584.758C161.435 585.414 161.555 586.154 161.555 586.977V587.656C161.555 588.479 161.435 589.221 161.195 589.883C160.956 590.539 160.609 591.099 160.156 591.562C159.708 592.026 159.167 592.383 158.531 592.633C157.901 592.878 157.19 593 156.398 593ZM154.828 581.625V593H153.32V581.625H154.828ZM171.047 591.773V593H165.023V591.773H171.047ZM165.328 581.625V593H163.82V581.625H165.328ZM170.25 586.516V587.742H165.023V586.516H170.25ZM170.969 581.625V582.859H165.023V581.625H170.969ZM176.586 591.273L179.938 581.625H181.57L177.359 593H176.195L176.586 591.273ZM173.453 581.625L176.773 591.273L177.188 593H176.023L171.82 581.625H173.453ZM190.328 591.773V593H184.305V591.773H190.328ZM184.609 581.625V593H183.102V581.625H184.609ZM189.531 586.516V587.742H184.305V586.516H189.531ZM190.25 581.625V582.859H184.305V581.625H190.25ZM199.094 591.773V593H193.406V591.773H199.094ZM193.703 581.625V593H192.195V581.625H193.703ZM209.062 586.953V587.672C209.062 588.526 208.956 589.292 208.742 589.969C208.529 590.646 208.221 591.221 207.82 591.695C207.419 592.169 206.938 592.531 206.375 592.781C205.818 593.031 205.193 593.156 204.5 593.156C203.828 593.156 203.211 593.031 202.648 592.781C202.091 592.531 201.607 592.169 201.195 591.695C200.789 591.221 200.474 590.646 200.25 589.969C200.026 589.292 199.914 588.526 199.914 587.672V586.953C199.914 586.099 200.023 585.336 200.242 584.664C200.466 583.987 200.781 583.411 201.188 582.938C201.594 582.458 202.076 582.094 202.633 581.844C203.195 581.594 203.812 581.469 204.484 581.469C205.177 581.469 205.802 581.594 206.359 581.844C206.922 582.094 207.404 582.458 207.805 582.938C208.211 583.411 208.521 583.987 208.734 584.664C208.953 585.336 209.062 586.099 209.062 586.953ZM207.57 587.672V586.938C207.57 586.26 207.5 585.661 207.359 585.141C207.224 584.62 207.023 584.182 206.758 583.828C206.492 583.474 206.167 583.206 205.781 583.023C205.401 582.841 204.969 582.75 204.484 582.75C204.016 582.75 203.591 582.841 203.211 583.023C202.836 583.206 202.513 583.474 202.242 583.828C201.977 584.182 201.771 584.62 201.625 585.141C201.479 585.661 201.406 586.26 201.406 586.938V587.672C201.406 588.354 201.479 588.958 201.625 589.484C201.771 590.005 201.979 590.445 202.25 590.805C202.526 591.159 202.852 591.427 203.227 591.609C203.607 591.792 204.031 591.883 204.5 591.883C204.99 591.883 205.424 591.792 205.805 591.609C206.185 591.427 206.505 591.159 206.766 590.805C207.031 590.445 207.232 590.005 207.367 589.484C207.503 588.958 207.57 588.354 207.57 587.672ZM215.516 588.539H212.477V587.312H215.516C216.104 587.312 216.581 587.219 216.945 587.031C217.31 586.844 217.576 586.583 217.742 586.25C217.914 585.917 218 585.536 218 585.109C218 584.719 217.914 584.352 217.742 584.008C217.576 583.664 217.31 583.388 216.945 583.18C216.581 582.966 216.104 582.859 215.516 582.859H212.828V593H211.32V581.625H215.516C216.375 581.625 217.102 581.773 217.695 582.07C218.289 582.367 218.74 582.779 219.047 583.305C219.354 583.826 219.508 584.422 219.508 585.094C219.508 585.823 219.354 586.445 219.047 586.961C218.74 587.477 218.289 587.87 217.695 588.141C217.102 588.406 216.375 588.539 215.516 588.539ZM221.891 581.625H223.352L227.078 590.898L230.797 581.625H232.266L227.641 593H226.5L221.891 581.625ZM221.414 581.625H222.703L222.914 588.562V593H221.414V581.625ZM231.445 581.625H232.734V593H231.234V588.562L231.445 581.625ZM242.609 591.773V593H236.586V591.773H242.609ZM236.891 581.625V593H235.383V581.625H236.891ZM241.812 586.516V587.742H236.586V586.516H241.812ZM242.531 581.625V582.859H236.586V581.625H242.531ZM253.227 581.625V593H251.711L245.984 584.227V593H244.477V581.625H245.984L251.734 590.422V581.625H253.227ZM259.867 581.625V593H258.383V581.625H259.867ZM263.523 581.625V582.859H254.734V581.625H263.523Z" fill="white" fill-opacity="0.7"/>
<circle cx="371.5" cy="454.5" r="5.5" fill="#E617DB"/>
<path d="M398.877 454.514H400.479C400.889 454.514 401.224 454.442 401.484 454.299C401.751 454.149 401.95 453.941 402.08 453.674C402.21 453.4 402.275 453.078 402.275 452.707C402.275 452.421 402.214 452.157 402.09 451.916C401.973 451.675 401.79 451.483 401.543 451.34C401.296 451.19 400.98 451.115 400.596 451.115C400.335 451.115 400.081 451.171 399.834 451.281C399.587 451.385 399.382 451.535 399.219 451.73C399.062 451.926 398.984 452.163 398.984 452.443H395.684C395.684 451.636 395.905 450.946 396.348 450.373C396.797 449.794 397.386 449.351 398.115 449.045C398.851 448.732 399.642 448.576 400.488 448.576C401.497 448.576 402.383 448.732 403.145 449.045C403.906 449.351 404.499 449.807 404.922 450.412C405.352 451.011 405.566 451.753 405.566 452.639C405.566 453.127 405.452 453.586 405.225 454.016C404.997 454.445 404.678 454.823 404.268 455.148C403.857 455.474 403.376 455.731 402.822 455.92C402.275 456.102 401.676 456.193 401.025 456.193H398.877V454.514ZM398.877 456.965V455.324H401.025C401.735 455.324 402.383 455.406 402.969 455.568C403.555 455.725 404.059 455.959 404.482 456.271C404.906 456.584 405.231 456.971 405.459 457.434C405.687 457.889 405.801 458.413 405.801 459.006C405.801 459.67 405.667 460.262 405.4 460.783C405.133 461.304 404.759 461.743 404.277 462.102C403.796 462.46 403.232 462.733 402.588 462.922C401.943 463.104 401.243 463.195 400.488 463.195C399.896 463.195 399.303 463.117 398.711 462.961C398.118 462.798 397.578 462.551 397.09 462.219C396.602 461.88 396.208 461.451 395.908 460.93C395.615 460.402 395.469 459.774 395.469 459.045H398.77C398.77 459.344 398.851 459.618 399.014 459.865C399.183 460.106 399.408 460.298 399.688 460.441C399.967 460.585 400.27 460.656 400.596 460.656C400.999 460.656 401.341 460.581 401.621 460.432C401.908 460.275 402.126 460.067 402.275 459.807C402.425 459.546 402.5 459.257 402.5 458.938C402.5 458.456 402.419 458.072 402.256 457.785C402.1 457.499 401.868 457.29 401.562 457.16C401.263 457.03 400.902 456.965 400.479 456.965H398.877ZM407.744 461.457C407.744 460.988 407.913 460.598 408.252 460.285C408.59 459.966 409.027 459.807 409.561 459.807C410.101 459.807 410.537 459.966 410.869 460.285C411.208 460.598 411.377 460.988 411.377 461.457C411.377 461.926 411.208 462.32 410.869 462.639C410.537 462.951 410.101 463.107 409.561 463.107C409.027 463.107 408.59 462.951 408.252 462.639C407.913 462.32 407.744 461.926 407.744 461.457ZM423.408 454.592V457.189C423.408 458.212 423.288 459.1 423.047 459.855C422.812 460.611 422.474 461.236 422.031 461.73C421.595 462.225 421.074 462.593 420.469 462.834C419.863 463.075 419.196 463.195 418.467 463.195C417.881 463.195 417.334 463.12 416.826 462.971C416.318 462.814 415.859 462.58 415.449 462.268C415.046 461.949 414.697 461.551 414.404 461.076C414.111 460.601 413.887 460.041 413.73 459.396C413.574 458.745 413.496 458.01 413.496 457.189V454.592C413.496 453.563 413.613 452.674 413.848 451.926C414.089 451.171 414.43 450.546 414.873 450.051C415.316 449.556 415.84 449.188 416.445 448.947C417.051 448.706 417.718 448.586 418.447 448.586C419.033 448.586 419.577 448.664 420.078 448.82C420.586 448.97 421.045 449.204 421.455 449.523C421.865 449.836 422.214 450.23 422.5 450.705C422.793 451.18 423.018 451.743 423.174 452.395C423.33 453.039 423.408 453.771 423.408 454.592ZM420.117 457.59V454.172C420.117 453.716 420.091 453.319 420.039 452.98C419.993 452.642 419.922 452.355 419.824 452.121C419.733 451.887 419.619 451.698 419.482 451.555C419.346 451.405 419.189 451.298 419.014 451.232C418.844 451.161 418.656 451.125 418.447 451.125C418.187 451.125 417.952 451.18 417.744 451.291C417.542 451.395 417.37 451.564 417.227 451.799C417.083 452.033 416.973 452.346 416.895 452.736C416.823 453.127 416.787 453.605 416.787 454.172V457.59C416.787 458.052 416.81 458.456 416.855 458.801C416.908 459.139 416.979 459.429 417.07 459.67C417.168 459.904 417.285 460.096 417.422 460.246C417.559 460.389 417.715 460.493 417.891 460.559C418.066 460.624 418.258 460.656 418.467 460.656C418.721 460.656 418.949 460.604 419.15 460.5C419.352 460.396 419.525 460.227 419.668 459.992C419.818 459.751 419.928 459.436 420 459.045C420.078 458.648 420.117 458.163 420.117 457.59ZM425.146 452.268V451.516C425.146 450.975 425.264 450.484 425.498 450.041C425.732 449.598 426.084 449.243 426.553 448.977C427.021 448.71 427.604 448.576 428.301 448.576C429.017 448.576 429.609 448.71 430.078 448.977C430.547 449.243 430.895 449.598 431.123 450.041C431.357 450.484 431.475 450.975 431.475 451.516V452.268C431.475 452.795 431.357 453.28 431.123 453.723C430.895 454.165 430.547 454.52 430.078 454.787C429.616 455.054 429.033 455.188 428.33 455.188C427.62 455.188 427.031 455.054 426.562 454.787C426.094 454.52 425.739 454.165 425.498 453.723C425.264 453.28 425.146 452.795 425.146 452.268ZM427.256 451.516V452.268C427.256 452.463 427.295 452.648 427.373 452.824C427.451 453 427.568 453.143 427.725 453.254C427.887 453.358 428.086 453.41 428.32 453.41C428.561 453.41 428.757 453.358 428.906 453.254C429.056 453.143 429.167 453 429.238 452.824C429.316 452.648 429.355 452.463 429.355 452.268V451.516C429.355 451.307 429.316 451.115 429.238 450.939C429.167 450.764 429.053 450.624 428.896 450.52C428.74 450.409 428.542 450.354 428.301 450.354C428.073 450.354 427.881 450.409 427.725 450.52C427.568 450.624 427.451 450.764 427.373 450.939C427.295 451.115 427.256 451.307 427.256 451.516ZM431.895 460.266V459.514C431.895 458.98 432.012 458.492 432.246 458.049C432.487 457.606 432.842 457.251 433.311 456.984C433.786 456.717 434.372 456.584 435.068 456.584C435.785 456.584 436.374 456.717 436.836 456.984C437.305 457.251 437.653 457.606 437.881 458.049C438.115 458.492 438.232 458.98 438.232 459.514V460.266C438.232 460.799 438.115 461.288 437.881 461.73C437.653 462.173 437.308 462.528 436.846 462.795C436.383 463.062 435.801 463.195 435.098 463.195C434.388 463.195 433.796 463.062 433.32 462.795C432.845 462.528 432.487 462.173 432.246 461.73C432.012 461.288 431.895 460.799 431.895 460.266ZM434.014 459.514V460.266C434.014 460.467 434.062 460.656 434.16 460.832C434.258 461.008 434.388 461.151 434.551 461.262C434.714 461.366 434.893 461.418 435.088 461.418C435.387 461.418 435.609 461.366 435.752 461.262C435.902 461.151 435.999 461.008 436.045 460.832C436.097 460.656 436.123 460.467 436.123 460.266V459.514C436.123 459.312 436.084 459.123 436.006 458.947C435.928 458.771 435.811 458.632 435.654 458.527C435.498 458.417 435.303 458.361 435.068 458.361C434.834 458.361 434.639 458.417 434.482 458.527C434.326 458.632 434.209 458.771 434.131 458.947C434.053 459.123 434.014 459.312 434.014 459.514ZM435.889 450.822L428.945 461.936L427.412 461.164L434.355 450.051L435.889 450.822ZM453.445 457.68H450.562L450.547 456.469H453.164C453.596 456.469 453.974 456.396 454.297 456.25C454.62 456.104 454.87 455.896 455.047 455.625C455.229 455.349 455.32 455.021 455.32 454.641C455.32 454.224 455.24 453.885 455.078 453.625C454.922 453.359 454.68 453.167 454.352 453.047C454.029 452.922 453.617 452.859 453.117 452.859H450.898V463H449.391V451.625H453.117C453.701 451.625 454.221 451.685 454.68 451.805C455.138 451.919 455.526 452.102 455.844 452.352C456.167 452.596 456.411 452.909 456.578 453.289C456.745 453.669 456.828 454.125 456.828 454.656C456.828 455.125 456.708 455.549 456.469 455.93C456.229 456.305 455.896 456.612 455.469 456.852C455.047 457.091 454.552 457.245 453.984 457.312L453.445 457.68ZM453.375 463H449.969L450.82 461.773H453.375C453.854 461.773 454.26 461.69 454.594 461.523C454.932 461.357 455.19 461.122 455.367 460.82C455.544 460.513 455.633 460.151 455.633 459.734C455.633 459.312 455.557 458.948 455.406 458.641C455.255 458.333 455.018 458.096 454.695 457.93C454.372 457.763 453.956 457.68 453.445 457.68H451.297L451.312 456.469H454.25L454.57 456.906C455.117 456.953 455.581 457.109 455.961 457.375C456.341 457.635 456.63 457.969 456.828 458.375C457.031 458.781 457.133 459.229 457.133 459.719C457.133 460.427 456.977 461.026 456.664 461.516C456.357 462 455.922 462.37 455.359 462.625C454.797 462.875 454.135 463 453.375 463ZM465.867 451.625H467.367V459.32C467.367 460.174 467.177 460.885 466.797 461.453C466.417 462.021 465.911 462.448 465.281 462.734C464.656 463.016 463.977 463.156 463.242 463.156C462.471 463.156 461.773 463.016 461.148 462.734C460.529 462.448 460.036 462.021 459.672 461.453C459.312 460.885 459.133 460.174 459.133 459.32V451.625H460.625V459.32C460.625 459.914 460.734 460.404 460.953 460.789C461.172 461.174 461.477 461.461 461.867 461.648C462.263 461.836 462.721 461.93 463.242 461.93C463.768 461.93 464.227 461.836 464.617 461.648C465.013 461.461 465.32 461.174 465.539 460.789C465.758 460.404 465.867 459.914 465.867 459.32V451.625ZM469.734 451.625H473.5C474.354 451.625 475.076 451.755 475.664 452.016C476.258 452.276 476.708 452.661 477.016 453.172C477.328 453.677 477.484 454.299 477.484 455.039C477.484 455.56 477.378 456.036 477.164 456.469C476.956 456.896 476.654 457.26 476.258 457.562C475.867 457.859 475.398 458.081 474.852 458.227L474.43 458.391H470.891L470.875 457.164H473.547C474.089 457.164 474.539 457.07 474.898 456.883C475.258 456.69 475.529 456.432 475.711 456.109C475.893 455.786 475.984 455.43 475.984 455.039C475.984 454.602 475.898 454.219 475.727 453.891C475.555 453.562 475.284 453.31 474.914 453.133C474.549 452.951 474.078 452.859 473.5 452.859H471.242V463H469.734V451.625ZM476.383 463L473.617 457.844L475.188 457.836L477.992 462.906V463H476.383ZM488.344 451.625V463H486.828L481.102 454.227V463H479.594V451.625H481.102L486.852 460.422V451.625H488.344Z" fill="white" fill-opacity="0.7"/>
<circle cx="129.5" cy="508.5" r="5.5" fill="#172941"/>
<path d="M163.801 514.461V517H153.879V514.852L158.449 510.047C158.853 509.585 159.178 509.171 159.426 508.807C159.673 508.436 159.852 508.1 159.963 507.801C160.08 507.501 160.139 507.231 160.139 506.99C160.139 506.58 160.077 506.238 159.953 505.965C159.836 505.685 159.66 505.473 159.426 505.33C159.198 505.187 158.915 505.115 158.576 505.115C158.238 505.115 157.941 505.213 157.688 505.408C157.434 505.604 157.235 505.87 157.092 506.209C156.955 506.548 156.887 506.928 156.887 507.352H153.586C153.586 506.479 153.798 505.682 154.221 504.959C154.65 504.236 155.246 503.66 156.008 503.23C156.77 502.794 157.652 502.576 158.654 502.576C159.702 502.576 160.581 502.739 161.291 503.064C162.001 503.39 162.535 503.862 162.893 504.48C163.257 505.092 163.439 505.831 163.439 506.697C163.439 507.192 163.361 507.667 163.205 508.123C163.049 508.579 162.824 509.031 162.531 509.48C162.238 509.923 161.88 510.379 161.457 510.848C161.04 511.316 160.565 511.814 160.031 512.342L158.195 514.461H163.801ZM165.744 515.457C165.744 514.988 165.913 514.598 166.252 514.285C166.59 513.966 167.027 513.807 167.561 513.807C168.101 513.807 168.537 513.966 168.869 514.285C169.208 514.598 169.377 514.988 169.377 515.457C169.377 515.926 169.208 516.32 168.869 516.639C168.537 516.951 168.101 517.107 167.561 517.107C167.027 517.107 166.59 516.951 166.252 516.639C165.913 516.32 165.744 515.926 165.744 515.457ZM181.408 508.592V511.189C181.408 512.212 181.288 513.1 181.047 513.855C180.812 514.611 180.474 515.236 180.031 515.73C179.595 516.225 179.074 516.593 178.469 516.834C177.863 517.075 177.196 517.195 176.467 517.195C175.881 517.195 175.334 517.12 174.826 516.971C174.318 516.814 173.859 516.58 173.449 516.268C173.046 515.949 172.697 515.551 172.404 515.076C172.111 514.601 171.887 514.041 171.73 513.396C171.574 512.745 171.496 512.01 171.496 511.189V508.592C171.496 507.563 171.613 506.674 171.848 505.926C172.089 505.171 172.43 504.546 172.873 504.051C173.316 503.556 173.84 503.188 174.445 502.947C175.051 502.706 175.718 502.586 176.447 502.586C177.033 502.586 177.577 502.664 178.078 502.82C178.586 502.97 179.045 503.204 179.455 503.523C179.865 503.836 180.214 504.23 180.5 504.705C180.793 505.18 181.018 505.743 181.174 506.395C181.33 507.039 181.408 507.771 181.408 508.592ZM178.117 511.59V508.172C178.117 507.716 178.091 507.319 178.039 506.98C177.993 506.642 177.922 506.355 177.824 506.121C177.733 505.887 177.619 505.698 177.482 505.555C177.346 505.405 177.189 505.298 177.014 505.232C176.844 505.161 176.656 505.125 176.447 505.125C176.187 505.125 175.952 505.18 175.744 505.291C175.542 505.395 175.37 505.564 175.227 505.799C175.083 506.033 174.973 506.346 174.895 506.736C174.823 507.127 174.787 507.605 174.787 508.172V511.59C174.787 512.052 174.81 512.456 174.855 512.801C174.908 513.139 174.979 513.429 175.07 513.67C175.168 513.904 175.285 514.096 175.422 514.246C175.559 514.389 175.715 514.493 175.891 514.559C176.066 514.624 176.258 514.656 176.467 514.656C176.721 514.656 176.949 514.604 177.15 514.5C177.352 514.396 177.525 514.227 177.668 513.992C177.818 513.751 177.928 513.436 178 513.045C178.078 512.648 178.117 512.163 178.117 511.59ZM183.146 506.268V505.516C183.146 504.975 183.264 504.484 183.498 504.041C183.732 503.598 184.084 503.243 184.553 502.977C185.021 502.71 185.604 502.576 186.301 502.576C187.017 502.576 187.609 502.71 188.078 502.977C188.547 503.243 188.895 503.598 189.123 504.041C189.357 504.484 189.475 504.975 189.475 505.516V506.268C189.475 506.795 189.357 507.28 189.123 507.723C188.895 508.165 188.547 508.52 188.078 508.787C187.616 509.054 187.033 509.188 186.33 509.188C185.62 509.188 185.031 509.054 184.562 508.787C184.094 508.52 183.739 508.165 183.498 507.723C183.264 507.28 183.146 506.795 183.146 506.268ZM185.256 505.516V506.268C185.256 506.463 185.295 506.648 185.373 506.824C185.451 507 185.568 507.143 185.725 507.254C185.887 507.358 186.086 507.41 186.32 507.41C186.561 507.41 186.757 507.358 186.906 507.254C187.056 507.143 187.167 507 187.238 506.824C187.316 506.648 187.355 506.463 187.355 506.268V505.516C187.355 505.307 187.316 505.115 187.238 504.939C187.167 504.764 187.053 504.624 186.896 504.52C186.74 504.409 186.542 504.354 186.301 504.354C186.073 504.354 185.881 504.409 185.725 504.52C185.568 504.624 185.451 504.764 185.373 504.939C185.295 505.115 185.256 505.307 185.256 505.516ZM189.895 514.266V513.514C189.895 512.98 190.012 512.492 190.246 512.049C190.487 511.606 190.842 511.251 191.311 510.984C191.786 510.717 192.372 510.584 193.068 510.584C193.785 510.584 194.374 510.717 194.836 510.984C195.305 511.251 195.653 511.606 195.881 512.049C196.115 512.492 196.232 512.98 196.232 513.514V514.266C196.232 514.799 196.115 515.288 195.881 515.73C195.653 516.173 195.308 516.528 194.846 516.795C194.383 517.062 193.801 517.195 193.098 517.195C192.388 517.195 191.796 517.062 191.32 516.795C190.845 516.528 190.487 516.173 190.246 515.73C190.012 515.288 189.895 514.799 189.895 514.266ZM192.014 513.514V514.266C192.014 514.467 192.062 514.656 192.16 514.832C192.258 515.008 192.388 515.151 192.551 515.262C192.714 515.366 192.893 515.418 193.088 515.418C193.387 515.418 193.609 515.366 193.752 515.262C193.902 515.151 193.999 515.008 194.045 514.832C194.097 514.656 194.123 514.467 194.123 514.266V513.514C194.123 513.312 194.084 513.123 194.006 512.947C193.928 512.771 193.811 512.632 193.654 512.527C193.498 512.417 193.303 512.361 193.068 512.361C192.834 512.361 192.639 512.417 192.482 512.527C192.326 512.632 192.209 512.771 192.131 512.947C192.053 513.123 192.014 513.312 192.014 513.514ZM193.889 504.822L186.945 515.936L185.412 515.164L192.355 504.051L193.889 504.822ZM211.586 512.539H208.547V511.312H211.586C212.174 511.312 212.651 511.219 213.016 511.031C213.38 510.844 213.646 510.583 213.812 510.25C213.984 509.917 214.07 509.536 214.07 509.109C214.07 508.719 213.984 508.352 213.812 508.008C213.646 507.664 213.38 507.388 213.016 507.18C212.651 506.966 212.174 506.859 211.586 506.859H208.898V517H207.391V505.625H211.586C212.445 505.625 213.172 505.773 213.766 506.07C214.359 506.367 214.81 506.779 215.117 507.305C215.424 507.826 215.578 508.422 215.578 509.094C215.578 509.823 215.424 510.445 215.117 510.961C214.81 511.477 214.359 511.87 213.766 512.141C213.172 512.406 212.445 512.539 211.586 512.539ZM219.102 505.625V517H217.594V505.625H219.102ZM230.594 505.625V517H229.078L223.352 508.227V517H221.844V505.625H223.352L229.102 514.422V505.625H230.594ZM234.773 505.625V517H233.266V505.625H234.773ZM241.641 505.625L236.914 510.93L234.258 513.688L234.008 512.078L236.008 509.875L239.828 505.625H241.641ZM240.188 517L235.977 511.453L236.875 510.258L241.984 517H240.188ZM249.375 514.125C249.375 513.859 249.333 513.625 249.25 513.422C249.172 513.214 249.031 513.026 248.828 512.859C248.63 512.693 248.354 512.534 248 512.383C247.651 512.232 247.208 512.078 246.672 511.922C246.109 511.755 245.602 511.57 245.148 511.367C244.695 511.159 244.307 510.922 243.984 510.656C243.661 510.391 243.414 510.086 243.242 509.742C243.07 509.398 242.984 509.005 242.984 508.562C242.984 508.12 243.076 507.711 243.258 507.336C243.44 506.961 243.701 506.635 244.039 506.359C244.383 506.078 244.792 505.859 245.266 505.703C245.74 505.547 246.268 505.469 246.852 505.469C247.706 505.469 248.43 505.633 249.023 505.961C249.622 506.284 250.078 506.708 250.391 507.234C250.703 507.755 250.859 508.312 250.859 508.906H249.359C249.359 508.479 249.268 508.102 249.086 507.773C248.904 507.44 248.628 507.18 248.258 506.992C247.888 506.799 247.419 506.703 246.852 506.703C246.315 506.703 245.872 506.784 245.523 506.945C245.174 507.107 244.914 507.326 244.742 507.602C244.576 507.878 244.492 508.193 244.492 508.547C244.492 508.786 244.542 509.005 244.641 509.203C244.745 509.396 244.904 509.576 245.117 509.742C245.336 509.909 245.612 510.062 245.945 510.203C246.284 510.344 246.688 510.479 247.156 510.609C247.802 510.792 248.359 510.995 248.828 511.219C249.297 511.443 249.682 511.695 249.984 511.977C250.292 512.253 250.518 512.568 250.664 512.922C250.815 513.271 250.891 513.667 250.891 514.109C250.891 514.573 250.797 514.992 250.609 515.367C250.422 515.742 250.154 516.062 249.805 516.328C249.456 516.594 249.036 516.799 248.547 516.945C248.062 517.086 247.521 517.156 246.922 517.156C246.396 517.156 245.878 517.083 245.367 516.938C244.862 516.792 244.401 516.573 243.984 516.281C243.573 515.99 243.242 515.63 242.992 515.203C242.747 514.771 242.625 514.271 242.625 513.703H244.125C244.125 514.094 244.201 514.43 244.352 514.711C244.503 514.987 244.708 515.216 244.969 515.398C245.234 515.581 245.534 515.716 245.867 515.805C246.206 515.888 246.557 515.93 246.922 515.93C247.448 515.93 247.893 515.857 248.258 515.711C248.622 515.565 248.898 515.357 249.086 515.086C249.279 514.815 249.375 514.495 249.375 514.125ZM257.023 506.633L253.258 517H251.719L256.055 505.625H257.047L257.023 506.633ZM260.18 517L256.406 506.633L256.383 505.625H257.375L261.727 517H260.18ZM259.984 512.789V514.023H253.594V512.789H259.984ZM270.148 515.773V517H264.461V515.773H270.148ZM264.758 505.625V517H263.25V505.625H264.758ZM279.102 515.773V517H273.078V515.773H279.102ZM273.383 505.625V517H271.875V505.625H273.383ZM278.305 510.516V511.742H273.078V510.516H278.305ZM279.023 505.625V506.859H273.078V505.625H279.023ZM155.828 524.625V536H154.32V524.625H155.828ZM160.594 529.742V530.977H155.5V529.742H160.594ZM161.367 524.625V525.859H155.5V524.625H161.367ZM170.391 534.773V536H164.367V534.773H170.391ZM164.672 524.625V536H163.164V524.625H164.672ZM169.594 529.516V530.742H164.367V529.516H169.594ZM170.312 524.625V525.859H164.367V524.625H170.312ZM179.484 534.773V536H173.461V534.773H179.484ZM173.766 524.625V536H172.258V524.625H173.766ZM178.688 529.516V530.742H173.461V529.516H178.688ZM179.406 524.625V525.859H173.461V524.625H179.406ZM187.414 533.125C187.414 532.859 187.372 532.625 187.289 532.422C187.211 532.214 187.07 532.026 186.867 531.859C186.669 531.693 186.393 531.534 186.039 531.383C185.69 531.232 185.247 531.078 184.711 530.922C184.148 530.755 183.641 530.57 183.188 530.367C182.734 530.159 182.346 529.922 182.023 529.656C181.701 529.391 181.453 529.086 181.281 528.742C181.109 528.398 181.023 528.005 181.023 527.562C181.023 527.12 181.115 526.711 181.297 526.336C181.479 525.961 181.74 525.635 182.078 525.359C182.422 525.078 182.831 524.859 183.305 524.703C183.779 524.547 184.307 524.469 184.891 524.469C185.745 524.469 186.469 524.633 187.062 524.961C187.661 525.284 188.117 525.708 188.43 526.234C188.742 526.755 188.898 527.312 188.898 527.906H187.398C187.398 527.479 187.307 527.102 187.125 526.773C186.943 526.44 186.667 526.18 186.297 525.992C185.927 525.799 185.458 525.703 184.891 525.703C184.354 525.703 183.911 525.784 183.562 525.945C183.214 526.107 182.953 526.326 182.781 526.602C182.615 526.878 182.531 527.193 182.531 527.547C182.531 527.786 182.581 528.005 182.68 528.203C182.784 528.396 182.943 528.576 183.156 528.742C183.375 528.909 183.651 529.062 183.984 529.203C184.323 529.344 184.727 529.479 185.195 529.609C185.841 529.792 186.398 529.995 186.867 530.219C187.336 530.443 187.721 530.695 188.023 530.977C188.331 531.253 188.557 531.568 188.703 531.922C188.854 532.271 188.93 532.667 188.93 533.109C188.93 533.573 188.836 533.992 188.648 534.367C188.461 534.742 188.193 535.062 187.844 535.328C187.495 535.594 187.076 535.799 186.586 535.945C186.102 536.086 185.56 536.156 184.961 536.156C184.435 536.156 183.917 536.083 183.406 535.938C182.901 535.792 182.44 535.573 182.023 535.281C181.612 534.99 181.281 534.63 181.031 534.203C180.786 533.771 180.664 533.271 180.664 532.703H182.164C182.164 533.094 182.24 533.43 182.391 533.711C182.542 533.987 182.747 534.216 183.008 534.398C183.273 534.581 183.573 534.716 183.906 534.805C184.245 534.888 184.596 534.93 184.961 534.93C185.487 534.93 185.932 534.857 186.297 534.711C186.661 534.565 186.938 534.357 187.125 534.086C187.318 533.815 187.414 533.495 187.414 533.125Z" fill="white" fill-opacity="0.7"/>
<circle cx="128.5" cy="453.5" r="5.5" fill="#F50B5C"/>
<path d="M163.006 455.443V457.982H152.771L152.576 455.971L158.289 446.781H160.887L158.064 451.4L155.721 455.443H163.006ZM161.57 446.781V461H158.279V446.781H161.57ZM174.354 452.592V455.189C174.354 456.212 174.233 457.1 173.992 457.855C173.758 458.611 173.419 459.236 172.977 459.73C172.54 460.225 172.02 460.593 171.414 460.834C170.809 461.075 170.141 461.195 169.412 461.195C168.826 461.195 168.279 461.12 167.771 460.971C167.264 460.814 166.805 460.58 166.395 460.268C165.991 459.949 165.643 459.551 165.35 459.076C165.057 458.601 164.832 458.041 164.676 457.396C164.52 456.745 164.441 456.01 164.441 455.189V452.592C164.441 451.563 164.559 450.674 164.793 449.926C165.034 449.171 165.376 448.546 165.818 448.051C166.261 447.556 166.785 447.188 167.391 446.947C167.996 446.706 168.663 446.586 169.393 446.586C169.979 446.586 170.522 446.664 171.023 446.82C171.531 446.97 171.99 447.204 172.4 447.523C172.811 447.836 173.159 448.23 173.445 448.705C173.738 449.18 173.963 449.743 174.119 450.395C174.275 451.039 174.354 451.771 174.354 452.592ZM171.062 455.59V452.172C171.062 451.716 171.036 451.319 170.984 450.98C170.939 450.642 170.867 450.355 170.77 450.121C170.678 449.887 170.564 449.698 170.428 449.555C170.291 449.405 170.135 449.298 169.959 449.232C169.79 449.161 169.601 449.125 169.393 449.125C169.132 449.125 168.898 449.18 168.689 449.291C168.488 449.395 168.315 449.564 168.172 449.799C168.029 450.033 167.918 450.346 167.84 450.736C167.768 451.127 167.732 451.605 167.732 452.172V455.59C167.732 456.052 167.755 456.456 167.801 456.801C167.853 457.139 167.924 457.429 168.016 457.67C168.113 457.904 168.23 458.096 168.367 458.246C168.504 458.389 168.66 458.493 168.836 458.559C169.012 458.624 169.204 458.656 169.412 458.656C169.666 458.656 169.894 458.604 170.096 458.5C170.298 458.396 170.47 458.227 170.613 457.992C170.763 457.751 170.874 457.436 170.945 457.045C171.023 456.648 171.062 456.163 171.062 455.59ZM176.346 459.457C176.346 458.988 176.515 458.598 176.854 458.285C177.192 457.966 177.628 457.807 178.162 457.807C178.702 457.807 179.139 457.966 179.471 458.285C179.809 458.598 179.979 458.988 179.979 459.457C179.979 459.926 179.809 460.32 179.471 460.639C179.139 460.951 178.702 461.107 178.162 461.107C177.628 461.107 177.192 460.951 176.854 460.639C176.515 460.32 176.346 459.926 176.346 459.457ZM184.949 454.662L182.332 454.047L183.191 446.781H191.502V449.34H185.877L185.555 452.162C185.711 452.071 185.975 451.964 186.346 451.84C186.723 451.71 187.14 451.645 187.596 451.645C188.299 451.645 188.921 451.752 189.461 451.967C190.008 452.175 190.47 452.484 190.848 452.895C191.225 453.298 191.508 453.796 191.697 454.389C191.893 454.981 191.99 455.658 191.99 456.42C191.99 457.032 191.889 457.624 191.688 458.197C191.492 458.764 191.189 459.275 190.779 459.73C190.376 460.18 189.865 460.538 189.246 460.805C188.628 461.065 187.895 461.195 187.049 461.195C186.417 461.195 185.802 461.098 185.203 460.902C184.604 460.707 184.064 460.427 183.582 460.062C183.107 459.691 182.729 459.245 182.449 458.725C182.176 458.197 182.042 457.608 182.049 456.957H185.359C185.379 457.302 185.46 457.602 185.604 457.855C185.747 458.109 185.939 458.308 186.18 458.451C186.427 458.588 186.71 458.656 187.029 458.656C187.355 458.656 187.625 458.591 187.84 458.461C188.055 458.331 188.224 458.152 188.348 457.924C188.471 457.696 188.559 457.436 188.611 457.143C188.663 456.843 188.689 456.527 188.689 456.195C188.689 455.844 188.65 455.528 188.572 455.248C188.501 454.968 188.383 454.73 188.221 454.535C188.058 454.333 187.846 454.18 187.586 454.076C187.332 453.972 187.026 453.92 186.668 453.92C186.193 453.92 185.818 454.001 185.545 454.164C185.271 454.327 185.073 454.493 184.949 454.662ZM193.748 450.268V449.516C193.748 448.975 193.865 448.484 194.1 448.041C194.334 447.598 194.686 447.243 195.154 446.977C195.623 446.71 196.206 446.576 196.902 446.576C197.618 446.576 198.211 446.71 198.68 446.977C199.148 447.243 199.497 447.598 199.725 448.041C199.959 448.484 200.076 448.975 200.076 449.516V450.268C200.076 450.795 199.959 451.28 199.725 451.723C199.497 452.165 199.148 452.52 198.68 452.787C198.217 453.054 197.635 453.188 196.932 453.188C196.222 453.188 195.633 453.054 195.164 452.787C194.695 452.52 194.34 452.165 194.1 451.723C193.865 451.28 193.748 450.795 193.748 450.268ZM195.857 449.516V450.268C195.857 450.463 195.896 450.648 195.975 450.824C196.053 451 196.17 451.143 196.326 451.254C196.489 451.358 196.688 451.41 196.922 451.41C197.163 451.41 197.358 451.358 197.508 451.254C197.658 451.143 197.768 451 197.84 450.824C197.918 450.648 197.957 450.463 197.957 450.268V449.516C197.957 449.307 197.918 449.115 197.84 448.939C197.768 448.764 197.654 448.624 197.498 448.52C197.342 448.409 197.143 448.354 196.902 448.354C196.674 448.354 196.482 448.409 196.326 448.52C196.17 448.624 196.053 448.764 195.975 448.939C195.896 449.115 195.857 449.307 195.857 449.516ZM200.496 458.266V457.514C200.496 456.98 200.613 456.492 200.848 456.049C201.089 455.606 201.443 455.251 201.912 454.984C202.387 454.717 202.973 454.584 203.67 454.584C204.386 454.584 204.975 454.717 205.438 454.984C205.906 455.251 206.255 455.606 206.482 456.049C206.717 456.492 206.834 456.98 206.834 457.514V458.266C206.834 458.799 206.717 459.288 206.482 459.73C206.255 460.173 205.91 460.528 205.447 460.795C204.985 461.062 204.402 461.195 203.699 461.195C202.99 461.195 202.397 461.062 201.922 460.795C201.447 460.528 201.089 460.173 200.848 459.73C200.613 459.288 200.496 458.799 200.496 458.266ZM202.615 457.514V458.266C202.615 458.467 202.664 458.656 202.762 458.832C202.859 459.008 202.99 459.151 203.152 459.262C203.315 459.366 203.494 459.418 203.689 459.418C203.989 459.418 204.21 459.366 204.354 459.262C204.503 459.151 204.601 459.008 204.646 458.832C204.699 458.656 204.725 458.467 204.725 458.266V457.514C204.725 457.312 204.686 457.123 204.607 456.947C204.529 456.771 204.412 456.632 204.256 456.527C204.1 456.417 203.904 456.361 203.67 456.361C203.436 456.361 203.24 456.417 203.084 456.527C202.928 456.632 202.811 456.771 202.732 456.947C202.654 457.123 202.615 457.312 202.615 457.514ZM204.49 448.822L197.547 459.936L196.014 459.164L202.957 448.051L204.49 448.822ZM224.891 459.773V461H219.203V459.773H224.891ZM219.5 449.625V461H217.992V449.625H219.5ZM228.234 449.625V461H226.727V449.625H228.234ZM236.812 459.695L239.703 461.984L238.688 462.922L235.844 460.664L236.812 459.695ZM239.664 454.953V455.672C239.664 456.526 239.557 457.292 239.344 457.969C239.13 458.646 238.823 459.221 238.422 459.695C238.021 460.169 237.539 460.531 236.977 460.781C236.419 461.031 235.794 461.156 235.102 461.156C234.43 461.156 233.812 461.031 233.25 460.781C232.693 460.531 232.208 460.169 231.797 459.695C231.391 459.221 231.076 458.646 230.852 457.969C230.628 457.292 230.516 456.526 230.516 455.672V454.953C230.516 454.099 230.625 453.336 230.844 452.664C231.068 451.987 231.383 451.411 231.789 450.938C232.195 450.458 232.677 450.094 233.234 449.844C233.797 449.594 234.414 449.469 235.086 449.469C235.779 449.469 236.406 449.594 236.969 449.844C237.531 450.094 238.013 450.458 238.414 450.938C238.815 451.411 239.122 451.987 239.336 452.664C239.555 453.336 239.664 454.099 239.664 454.953ZM238.172 455.672V454.938C238.172 454.26 238.102 453.661 237.961 453.141C237.826 452.62 237.625 452.182 237.359 451.828C237.094 451.474 236.771 451.206 236.391 451.023C236.01 450.841 235.576 450.75 235.086 450.75C234.622 450.75 234.201 450.841 233.82 451.023C233.445 451.206 233.122 451.474 232.852 451.828C232.581 452.182 232.372 452.62 232.227 453.141C232.081 453.661 232.008 454.26 232.008 454.938V455.672C232.008 456.354 232.081 456.958 232.227 457.484C232.372 458.005 232.581 458.445 232.852 458.805C233.128 459.159 233.456 459.427 233.836 459.609C234.216 459.792 234.638 459.883 235.102 459.883C235.591 459.883 236.026 459.792 236.406 459.609C236.786 459.427 237.107 459.159 237.367 458.805C237.633 458.445 237.833 458.005 237.969 457.484C238.104 456.958 238.172 456.354 238.172 455.672ZM248.5 449.625H250V457.32C250 458.174 249.81 458.885 249.43 459.453C249.049 460.021 248.544 460.448 247.914 460.734C247.289 461.016 246.609 461.156 245.875 461.156C245.104 461.156 244.406 461.016 243.781 460.734C243.161 460.448 242.669 460.021 242.305 459.453C241.945 458.885 241.766 458.174 241.766 457.32V449.625H243.258V457.32C243.258 457.914 243.367 458.404 243.586 458.789C243.805 459.174 244.109 459.461 244.5 459.648C244.896 459.836 245.354 459.93 245.875 459.93C246.401 459.93 246.859 459.836 247.25 459.648C247.646 459.461 247.953 459.174 248.172 458.789C248.391 458.404 248.5 457.914 248.5 457.32V449.625ZM253.984 449.625V461H252.477V449.625H253.984ZM259.805 461H257.43L257.445 459.773H259.805C260.617 459.773 261.294 459.604 261.836 459.266C262.378 458.922 262.784 458.443 263.055 457.828C263.331 457.208 263.469 456.484 263.469 455.656V454.961C263.469 454.31 263.391 453.732 263.234 453.227C263.078 452.716 262.849 452.286 262.547 451.938C262.245 451.583 261.875 451.315 261.438 451.133C261.005 450.951 260.508 450.859 259.945 450.859H257.383V449.625H259.945C260.69 449.625 261.37 449.75 261.984 450C262.599 450.245 263.128 450.602 263.57 451.07C264.018 451.534 264.362 452.096 264.602 452.758C264.841 453.414 264.961 454.154 264.961 454.977V455.656C264.961 456.479 264.841 457.221 264.602 457.883C264.362 458.539 264.016 459.099 263.562 459.562C263.115 460.026 262.573 460.383 261.938 460.633C261.307 460.878 260.596 461 259.805 461ZM258.234 449.625V461H256.727V449.625H258.234ZM268.844 449.625V461H267.336V449.625H268.844ZM275.555 449.625V461H274.07V449.625H275.555ZM279.211 449.625V450.859H270.422V449.625H279.211ZM281.547 449.625L284.5 455.336L287.461 449.625H289.172L285.25 456.75V461H283.742V456.75L279.82 449.625H281.547Z" fill="white" fill-opacity="0.7"/>
<rect x="4.5" y="0.5" width="597" height="688" rx="38.5" stroke="url(#paint0_linear_277_658)"/>
</g>
<defs>
<filter id="filter0_d_277_658" x="0" y="0" width="606" height="697" filterUnits="userSpaceOnUse" color-interpolation-filters="sRGB">
<feFlood flood-opacity="0" result="BackgroundImageFix"/>
<feColorMatrix in="SourceAlpha" type="matrix" values="0 0 0 0 0 0 0 0 0 0 0 0 0 0 0 0 0 0 127 0" result="hardAlpha"/>
<feOffset dy="4"/>
<feGaussianBlur stdDeviation="2"/>
<feComposite in2="hardAlpha" operator="out"/>
<feColorMatrix type="matrix" values="0 0 0 0 0 0 0 0 0 0 0 0 0 0 0 0 0 0 0.25 0"/>
<feBlend mode="normal" in2="BackgroundImageFix" result="effect1_dropShadow_277_658"/>
<feBlend mode="normal" in="SourceGraphic" in2="effect1_dropShadow_277_658" result="shape"/>
</filter>
<linearGradient id="paint0_linear_277_658" x1="608.784" y1="-21.3208" x2="-116.777" y2="137.607" gradientUnits="userSpaceOnUse">
<stop stop-color="#E617DB"/>
<stop offset="1" stop-color="#00EAFF"/>
</linearGradient>
<clipPath id="clip0_277_658">
<rect width="242" height="243" fill="white" transform="translate(176 84)"/>
</clipPath>
<clipPath id="clip1_277_658">
<rect width="237" height="237" fill="white" transform="translate(415 84) rotate(90)"/>
</clipPath>
</defs>
</svg>
