<svg width="22" height="20" viewBox="0 0 22 20" fill="none" xmlns="http://www.w3.org/2000/svg">
<g clip-path="url(#clip0_270_355)">
<path d="M20.8389 0L11.6849 6.77333L13.3872 2.78158L20.8389 0Z" fill="#E17726"/>
<path d="M0.515808 0.0078125L7.94764 2.7819L9.56397 6.8259L0.515808 0.0078125Z" fill="#E27625"/>
<path d="M17.155 14.4053L21.2008 14.4823L19.7869 19.2858L14.85 17.9265L17.155 14.4053Z" fill="#E27625"/>
<path d="M4.17835 14.4053L6.47468 17.9265L1.5461 19.2859L0.140686 14.4823L4.17835 14.4053Z" fill="#E27625"/>
<path d="M9.34416 5.7959L9.50957 11.1361L4.56207 10.9111L5.96932 8.7879L5.98716 8.76748L9.34416 5.7959Z" fill="#E27625"/>
<path d="M11.9378 5.73633L15.3461 8.76766L15.3638 8.78799L16.7711 10.9112L11.8246 11.1362L11.9378 5.73633Z" fill="#E27625"/>
<path d="M6.61959 14.4199L9.32109 16.5248L6.18292 18.0399L6.61959 14.4199Z" fill="#E27625"/>
<path d="M14.7141 14.4199L15.1418 18.0403L12.0124 16.525L14.7141 14.4199Z" fill="#E27625"/>
<path d="M12.0815 16.3271L15.2571 17.8648L12.3031 19.2687L12.3338 18.3408L12.0815 16.3271Z" fill="#D5BFB2"/>
<path d="M9.25096 16.3271L9.00854 18.325L9.02846 19.2669L6.06763 17.8641L9.25096 16.3271Z" fill="#D5BFB2"/>
<path d="M8.33392 11.833L9.16375 13.577L6.3385 12.7493L8.33392 11.833Z" fill="#233447"/>
<path d="M12.9993 11.833L15.0042 12.7493L12.1697 13.5767L12.9993 11.833Z" fill="#233447"/>
<path d="M6.83551 14.4023L6.37884 18.1557L3.93109 14.4844L6.83551 14.4023Z" fill="#CC6228"/>
<path d="M14.498 14.4023L17.4025 14.4844L14.9456 18.1558L14.498 14.4023Z" fill="#CC6228"/>
<path d="M16.8427 10.6992L14.7289 12.8535L13.0992 12.1087L12.3189 13.7491L11.8074 10.9283L16.8427 10.6992Z" fill="#CC6228"/>
<path d="M4.48956 10.6992L9.52581 10.9284L9.01423 13.7491L8.23381 12.109L6.61273 12.8536L4.48956 10.6992Z" fill="#CC6228"/>
<path d="M4.34717 10.2568L6.73867 12.6836L6.8215 15.0794L4.34717 10.2568Z" fill="#E27525"/>
<path d="M16.9886 10.2529L14.5098 15.084L14.6031 12.684L16.9886 10.2529Z" fill="#E27525"/>
<path d="M9.40894 10.4043L9.50519 11.0101L9.74303 12.5193L9.59011 17.1548L8.86719 13.431L8.86694 13.3925L9.40894 10.4043Z" fill="#E27525"/>
<path d="M11.9232 10.3965L12.4666 13.3931L12.4664 13.4316L11.7416 17.1647L11.7129 16.231L11.5999 12.4925L11.9232 10.3965Z" fill="#E27525"/>
<path d="M14.8157 12.5869L14.7348 14.6684L12.2119 16.634L11.7019 16.2737L12.2736 13.3291L14.8157 12.5869Z" fill="#F5841F"/>
<path d="M6.52643 12.5869L9.05976 13.3291L9.63143 16.2737L9.12143 16.634L6.59843 14.6682L6.52643 12.5869Z" fill="#F5841F"/>
<path d="M5.58484 17.4053L8.81251 18.9346L8.79884 18.2815L9.06884 18.0444H12.2634L12.5433 18.2807L12.5226 18.9333L15.7298 17.4091L14.1692 18.6988L12.2821 19.9949H9.04301L7.15717 18.6934L5.58484 17.4053Z" fill="#C0AC9D"/>
<path d="M11.8503 16.123L12.3067 16.4454L12.5741 18.579L12.1871 18.2523H9.14743L8.76776 18.5856L9.02643 16.4455L9.48293 16.123H11.8503Z" fill="#161616"/>
<path d="M20.2345 0.1875L21.3334 3.48392L20.6471 6.817L21.1358 7.19392L20.4745 7.69842L20.9715 8.08225L20.3134 8.6815L20.7174 8.97408L19.6453 10.2262L15.2478 8.94583L15.2097 8.92542L12.0408 6.25225L20.2345 0.1875Z" fill="#763E1A"/>
<path d="M1.09883 0.1875L9.29267 6.25225L6.12367 8.92542L6.08558 8.94583L1.68808 10.2262L0.615833 8.97408L1.0195 8.68175L0.361833 8.08225L0.857833 7.69892L0.186667 7.19292L0.69375 6.81575L0 3.48408L1.09883 0.1875Z" fill="#763E1A"/>
<path d="M15.0327 8.66602L19.6921 10.0227L21.2058 14.6881H17.2122L14.4605 14.7228L16.4617 10.8221L15.0327 8.66602Z" fill="#F5841F"/>
<path d="M6.30068 8.66602L4.87143 10.8221L6.87285 14.7228L4.12243 14.6881H0.135925L1.64118 10.0227L6.30068 8.66602Z" fill="#F5841F"/>
<path d="M13.6153 2.75887L12.312 6.27879L12.0355 11.0338L11.9296 12.5242L11.9213 16.3315H9.41198L9.40381 12.5314L9.29765 11.0325L9.02098 6.27879L7.7179 2.75879L13.6153 2.75887Z" fill="#F5841F"/>
</g>
<defs>
<clipPath id="clip0_270_355">
<rect width="21.3333" height="20" fill="white"/>
</clipPath>
</defs>
</svg>
