<svg width="32" height="32" viewBox="0 0 32 32" fill="none" xmlns="http://www.w3.org/2000/svg">
<rect x="1" y="1" width="30" height="30" rx="5" fill="#2B2638"/>
<g clip-path="url(#clip0_335_356)">
<path fill-rule="evenodd" clip-rule="evenodd" d="M16.2226 7.66699C16.8193 7.66699 17.3993 7.91199 17.8151 8.33783C18.2301 8.76616 18.4593 9.35366 18.4418 9.94949C18.4434 10.0837 18.4876 10.2387 18.5676 10.3745C18.7001 10.5995 18.9093 10.7578 19.1576 10.8228C19.4059 10.8845 19.6659 10.8512 19.8868 10.7203C20.9534 10.1112 22.3109 10.4762 22.9201 11.5345L23.4393 12.4337C23.4526 12.4578 23.4643 12.4812 23.4743 12.5053C24.0259 13.5478 23.6576 14.8603 22.6326 15.4595C22.4834 15.5453 22.3626 15.6653 22.2793 15.8103C22.1501 16.0345 22.1143 16.3012 22.1793 16.5462C22.2459 16.7962 22.4051 17.0037 22.6293 17.132C23.1351 17.4228 23.5126 17.9128 23.6634 18.4787C23.8143 19.0437 23.7318 19.657 23.4376 20.1628L22.8843 21.0845C22.2751 22.1312 20.9176 22.4937 19.8618 21.8837C19.7209 21.8028 19.5584 21.7587 19.3968 21.7545H19.3918C19.1509 21.7545 18.9034 21.857 18.7234 22.0362C18.5409 22.2187 18.4409 22.462 18.4426 22.7203C18.4368 23.9445 17.4409 24.9345 16.2226 24.9345H15.1784C13.9543 24.9345 12.9584 23.9395 12.9584 22.7153C12.9568 22.5645 12.9134 22.4078 12.8326 22.272C12.7018 22.0437 12.4901 21.8803 12.2459 21.8153C12.0034 21.7503 11.7376 21.7862 11.5193 21.9128C10.9959 22.2045 10.3801 22.2753 9.81677 22.117C9.25427 21.9578 8.76844 21.5712 8.48344 21.0587L7.9626 20.1612C7.35344 19.1045 7.71594 17.7503 8.77094 17.1403C9.0701 16.9678 9.25594 16.6462 9.25594 16.3012C9.25594 15.9562 9.0701 15.6337 8.77094 15.4612C7.7151 14.8478 7.35344 13.4903 7.96177 12.4337L8.52677 11.5062C9.1276 10.4612 10.4859 10.0928 11.5451 10.7012C11.6893 10.787 11.8459 10.8303 12.0051 10.832C12.5243 10.832 12.9584 10.4037 12.9668 9.87699C12.9634 9.29616 13.1926 8.73866 13.6101 8.31783C14.0293 7.89783 14.5859 7.66699 15.1784 7.66699H16.2226ZM16.2226 8.91699H15.1784C14.9201 8.91699 14.6784 9.01783 14.4959 9.19949C14.3143 9.38199 14.2151 9.62449 14.2168 9.88283C14.1993 11.1012 13.2034 12.082 11.9976 12.082C11.6109 12.0778 11.2384 11.9737 10.9151 11.7803C10.4609 11.522 9.8676 11.6812 9.60177 12.1437L9.0376 13.0712C8.77927 13.5195 8.9376 14.112 9.3976 14.3795C10.0801 14.7745 10.5059 15.5112 10.5059 16.3012C10.5059 17.0912 10.0801 17.827 9.39594 18.2228C8.93844 18.4878 8.7801 19.077 9.0451 19.5353L9.57094 20.442C9.70094 20.6762 9.91344 20.8453 10.1593 20.9145C10.4043 20.9828 10.6743 20.9537 10.8993 20.8287C11.2301 20.6345 11.6151 20.5337 12.0018 20.5337C12.1926 20.5337 12.3834 20.5578 12.5701 20.6078C13.1334 20.7595 13.6226 21.1362 13.9126 21.642C14.1009 21.9595 14.2051 22.3303 14.2084 22.7087C14.2084 23.2503 14.6434 23.6845 15.1784 23.6845H16.2226C16.7551 23.6845 17.1901 23.2528 17.1926 22.7203C17.1893 22.132 17.4193 21.5728 17.8401 21.152C18.2551 20.737 18.8351 20.4878 19.4151 20.5045C19.7951 20.5137 20.1609 20.6162 20.4834 20.7995C20.9476 21.0653 21.5401 20.907 21.8084 20.4487L22.3618 19.5262C22.4851 19.3137 22.5209 19.047 22.4551 18.8012C22.3901 18.5553 22.2268 18.342 22.0068 18.2162C21.4918 17.9195 21.1243 17.4412 20.9718 16.8678C20.8209 16.3053 20.9034 15.6912 21.1976 15.1853C21.3893 14.852 21.6701 14.5712 22.0068 14.3778C22.4584 14.1137 22.6168 13.5228 22.3543 13.0628C22.3434 13.0445 22.3334 13.0253 22.3251 13.0053L21.8368 12.1587C21.5709 11.6962 20.9793 11.537 20.5151 11.8012C20.0134 12.0978 19.4168 12.1828 18.8434 12.032C18.2709 11.8837 17.7909 11.5212 17.4918 11.0095C17.3001 10.6895 17.1959 10.317 17.1926 9.93783C17.2001 9.65283 17.1001 9.39699 16.9184 9.20949C16.7376 9.02283 16.4834 8.91699 16.2226 8.91699ZM15.7042 13.4787C17.26 13.4787 18.5259 14.7454 18.5259 16.3012C18.5259 17.8571 17.26 19.1221 15.7042 19.1221C14.1484 19.1221 12.8825 17.8571 12.8825 16.3012C12.8825 14.7454 14.1484 13.4787 15.7042 13.4787ZM15.7042 14.7287C14.8375 14.7287 14.1325 15.4346 14.1325 16.3012C14.1325 17.1679 14.8375 17.8721 15.7042 17.8721C16.5709 17.8721 17.2759 17.1679 17.2759 16.3012C17.2759 15.4346 16.5709 14.7287 15.7042 14.7287Z" fill="white" fill-opacity="0.7"/>
</g>
<rect x="1" y="1" width="30" height="30" rx="5" stroke="#375BFF" stroke-opacity="0.4"/>
<defs>
<clipPath id="clip0_335_356">
<rect width="19.0909" height="20" fill="white" transform="translate(6 6)"/>
</clipPath>
</defs>
</svg>
