<svg width="30" height="30" viewBox="0 0 30 30" fill="none" xmlns="http://www.w3.org/2000/svg">
<path d="M29.414 16.4141C29.7889 16.039 29.9995 15.5304 29.9995 15.0001C29.9995 14.4698 29.7889 13.9611 29.414 13.5861L23.627 7.79908L26.527 4.93708C26.9547 5.04357 27.4057 5.0059 27.8098 4.82992C28.214 4.65395 28.5487 4.3495 28.7622 3.96383C28.9757 3.57815 29.0559 3.13281 28.9904 2.6969C28.9249 2.26098 28.7173 1.85888 28.3999 1.55296C28.0826 1.24705 27.6731 1.05443 27.2351 1.005C26.797 0.955572 26.355 1.05209 25.9774 1.27958C25.5998 1.50707 25.3079 1.85282 25.1469 2.26317C24.9859 2.67352 24.9648 3.12554 25.087 3.54908L22.213 6.38509L16.414 0.585085C16.0389 0.210143 15.5303 -0.000488281 15 -0.000488281C14.4696 -0.000488281 13.961 0.210143 13.586 0.585085L7.79896 6.37408L4.93696 3.47208C5.04289 3.04423 5.00467 2.59338 4.82822 2.18948C4.65177 1.78557 4.34695 1.45118 3.96106 1.23819C3.57517 1.0252 3.12977 0.945512 2.69397 1.01149C2.25817 1.07747 1.85632 1.28542 1.55076 1.60309C1.24521 1.92076 1.05303 2.33039 1.00404 2.76843C0.955056 3.20646 1.052 3.64843 1.27982 4.02575C1.50765 4.40307 1.85364 4.69466 2.2641 4.85528C2.67456 5.01589 3.12655 5.03657 3.54996 4.91408L6.38496 7.78708L0.584963 13.5861C0.21002 13.9611 -0.000610352 14.4698 -0.000610352 15.0001C-0.000610352 15.5304 0.21002 16.039 0.584963 16.4141L6.38496 22.2131L3.54996 25.0861C3.12745 24.9644 2.67659 24.9855 2.26727 25.146C1.85795 25.3066 1.51304 25.5977 1.28598 25.9743C1.05893 26.3508 0.962419 26.7917 1.01141 27.2287C1.06041 27.6656 1.25217 28.0742 1.55698 28.3911C1.86178 28.708 2.26261 28.9155 2.69733 28.9814C3.13204 29.0474 3.57637 28.9681 3.96144 28.7558C4.34651 28.5436 4.65082 28.2102 4.82719 27.8075C5.00356 27.4047 5.04214 26.955 4.93696 26.5281L7.79896 23.6281L13.586 29.4141C13.961 29.789 14.4696 29.9997 15 29.9997C15.5303 29.9997 16.0389 29.789 16.414 29.4141L22.214 23.6151L25.086 26.4511C24.9643 26.8736 24.9853 27.3245 25.1459 27.7338C25.3065 28.1431 25.5976 28.488 25.9742 28.7151C26.3507 28.9421 26.7916 29.0386 27.2285 28.9896C27.6655 28.9406 28.0741 28.7489 28.391 28.4441C28.7079 28.1393 28.9154 27.7384 28.9813 27.3037C29.0473 26.869 28.968 26.4247 28.7557 26.0396C28.5435 25.6545 28.2101 25.3502 27.8074 25.1739C27.4046 24.9975 26.9549 24.9589 26.528 25.0641L23.628 22.2011L29.414 16.4141ZM15 28.0001L1.99996 15.0001L15 2.00008L28 15.0001L15 28.0001Z" fill="#E617DB"/>
</svg>
