<svg width="21" height="22" viewBox="0 0 21 22" fill="none" xmlns="http://www.w3.org/2000/svg">
<path fill-rule="evenodd" clip-rule="evenodd" d="M10.8512 0.0957031C11.6013 0.0957031 12.3305 0.403703 12.8532 0.939036C13.375 1.47751 13.663 2.21608 13.641 2.96513C13.6431 3.1338 13.6987 3.32866 13.7992 3.49942C13.9658 3.78227 14.2288 3.98132 14.541 4.06304C14.8531 4.14056 15.18 4.09866 15.4576 3.93418C16.7986 3.16837 18.5051 3.62723 19.271 4.9577L19.9236 6.08808C19.9404 6.11846 19.955 6.1478 19.9676 6.17818C20.6611 7.48875 20.1981 9.13875 18.9095 9.89199C18.722 9.99989 18.5701 10.1508 18.4653 10.333C18.303 10.6148 18.2579 10.9501 18.3396 11.2581C18.4234 11.5724 18.6235 11.8332 18.9053 11.9946C19.5412 12.3602 20.0158 12.9762 20.2054 13.6875C20.395 14.3978 20.2913 15.1688 19.9215 15.8047L19.2259 16.9634C18.4601 18.2792 16.7535 18.7349 15.4262 17.9681C15.2491 17.8665 15.0449 17.8109 14.8416 17.8057H14.8353C14.5326 17.8057 14.2214 17.9346 13.9951 18.1598C13.7657 18.3892 13.64 18.6951 13.6421 19.0199C13.6348 20.5588 12.3829 21.8034 10.8512 21.8034H9.53857C7.99962 21.8034 6.74772 20.5526 6.74772 19.0136C6.74562 18.824 6.69115 18.627 6.58953 18.4563C6.42505 18.1692 6.15896 17.9639 5.852 17.8822C5.54715 17.8005 5.21295 17.8455 4.93848 18.0048C4.28057 18.3714 3.50638 18.4605 2.79819 18.2614C2.09105 18.0613 1.48029 17.5752 1.122 16.9309L0.467241 15.8027C-0.298569 14.4743 0.157146 12.7719 1.48343 12.005C1.85953 11.7882 2.09315 11.3838 2.09315 10.9501C2.09315 10.5164 1.85953 10.1109 1.48343 9.89408C0.156098 9.12304 -0.298569 7.41646 0.466193 6.08808L1.17648 4.92208C1.93181 3.60837 3.63943 3.14532 4.97095 3.91008C5.15219 4.01799 5.34915 4.07246 5.54924 4.07456C6.20191 4.07456 6.74772 3.53608 6.75819 2.87399C6.754 2.1438 7.0421 1.44294 7.56695 0.913894C8.09391 0.385894 8.79372 0.0957031 9.53857 0.0957031H10.8512ZM10.8512 1.66713H9.53857C9.21381 1.66713 8.91 1.79389 8.68057 2.02227C8.45219 2.2517 8.32753 2.55656 8.32962 2.88132C8.30762 4.41294 7.05572 5.64599 5.53981 5.64599C5.05372 5.64075 4.58543 5.5098 4.17896 5.26675C3.608 4.94199 2.8621 5.14208 2.52791 5.72351L1.81867 6.88951C1.49391 7.45313 1.69296 8.19799 2.27124 8.53427C3.12924 9.03085 3.66457 9.95694 3.66457 10.9501C3.66457 11.9432 3.12924 12.8683 2.26915 13.3659C1.694 13.699 1.49496 14.4397 1.8281 15.0159L2.48915 16.1557C2.65257 16.4501 2.91972 16.6627 3.22876 16.7497C3.53676 16.8356 3.87619 16.7989 4.15905 16.6418C4.57495 16.3977 5.05895 16.2709 5.54505 16.2709C5.78495 16.2709 6.02486 16.3013 6.25953 16.3642C6.96772 16.5548 7.58267 17.0284 7.94724 17.6643C8.184 18.0634 8.31495 18.5296 8.31915 19.0052C8.31915 19.6862 8.866 20.232 9.53857 20.232H10.8512C11.5207 20.232 12.0675 19.6893 12.0707 19.0199C12.0665 18.2803 12.3556 17.5773 12.8847 17.0483C13.4064 16.5266 14.1355 16.2133 14.8647 16.2343C15.3424 16.2458 15.8023 16.3747 16.2077 16.6051C16.7912 16.9393 17.5361 16.7403 17.8734 16.1641L18.569 15.0044C18.7241 14.7372 18.7691 14.402 18.6864 14.0929C18.6047 13.7839 18.3993 13.5157 18.1228 13.3575C17.4753 12.9846 17.0133 12.3832 16.8216 11.6625C16.632 10.9553 16.7357 10.1832 17.1055 9.54732C17.3465 9.12827 17.6995 8.77523 18.1228 8.53218C18.6906 8.20008 18.8896 7.45732 18.5596 6.87904C18.546 6.85599 18.5334 6.83189 18.523 6.80675L17.909 5.74237C17.5749 5.16094 16.831 4.96085 16.2475 5.29294C15.6169 5.66589 14.8668 5.77275 14.146 5.58313C13.4263 5.39666 12.8229 4.94094 12.4468 4.2977C12.2058 3.89542 12.0749 3.42713 12.0707 2.95046C12.0801 2.59218 11.9544 2.27056 11.726 2.03485C11.4987 1.80018 11.1791 1.66713 10.8512 1.66713ZM10.1995 7.4019C12.1554 7.4019 13.7468 8.99428 13.7468 10.9502C13.7468 12.9061 12.1554 14.4964 10.1995 14.4964C8.24361 14.4964 6.65228 12.9061 6.65228 10.9502C6.65228 8.99428 8.24361 7.4019 10.1995 7.4019ZM10.1995 8.97333C9.10999 8.97333 8.22371 9.86066 8.22371 10.9502C8.22371 12.0397 9.10999 12.925 10.1995 12.925C11.289 12.925 12.1753 12.0397 12.1753 10.9502C12.1753 9.86066 11.289 8.97333 10.1995 8.97333Z" fill="#343434"/>
</svg>
