<svg width="34" height="39" viewBox="0 0 34 39" fill="none" xmlns="http://www.w3.org/2000/svg">
<path d="M9.35073 38.2452C6.80233 32.9404 8.1602 29.9019 10.1181 27.038C12.2625 23.9015 12.8171 20.7984 12.8171 20.7984C12.8171 20.7984 14.5049 22.9906 13.8284 26.4212C16.8071 23.1054 17.3713 17.8197 16.9195 15.7949C23.6538 20.502 26.5322 30.6932 22.6546 38.2476C43.288 26.5742 27.7872 9.10589 25.0882 7.13841C25.9871 9.10589 26.1592 12.436 24.34 14.0545C21.2632 2.39062 13.6586 0 13.6586 0C14.5575 6.01481 10.3978 12.5938 6.38636 17.5089C6.24531 15.1111 6.0947 13.4544 4.83484 11.1594C4.55275 15.5175 1.22261 19.07 0.318953 23.4353C-0.902657 29.3473 1.23456 33.6767 9.34834 38.25L9.35073 38.2452Z" fill="#E617DB"/>
</svg>
