<svg width="35" height="32" viewBox="0 0 35 32" fill="none" xmlns="http://www.w3.org/2000/svg">
<path d="M0.731934 5.58712C0.731934 4.22848 1.27165 2.92548 2.23236 1.96478C3.19306 1.00407 4.49606 0.464355 5.8547 0.464355H28.3949C29.7535 0.464355 31.0565 1.00407 32.0172 1.96478C32.9779 2.92548 33.5176 4.22848 33.5176 5.58712V17.8818C33.5176 17.9723 33.4817 18.0592 33.4176 18.1233C33.3536 18.1873 33.2667 18.2233 33.1761 18.2233C33.085 18.2217 32.9979 18.1855 32.9325 18.1221C32.8671 18.0587 32.8282 17.9728 32.8237 17.8818C32.7675 16.9849 32.491 16.1157 32.0187 15.3512C31.5463 14.5868 30.8927 13.9506 30.1158 13.499C29.3389 13.0475 28.4626 12.7945 27.5645 12.7625C26.6664 12.7306 25.7744 12.9206 24.9673 13.3157C24.1602 13.7109 23.463 14.299 22.9375 15.0279C22.412 15.7569 22.0744 16.6042 21.9546 17.4948C21.8348 18.3854 21.9365 19.2918 22.2506 20.1337C22.5648 20.9757 23.0817 21.7271 23.7557 22.3215H22.6519C22.1055 22.3213 21.5645 22.4288 21.0597 22.6377C20.5548 22.8467 20.0961 23.1531 19.7097 23.5394C19.3233 23.9256 19.0168 24.3843 18.8076 24.889C18.5985 25.3938 18.4909 25.9348 18.4909 26.4812V26.7612C18.4909 27.1041 18.5209 27.447 18.581 27.7858H5.8547C4.49606 27.7858 3.19306 27.2461 2.23236 26.2854C1.27165 25.3247 0.731934 24.0217 0.731934 22.663V5.58712ZM6.19622 7.63623V13.7836C6.19622 14.7261 6.96122 15.4911 7.90381 15.4911H15.4172C16.3598 15.4911 17.1248 14.7261 17.1248 13.7836V7.63623C17.1248 6.69364 16.3598 5.92864 15.4172 5.92864H7.90381C6.96122 5.92864 6.19622 6.69364 6.19622 7.63623ZM31.4685 18.2233C31.4685 19.3102 31.0368 20.3526 30.2682 21.1212C29.4996 21.8897 28.4572 22.3215 27.3703 22.3215C26.2834 22.3215 25.241 21.8897 24.4725 21.1212C23.7039 20.3526 23.2721 19.3102 23.2721 18.2233C23.2721 17.1364 23.7039 16.094 24.4725 15.3254C25.241 14.5568 26.2834 14.1251 27.3703 14.1251C28.4572 14.1251 29.4996 14.5568 30.2682 15.3254C31.0368 16.094 31.4685 17.1364 31.4685 18.2233ZM34.8837 26.7612C34.8837 29.3131 32.7376 31.884 27.3703 31.884C22.003 31.884 19.8569 29.3226 19.8569 26.7612V26.4812C19.8569 24.9375 21.1083 23.6876 22.6519 23.6876H32.0901C33.6338 23.6876 34.8837 24.9375 34.8837 26.4812V26.7612Z" fill="#E617DB"/>
</svg>
