<svg width="45" height="45" viewBox="0 0 45 45" fill="none" xmlns="http://www.w3.org/2000/svg">
<path d="M34.3436 8C35.738 8 36.8697 9.13169 36.8697 10.5261V14.9186C36.8696 15.6438 36.6708 16.3551 36.2949 16.9752C35.919 17.5954 35.3805 18.1007 34.7377 18.4364L25.6697 23.171C27.1224 23.8996 28.2866 25.097 28.9741 26.5696C29.6615 28.0422 29.8318 29.7036 29.4575 31.2851C29.0831 32.8665 28.1861 34.2753 26.9114 35.2834C25.6368 36.2915 24.0593 36.84 22.4341 36.84C20.809 36.84 19.2315 36.2915 17.9568 35.2834C16.6822 34.2753 15.7851 32.8665 15.4108 31.2851C15.0365 29.7036 15.2068 28.0422 15.8942 26.5696C16.5816 25.097 17.7459 23.8996 19.1986 23.171L10.1335 18.4378C9.4902 18.1022 8.9512 17.5968 8.57507 16.9763C8.19893 16.3559 8.00004 15.6442 8 14.9186V10.5261C8 9.13169 9.13169 8 10.5261 8H34.3436ZM22.4349 24.5727C21.0949 24.5727 19.8099 25.1049 18.8624 26.0524C17.9149 26.9999 17.3827 28.2849 17.3827 29.6249C17.3827 30.9648 17.9149 32.2498 18.8624 33.1973C19.8099 34.1448 21.0949 34.6771 22.4349 34.6771C23.7748 34.6771 25.0598 34.1448 26.0073 33.1973C26.9548 32.2498 27.4871 30.9648 27.4871 29.6249C27.4871 28.2849 26.9548 26.9999 26.0073 26.0524C25.0598 25.1049 23.7748 24.5727 22.4349 24.5727ZM27.4871 10.1638H17.3827V19.7803L22.2674 22.3324C22.3191 22.3594 22.3765 22.3736 22.4349 22.3736C22.4932 22.3736 22.5506 22.3594 22.6023 22.3324L27.4871 19.7788V10.1638ZM15.2174 10.1638L10.5261 10.1652C10.4304 10.1652 10.3386 10.2032 10.2709 10.2709C10.2032 10.3386 10.1652 10.4304 10.1652 10.5261V14.9186C10.1652 15.5898 10.5391 16.2062 11.1338 16.518L15.2174 18.6486V10.1638ZM34.3436 10.1652L29.6523 10.1638V18.6486L33.7359 16.518C34.028 16.3653 34.2728 16.1355 34.4435 15.8536C34.6143 15.5716 34.7045 15.2483 34.7045 14.9186V10.5261C34.7045 10.4304 34.6665 10.3386 34.5988 10.2709C34.5311 10.2032 34.4393 10.1652 34.3436 10.1652Z" fill="#E617DB"/>
<rect x="1" y="1" width="42.8697" height="42.84" rx="8" stroke="#E617DB" stroke-width="2"/>
</svg>
