<svg width="39" height="39" viewBox="0 0 39 39" fill="none" xmlns="http://www.w3.org/2000/svg">
<path d="M27.8906 19.125C30.2154 19.125 32.445 20.0485 34.0889 21.6924C35.7327 23.3363 36.6562 25.5658 36.6562 27.8906C36.6562 30.2154 35.7327 32.445 34.0889 34.0889C32.445 35.7327 30.2154 36.6562 27.8906 36.6562C25.5658 36.6562 23.3363 35.7327 21.6924 34.0889C20.0485 32.445 19.125 30.2154 19.125 27.8906C19.125 25.5658 20.0485 23.3363 21.6924 21.6924C23.3363 20.0485 25.5658 19.125 27.8906 19.125ZM22.7173 15.9375C24.0481 15.9375 25.2083 16.6611 25.8267 17.7384C24.9897 17.9072 24.177 18.1797 23.4074 18.5497C23.2065 18.4048 22.965 18.3273 22.7173 18.3281H15.5422C15.2252 18.3281 14.9212 18.4541 14.697 18.6782C14.4729 18.9024 14.3469 19.2064 14.3469 19.5234V26.2953C14.3469 28.5425 15.8993 30.4295 17.9903 30.9411C18.2635 31.8336 18.6576 32.6846 19.1617 33.4703L19.1298 33.4688C17.2273 33.4688 15.4027 32.713 14.0574 31.3677C12.7121 30.0224 11.9563 28.1978 11.9563 26.2953V19.5234C11.9563 18.5724 12.3341 17.6603 13.0066 16.9878C13.6791 16.3153 14.5912 15.9375 15.5422 15.9375H22.7173ZM24.0545 23.8521L23.9429 23.9445L23.8521 24.0561C23.7602 24.1891 23.711 24.347 23.711 24.5087C23.711 24.6704 23.7602 24.8282 23.8521 24.9613L23.9445 25.0729L26.7654 27.8922L23.9477 30.7068L23.8568 30.8183C23.765 30.9514 23.7158 31.1093 23.7158 31.271C23.7158 31.4327 23.765 31.5905 23.8568 31.7236L23.9477 31.8352L24.0592 31.926C24.1923 32.0178 24.3502 32.067 24.5119 32.067C24.6736 32.067 24.8314 32.0178 24.9645 31.926L25.0761 31.8352L27.8906 29.019L30.7116 31.8383L30.8215 31.9308C30.9546 32.0226 31.1125 32.0718 31.2742 32.0718C31.4358 32.0718 31.5937 32.0226 31.7268 31.9308L31.8383 31.8383L31.9292 31.7268C32.021 31.5937 32.0702 31.4358 32.0702 31.2742C32.0702 31.1125 32.021 30.9546 31.9292 30.8215L31.8383 30.71L29.0174 27.8922L31.8415 25.0713L31.934 24.9613C32.0262 24.8281 32.0755 24.6699 32.0755 24.5079C32.0755 24.3459 32.0262 24.1877 31.934 24.0545L31.8415 23.9445L31.7316 23.8521C31.5983 23.7599 31.4402 23.7105 31.2781 23.7105C31.1161 23.7105 30.958 23.7599 30.8247 23.8521L30.7147 23.9445L27.8906 26.7654L25.0697 23.9445L24.9613 23.8521C24.8475 23.7734 24.7153 23.7258 24.5775 23.7138C24.4398 23.7018 24.3012 23.7258 24.1756 23.7835L24.0545 23.8521ZM11.8033 15.9375C11.1635 16.6037 10.7138 17.4292 10.5012 18.3281H6.77344C6.45642 18.3281 6.15239 18.4541 5.92822 18.6782C5.70406 18.9024 5.57812 19.2064 5.57812 19.5234V23.9047C5.57802 24.5069 5.7144 25.1014 5.977 25.6433C6.2396 26.1853 6.6216 26.6608 7.09431 27.0339C7.56702 27.4071 8.11814 27.6683 8.70628 27.7979C9.29442 27.9275 9.90429 27.9222 10.4901 27.7822C10.6255 28.5855 10.8726 29.3521 11.212 30.0645C10.2674 30.3172 9.27727 30.3493 8.31825 30.1582C7.35923 29.9672 6.457 29.5581 5.68132 28.9627C4.90563 28.3673 4.27729 27.6014 3.84486 26.7243C3.41244 25.8473 3.18752 24.8825 3.1875 23.9047V19.5234C3.18739 18.6148 3.53222 17.74 4.15231 17.0758C4.77239 16.4117 5.62149 16.0077 6.528 15.9455L6.77344 15.9375H11.8033ZM31.4766 15.9375C32.4276 15.9375 33.3397 16.3153 34.0122 16.9878C34.6847 17.6603 35.0625 18.5724 35.0625 19.5234V20.4159C33.1356 18.5619 30.5646 17.5278 27.8906 17.5312L27.5002 17.5392C27.2559 16.9445 26.9018 16.4011 26.4563 15.9375H31.4766ZM29.4844 6.375C30.5411 6.375 31.5545 6.79478 32.3018 7.542C33.049 8.28921 33.4688 9.30265 33.4688 10.3594C33.4688 11.4161 33.049 12.4295 32.3018 13.1768C31.5545 13.924 30.5411 14.3438 29.4844 14.3438C28.4277 14.3438 27.4142 13.924 26.667 13.1768C25.9198 12.4295 25.5 11.4161 25.5 10.3594C25.5 9.30265 25.9198 8.28921 26.667 7.542C27.4142 6.79478 28.4277 6.375 29.4844 6.375ZM19.125 4.78125C20.3931 4.78125 21.6092 5.28499 22.5059 6.18165C23.4025 7.0783 23.9062 8.29443 23.9062 9.5625C23.9062 10.8306 23.4025 12.0467 22.5059 12.9434C21.6092 13.84 20.3931 14.3438 19.125 14.3438C17.8569 14.3438 16.6408 13.84 15.7441 12.9434C14.8475 12.0467 14.3438 10.8306 14.3438 9.5625C14.3438 8.29443 14.8475 7.0783 15.7441 6.18165C16.6408 5.28499 17.8569 4.78125 19.125 4.78125ZM8.76562 6.375C9.82235 6.375 10.8358 6.79478 11.583 7.542C12.3302 8.28921 12.75 9.30265 12.75 10.3594C12.75 11.4161 12.3302 12.4295 11.583 13.1768C10.8358 13.924 9.82235 14.3438 8.76562 14.3438C7.7089 14.3438 6.69546 13.924 5.94825 13.1768C5.20103 12.4295 4.78125 11.4161 4.78125 10.3594C4.78125 9.30265 5.20103 8.28921 5.94825 7.542C6.69546 6.79478 7.7089 6.375 8.76562 6.375ZM29.4844 8.76562C29.0617 8.76562 28.6563 8.93354 28.3574 9.23242C28.0585 9.53131 27.8906 9.93669 27.8906 10.3594C27.8906 10.7821 28.0585 11.1874 28.3574 11.4863C28.6563 11.7852 29.0617 11.9531 29.4844 11.9531C29.9071 11.9531 30.3124 11.7852 30.6113 11.4863C30.9102 11.1874 31.0781 10.7821 31.0781 10.3594C31.0781 9.93669 30.9102 9.53131 30.6113 9.23242C30.3124 8.93354 29.9071 8.76562 29.4844 8.76562ZM19.125 7.17188C18.491 7.17188 17.8829 7.42374 17.4346 7.87207C16.9862 8.3204 16.7344 8.92847 16.7344 9.5625C16.7344 10.1965 16.9862 10.8046 17.4346 11.2529C17.8829 11.7013 18.491 11.9531 19.125 11.9531C19.759 11.9531 20.3671 11.7013 20.8154 11.2529C21.2638 10.8046 21.5156 10.1965 21.5156 9.5625C21.5156 8.92847 21.2638 8.3204 20.8154 7.87207C20.3671 7.42374 19.759 7.17188 19.125 7.17188ZM8.76562 8.76562C8.34294 8.76562 7.93756 8.93354 7.63867 9.23242C7.33979 9.53131 7.17188 9.93669 7.17188 10.3594C7.17188 10.7821 7.33979 11.1874 7.63867 11.4863C7.93756 11.7852 8.34294 11.9531 8.76562 11.9531C9.18831 11.9531 9.59369 11.7852 9.89258 11.4863C10.1915 11.1874 10.3594 10.7821 10.3594 10.3594C10.3594 9.93669 10.1915 9.53131 9.89258 9.23242C9.59369 8.93354 9.18831 8.76562 8.76562 8.76562Z" fill="#E617DB"/>
</svg>
