<svg width="35" height="35" viewBox="0 0 35 35" fill="none" xmlns="http://www.w3.org/2000/svg">
<path fill-rule="evenodd" clip-rule="evenodd" d="M8.43281 19.6897L1.13273 16.9397C0.391116 16.6595 0.385315 15.603 1.12402 15.3151L31.0824 3.65047C31.7176 3.40282 32.3732 3.9641 32.234 4.63727L26.858 30.7386C26.7313 31.3554 26.0158 31.6346 25.5102 31.2636L18.1714 25.8859C17.7257 25.5598 17.1184 25.5771 16.692 25.928L12.6224 29.2756C12.1505 29.6658 11.4389 29.4487 11.2581 28.8606L8.43281 19.6897ZM25.069 9.35838L10.8025 18.2262C10.2552 18.5675 9.998 19.234 10.1749 19.8575L11.7171 25.3279C11.8264 25.7151 12.3843 25.6759 12.4375 25.2753L12.8387 22.2757C12.9142 21.7106 13.181 21.1904 13.5949 20.8012L25.3688 9.75521C25.5892 9.54867 25.3253 9.1987 25.069 9.35838Z" fill="#757575"/>
</svg>
