<svg width="39" height="36" viewBox="0 0 39 36" fill="none" xmlns="http://www.w3.org/2000/svg">
<path fill-rule="evenodd" clip-rule="evenodd" d="M19.1248 6.56943L17.4107 4.80754C13.3873 0.671758 6.00984 2.09896 3.34668 7.29857C2.1944 9.55054 1.86449 12.7253 3.60487 16.7344L1.02777 16.7344C-4.05948 3.11498 10.9847 -4.37485 18.7041 2.73248C18.8475 2.86396 18.9885 3.00023 19.1248 3.14127C19.2597 3.00036 19.4 2.86478 19.5456 2.73487C27.2673 -4.37485 42.3091 3.11498 37.2218 16.7344L34.6447 16.7344C36.3851 12.7253 36.0552 9.55054 34.9029 7.29857C32.2398 2.09896 24.8623 0.669368 20.8389 4.80515L19.1248 6.56943ZM5.28787 23.9062L8.43154 23.9062C10.9799 26.7344 14.4631 29.7824 19.1248 32.9787C23.7841 29.7824 27.2697 26.7344 29.8181 23.9062L32.9617 23.9062C29.9376 27.65 25.4552 31.6758 19.1248 35.8594C12.7944 31.6758 8.31201 27.65 5.28787 23.9062ZM25.0153 7.92252C24.9226 7.69108 24.7598 7.49443 24.5497 7.3601C24.3397 7.22577 24.0929 7.1605 23.8439 7.17341C23.5949 7.18632 23.3561 7.27677 23.1611 7.4321C22.9661 7.58743 22.8245 7.79987 22.7562 8.03967L18.9359 21.4104L15.4528 12.7038C15.3717 12.5018 15.237 12.3258 15.0632 12.1948C14.8893 12.0638 14.6831 11.9827 14.4666 11.9603C14.2501 11.9379 14.0316 11.9751 13.8346 12.0677C13.6377 12.1604 13.4698 12.3051 13.3491 12.4862L8.92162 19.125L1.19512 19.125C0.8781 19.125 0.574068 19.2509 0.349903 19.4751C0.125738 19.6993 -0.000196017 20.0033 -0.000196028 20.3203C-0.00019604 20.6373 0.125738 20.9414 0.349903 21.1655C0.574068 21.3897 0.8781 21.5156 1.19512 21.5156L9.5623 21.5156C9.75915 21.5155 9.95293 21.4668 10.1264 21.3738C10.2999 21.2808 10.4478 21.1464 10.5568 20.9825L14.0782 15.7016L18.0156 25.5462C18.1083 25.7777 18.2711 25.9743 18.4811 26.1086C18.6912 26.243 18.938 26.3082 19.187 26.2953C19.436 26.2824 19.6747 26.192 19.8698 26.0366C20.0648 25.8813 20.2064 25.6689 20.2747 25.4291L24.0949 12.0583L27.5781 20.765C27.6669 20.9865 27.82 21.1765 28.0177 21.3102C28.2154 21.444 28.4486 21.5156 28.6873 21.5156L37.0545 21.5156C37.3715 21.5156 37.6755 21.3897 37.8997 21.1655C38.1239 20.9414 38.2498 20.6373 38.2498 20.3203C38.2498 20.0033 38.1239 19.6993 37.8997 19.4751C37.6755 19.2509 37.3715 19.125 37.0545 19.125L29.4953 19.125L25.0153 7.92252Z" fill="#E617DB"/>
</svg>
