<svg width="174" height="32" viewBox="0 0 174 32" fill="none" xmlns="http://www.w3.org/2000/svg">
<path d="M6.80753 25L0.564631 3.18182H5.60369L9.2152 18.3416H9.39631L13.3807 3.18182H17.6953L21.669 18.3736H21.8608L25.4723 3.18182H30.5114L24.2685 25H19.7727L15.6179 10.7351H15.4474L11.3033 25H6.80753ZM37.4334 15.5398V25H32.8951V3.18182H37.3056V11.5234H37.4973C37.8667 10.5575 38.4632 9.80114 39.2871 9.25426C40.111 8.70028 41.1444 8.4233 42.3873 8.4233C43.5236 8.4233 44.5144 8.67187 45.3596 9.16903C46.2118 9.65909 46.8723 10.3658 47.3411 11.2891C47.8169 12.2053 48.0513 13.3026 48.0442 14.581V25H43.5059V15.3906C43.513 14.3821 43.2573 13.5973 42.7388 13.0362C42.2275 12.4751 41.5101 12.1946 40.5868 12.1946C39.9689 12.1946 39.4221 12.326 38.9462 12.5888C38.4775 12.8516 38.1081 13.2351 37.8382 13.7393C37.5755 14.2365 37.4405 14.8366 37.4334 15.5398ZM53.8317 31.1364C53.2564 31.1364 52.7166 31.0902 52.2124 30.9979C51.7152 30.9126 51.3033 30.8026 50.9766 30.6676L51.9993 27.2798C52.532 27.4432 53.0114 27.532 53.4375 27.5462C53.8707 27.5604 54.2436 27.4609 54.5561 27.2479C54.8757 27.0348 55.1349 26.6726 55.3338 26.1612L55.6001 25.4688L49.7301 8.63636H54.5028L57.8906 20.6534H58.0611L61.4808 8.63636H66.2855L59.9254 26.7685C59.62 27.6491 59.2045 28.4162 58.679 29.0696C58.1605 29.7301 57.5036 30.2379 56.7081 30.593C55.9126 30.9553 54.9538 31.1364 53.8317 31.1364Z" fill="#343434"/>
<path d="M83.1152 27.7273V0.454544H84.8624V27.7273H83.1152ZM86.9078 10C86.851 9.28977 86.5847 8.7358 86.1088 8.33807C85.6401 7.94034 84.9263 7.74148 83.9675 7.74148C83.3567 7.74148 82.856 7.81605 82.4654 7.9652C82.0819 8.10724 81.7978 8.30256 81.6131 8.55114C81.4284 8.79972 81.3326 9.08381 81.3255 9.40341C81.3113 9.66619 81.3574 9.90412 81.464 10.1172C81.5776 10.3232 81.7551 10.5114 81.9966 10.6818C82.2381 10.8452 82.5471 10.9943 82.9235 11.1293C83.2999 11.2642 83.7473 11.3849 84.2658 11.4915L86.0556 11.875C87.263 12.1307 88.2963 12.468 89.1557 12.8871C90.0151 13.3061 90.7182 13.7997 91.2651 14.3679C91.812 14.929 92.2132 15.5611 92.4689 16.2642C92.7317 16.9673 92.8667 17.7344 92.8738 18.5653C92.8667 20 92.508 21.2145 91.7978 22.2088C91.0875 23.2031 90.0719 23.9595 88.7509 24.478C87.437 24.9964 85.8567 25.2557 84.0101 25.2557C82.1138 25.2557 80.459 24.9751 79.0456 24.4141C77.6394 23.853 76.5456 22.9901 75.7644 21.8253C74.9902 20.6534 74.5996 19.1548 74.5925 17.3295H80.2175C80.253 17.9972 80.4199 18.5582 80.7182 19.0128C81.0165 19.4673 81.4355 19.8118 81.9753 20.0462C82.5222 20.2805 83.1721 20.3977 83.9249 20.3977C84.557 20.3977 85.0861 20.3196 85.5123 20.1634C85.9384 20.0071 86.2615 19.7905 86.4817 19.5135C86.7019 19.2365 86.8155 18.9205 86.8226 18.5653C86.8155 18.2315 86.7054 17.9403 86.4924 17.6918C86.2864 17.4361 85.9455 17.2088 85.4696 17.0099C84.9938 16.804 84.351 16.6122 83.5414 16.4347L81.3681 15.9659C79.4363 15.5469 77.9128 14.8473 76.7978 13.8672C75.6898 12.88 75.1394 11.5341 75.1465 9.82955C75.1394 8.4446 75.5087 7.23366 76.2544 6.19673C77.0073 5.1527 78.0478 4.33949 79.3759 3.7571C80.7111 3.17472 82.2417 2.88352 83.9675 2.88352C85.7289 2.88352 87.2523 3.17827 88.5378 3.76776C89.8233 4.35724 90.8141 5.18821 91.5101 6.26065C92.2132 7.32599 92.5684 8.57244 92.5755 10H86.9078ZM95.127 25V3.18182H101.05V11.7045H108.891V3.18182H114.814V25H108.891V16.4773H101.05V25H95.127ZM117.627 25V3.18182H127.087C128.749 3.18182 130.145 3.40554 131.274 3.85298C132.41 4.30043 133.266 4.93253 133.841 5.74929C134.424 6.56605 134.715 7.52841 134.715 8.63636C134.715 9.43892 134.537 10.1705 134.182 10.831C133.834 11.4915 133.344 12.0455 132.712 12.4929C132.08 12.9332 131.341 13.2386 130.496 13.4091V13.6222C131.434 13.6577 132.286 13.8956 133.053 14.3359C133.82 14.7692 134.431 15.3693 134.885 16.1364C135.34 16.8963 135.567 17.7912 135.567 18.821C135.567 20.0142 135.255 21.076 134.63 22.0064C134.012 22.9368 133.131 23.6683 131.988 24.201C130.844 24.7337 129.481 25 127.897 25H117.627ZM123.55 20.2699H126.32C127.314 20.2699 128.06 20.0852 128.557 19.7159C129.055 19.3395 129.303 18.7855 129.303 18.054C129.303 17.5426 129.186 17.1094 128.952 16.7543C128.717 16.3991 128.383 16.1293 127.95 15.9446C127.524 15.7599 127.009 15.6676 126.405 15.6676H123.55V20.2699ZM123.55 12.0028H125.979C126.498 12.0028 126.956 11.9212 127.354 11.7578C127.751 11.5945 128.06 11.3601 128.28 11.0547C128.508 10.7422 128.621 10.3622 128.621 9.91477C128.621 9.24006 128.38 8.72514 127.897 8.37003C127.414 8.00781 126.803 7.8267 126.064 7.8267H123.55V12.0028ZM137.069 7.95455V3.18182H156.032V7.95455H149.47V25H143.632V7.95455H137.069ZM162.651 18.1818V17.6705C162.651 16.4986 162.743 15.5646 162.928 14.8686C163.113 14.1726 163.386 13.6151 163.748 13.196C164.11 12.7699 164.554 12.3864 165.08 12.0455C165.534 11.7472 165.939 11.4595 166.294 11.1825C166.657 10.9055 166.941 10.6108 167.147 10.2983C167.36 9.9858 167.466 9.63068 167.466 9.23295C167.466 8.87784 167.381 8.56534 167.211 8.29545C167.04 8.02557 166.809 7.81605 166.518 7.6669C166.227 7.51776 165.904 7.44318 165.549 7.44318C165.165 7.44318 164.81 7.53196 164.483 7.70952C164.164 7.88707 163.904 8.1321 163.706 8.4446C163.514 8.7571 163.418 9.11932 163.418 9.53125H157.963C157.978 7.96875 158.333 6.70099 159.029 5.72798C159.725 4.74787 160.648 4.03054 161.799 3.57599C162.949 3.11435 164.213 2.88352 165.591 2.88352C167.111 2.88352 168.468 3.10724 169.661 3.55469C170.854 3.99503 171.795 4.66264 172.484 5.55753C173.173 6.44531 173.517 7.55682 173.517 8.89205C173.517 9.75142 173.368 10.5078 173.07 11.1612C172.779 11.8075 172.37 12.3793 171.845 12.8764C171.326 13.3665 170.719 13.8139 170.023 14.2188C169.512 14.517 169.082 14.826 168.734 15.1456C168.386 15.4581 168.123 15.8168 167.946 16.2216C167.768 16.6193 167.679 17.1023 167.679 17.6705V18.1818H162.651ZM165.25 25.3409C164.426 25.3409 163.72 25.0533 163.13 24.478C162.548 23.8956 162.26 23.1889 162.267 22.358C162.26 21.5483 162.548 20.8558 163.13 20.2805C163.72 19.7053 164.426 19.4176 165.25 19.4176C166.032 19.4176 166.721 19.7053 167.317 20.2805C167.921 20.8558 168.226 21.5483 168.233 22.358C168.226 22.9119 168.081 23.4162 167.797 23.8707C167.52 24.3182 167.157 24.6768 166.71 24.9467C166.262 25.2095 165.776 25.3409 165.25 25.3409Z" fill="#E617DB"/>
</svg>
